<svg width="338" height="180" viewBox="0 0 338 180" fill="none" xmlns="http://www.w3.org/2000/svg">
<rect width="338" height="180" fill="#FCF5E3"/>
<path d="M220.803 136.394C218.348 139.54 211.918 146.165 209.795 147.54C190.919 159.768 163.283 155.879 157.209 154.646C148.24 152.824 127.5 154.357 114.966 139.616C96.0021 117.315 97.774 79.8064 112.484 56.6137C115.174 52.3713 131.656 27.1017 160.543 23.3256C178.025 21.0404 204.219 23.7389 218.977 36.1027C249.954 62.0556 236.705 116.017 220.803 136.394Z" fill="url(#paint0_linear_314_71)"/>
<path d="M140.982 44.131C140.989 43.5355 141.791 43.3449 142.063 43.8749C144.69 48.9989 152 62.2184 160.359 68.324C173.969 78.2655 185.4 96.5745 180.352 108.284C180.352 108.284 140.202 109.02 140.982 44.131Z" fill="#BDD0FB"/>
<path opacity="0.43" d="M143.627 51.6661C143.677 51.8408 143.732 51.9811 143.785 52.1348L143.95 52.5839L144.288 53.4773C144.518 54.0712 144.757 54.6616 144.997 55.2515C145.479 56.43 145.975 57.6029 146.484 58.7703C147.503 61.1043 148.586 63.41 149.703 65.6991C150.817 67.9901 151.99 70.2516 153.221 72.4836C154.449 74.7163 155.708 76.9325 157.04 79.106C159.695 83.4575 162.588 87.6688 165.768 91.6587C167.379 93.6364 169.042 95.5732 170.813 97.4093C172.598 99.232 174.461 100.98 176.443 102.584C176.463 102.6 176.489 102.608 176.515 102.605C176.541 102.603 176.565 102.59 176.582 102.57C176.599 102.55 176.607 102.524 176.605 102.498C176.603 102.472 176.591 102.448 176.572 102.43L176.571 102.43C174.663 100.756 172.842 98.9847 171.115 97.1236C169.383 95.2694 167.76 93.3161 166.191 91.3236C164.621 89.3296 163.133 87.2727 161.692 85.1838C160.252 83.0937 158.899 80.945 157.558 78.7894C154.894 74.4655 152.462 70.0011 150.155 65.4742C149.006 63.2081 147.901 60.92 146.841 58.61C146.308 57.4565 145.787 56.2976 145.277 55.1333L144.529 53.3804L144.164 52.5006L143.986 52.0591C143.93 51.9136 143.868 51.7581 143.824 51.6287L143.817 51.6073C143.809 51.5825 143.791 51.5618 143.768 51.5498C143.745 51.5378 143.718 51.5354 143.693 51.5432C143.668 51.551 143.647 51.5683 143.635 51.5914C143.622 51.6145 143.62 51.6415 143.627 51.6666L143.627 51.6661Z" fill="white"/>
<path d="M160.9 25.8456C161.069 25.3015 161.857 25.3457 161.962 25.9058C162.974 31.3213 166.071 45.4385 172.071 53.318C181.839 66.1477 187.327 86.0563 179.504 95.4176C179.504 95.4176 142.484 85.1395 160.9 25.8456Z" fill="#91B3FA"/>
<path opacity="0.43" d="M161.27 33.4772C161.268 33.6515 161.28 33.7949 161.286 33.95L161.314 34.4068L161.381 35.3186C161.43 35.9261 161.488 36.5325 161.546 37.1389C161.667 38.3513 161.801 39.5622 161.949 40.7716C162.247 43.1902 162.611 45.6002 163.011 48.0044C163.407 50.4093 163.871 52.8031 164.385 55.1861C164.902 57.5685 165.452 59.9445 166.081 62.3012C167.328 67.0161 168.833 71.6676 170.661 76.194C171.599 78.4471 172.596 80.6768 173.72 82.8439C174.86 85.0021 176.092 87.1129 177.473 89.1243C177.487 89.1459 177.509 89.161 177.535 89.1662C177.56 89.1714 177.586 89.1664 177.608 89.1522C177.63 89.138 177.645 89.1157 177.65 89.0904C177.655 89.065 177.65 89.0386 177.636 89.0169L177.635 89.0158C176.343 86.9598 175.157 84.8388 174.082 82.661C172.999 80.4879 172.044 78.2539 171.149 75.9985C170.254 73.7418 169.45 71.4497 168.699 69.141C167.948 66.8314 167.294 64.4918 166.652 62.1494C165.388 57.4576 164.377 52.7001 163.495 47.9197C163.059 45.5283 162.67 43.1287 162.327 40.721C162.153 39.5179 161.991 38.313 161.841 37.1064L161.633 35.2949L161.538 34.3885L161.495 33.9352C161.484 33.7867 161.469 33.6268 161.464 33.4968L161.464 33.4748C161.463 33.4494 161.452 33.4254 161.434 33.4078C161.415 33.3902 161.391 33.3806 161.366 33.3809C161.34 33.3812 161.316 33.3914 161.298 33.4094C161.28 33.4275 161.27 33.4518 161.27 33.4772H161.27Z" fill="white"/>
<path d="M215.331 82.7101C226.876 71.1655 226.876 52.448 215.331 40.9034C203.787 29.3588 185.069 29.3588 173.525 40.9034C161.98 52.448 161.98 71.1655 173.525 82.7101C185.069 94.2548 203.787 94.2548 215.331 82.7101Z" fill="white"/>
<path d="M194.428 87.0367C208.362 87.0367 219.658 75.7409 219.658 61.8068C219.658 47.8727 208.362 36.5769 194.428 36.5769C180.494 36.5769 169.198 47.8727 169.198 61.8068C169.198 75.7409 180.494 87.0367 194.428 87.0367Z" fill="url(#paint1_linear_314_71)"/>
<path d="M194.428 88.3003C179.82 88.3003 167.935 76.4154 167.935 61.8067C167.935 47.1979 179.82 35.313 194.428 35.313C209.037 35.313 220.922 47.1978 220.922 61.8067C220.922 76.4155 209.037 88.3003 194.428 88.3003ZM194.428 36.5768C180.516 36.5768 169.198 47.8947 169.198 61.8068C169.198 75.7188 180.516 87.0368 194.428 87.0368C208.34 87.0368 219.658 75.7188 219.658 61.8068C219.658 47.8947 208.34 36.5768 194.428 36.5768Z" fill="white"/>
<path d="M205.304 72.683C211.311 66.6762 211.311 56.9373 205.304 50.9305C199.298 44.9237 189.559 44.9237 183.552 50.9305C177.545 56.9373 177.545 66.6762 183.552 72.683C189.559 78.6898 199.298 78.6898 205.304 72.683Z" fill="url(#paint2_linear_314_71)"/>
<path d="M194.428 78.4517C185.25 78.4517 177.783 70.9846 177.783 61.8066C177.783 52.6285 185.25 45.1616 194.428 45.1616C203.606 45.1616 211.073 52.6284 211.073 61.8066C211.073 70.9847 203.606 78.4517 194.428 78.4517ZM194.428 47.689C186.644 47.689 180.311 54.022 180.311 61.8065C180.311 69.591 186.644 75.9244 194.428 75.9244C202.213 75.9244 208.546 69.591 208.546 61.8065C208.546 54.022 202.213 47.689 194.428 47.689Z" fill="white"/>
<path d="M200.171 63.3976C201.05 60.2259 199.191 56.9425 196.019 56.0639C192.847 55.1854 189.564 57.0444 188.685 60.2162C187.807 63.3879 189.666 66.6713 192.838 67.5498C196.009 68.4284 199.293 66.5693 200.171 63.3976Z" fill="url(#paint3_linear_314_71)"/>
<path d="M194.428 69.0296C190.446 69.0296 187.205 65.7895 187.205 61.8067C187.205 57.8239 190.446 54.5837 194.428 54.5837C198.411 54.5837 201.651 57.8239 201.651 61.8067C201.651 65.7895 198.411 69.0296 194.428 69.0296ZM194.428 57.111C193.499 57.111 192.592 57.3864 191.819 57.9024C191.047 58.4183 190.445 59.1517 190.09 60.0097C189.735 60.8677 189.642 61.8119 189.823 62.7227C190.004 63.6336 190.451 64.4703 191.108 65.127C191.764 65.7837 192.601 66.2309 193.512 66.4121C194.423 66.5933 195.367 66.5003 196.225 66.1449C197.083 65.7895 197.816 65.1877 198.332 64.4155C198.848 63.6433 199.124 62.7354 199.124 61.8067C199.122 60.5618 198.627 59.3683 197.747 58.488C196.867 57.6077 195.673 57.1126 194.428 57.1112V57.111Z" fill="white"/>
<path d="M200.095 56.0468L200.892 56.8435L231.062 26.6729L230.265 25.8762L200.095 56.0468Z" fill="url(#paint4_linear_314_71)"/>
<path d="M200.66 54.1239C201.117 53.6668 203.272 55.8217 202.815 56.2788L194.823 62.5619C194.527 62.7938 194.145 62.4114 194.377 62.1161L200.66 54.1239Z" fill="url(#paint5_linear_314_71)"/>
<path d="M231.045 26.6902L235.104 27.0936L229.532 32.6655C228.631 33.5671 227.54 34.2573 226.34 34.6862C225.139 35.1152 223.858 35.2724 222.589 35.1463L231.045 26.6902Z" fill="#91B3FA"/>
<path d="M230.249 25.8933L229.845 21.8345L224.273 27.4064C223.372 28.308 222.681 29.3984 222.252 30.599C221.824 31.7997 221.666 33.0805 221.792 34.3493L230.249 25.8933Z" fill="#91B3FA"/>
<path d="M182.305 77.0367H235.937C236.574 77.0367 237.185 77.2897 237.635 77.74C238.085 78.1903 238.338 78.801 238.338 79.4378V158.895C238.338 159.126 238.246 159.348 238.083 159.512C237.919 159.676 237.697 159.768 237.465 159.768H179.904V79.4379C179.904 79.1225 179.966 78.8103 180.087 78.519C180.207 78.2277 180.384 77.963 180.607 77.74C180.83 77.5171 181.095 77.3402 181.386 77.2195C181.678 77.0989 181.99 77.0367 182.305 77.0367Z" fill="url(#paint6_linear_314_71)"/>
<path d="M156.82 93.778H202.946C203.261 93.778 203.574 93.8401 203.865 93.9607C204.156 94.0814 204.421 94.2582 204.644 94.4812C204.867 94.7042 205.044 94.9689 205.164 95.2602C205.285 95.5515 205.347 95.8637 205.347 96.179V160H154.419V96.179C154.419 95.8637 154.481 95.5515 154.602 95.2602C154.723 94.9689 154.899 94.7042 155.122 94.4812C155.345 94.2582 155.61 94.0814 155.901 93.9607C156.193 93.8401 156.505 93.778 156.82 93.778Z" fill="#91B3FA"/>
<path d="M128.334 119.465H167.415C167.73 119.465 168.042 119.527 168.334 119.648C168.625 119.768 168.89 119.945 169.112 120.168C169.335 120.391 169.512 120.656 169.633 120.947C169.754 121.238 169.816 121.551 169.816 121.866V159.768H126.805C126.574 159.768 126.352 159.676 126.188 159.512C126.024 159.348 125.932 159.126 125.932 158.895V121.866C125.932 121.229 126.185 120.619 126.636 120.168C127.086 119.718 127.697 119.465 128.334 119.465Z" fill="url(#paint7_linear_314_71)"/>
<path d="M103.063 135.193H142.144C142.459 135.193 142.772 135.255 143.063 135.376C143.354 135.496 143.619 135.673 143.842 135.896C144.065 136.119 144.242 136.384 144.362 136.675C144.483 136.966 144.545 137.279 144.545 137.594V159.768H101.535C101.42 159.768 101.307 159.745 101.201 159.701C101.095 159.657 100.998 159.593 100.917 159.512C100.836 159.431 100.772 159.335 100.728 159.229C100.684 159.123 100.662 159.009 100.662 158.895V137.594C100.662 137.279 100.724 136.966 100.845 136.675C100.965 136.384 101.142 136.119 101.365 135.896C101.588 135.673 101.853 135.496 102.144 135.376C102.435 135.255 102.748 135.193 103.063 135.193Z" fill="#91B3FA"/>
<path d="M220.151 74.6548H218.489L215.877 66.9704L223.138 66.5294L220.151 74.6548Z" fill="url(#paint8_linear_314_71)"/>
<path d="M211.456 52.6938C211.448 53.3424 211.448 66.0411 217.895 68.1033C224.341 70.1655 227.253 59.421 227.022 51.7689L211.456 52.6938Z" fill="url(#paint9_linear_314_71)"/>
<path d="M224.473 75.8206H214.167V77.0718H224.473V75.8206Z" fill="url(#paint10_linear_314_71)"/>
<path d="M224.473 75.8206H214.167L216.775 74.4213H221.865L224.473 75.8206Z" fill="url(#paint11_linear_314_71)"/>
<path d="M210.709 50.8919C210.144 50.9265 209.681 51.3453 209.681 51.8229V52.7996C209.681 53.2772 210.144 53.643 210.71 53.6126L228.377 52.662C228.943 52.6315 229.407 52.2159 229.407 51.7383V50.6225C229.407 50.1449 228.944 49.7823 228.378 49.8167L210.709 50.8919Z" fill="url(#paint12_linear_314_71)"/>
<path d="M222.46 69.1126C222.048 69.1126 221.693 68.8524 221.645 68.4997C221.593 68.1205 221.917 67.778 222.367 67.7345C222.453 67.7259 228.381 67.0998 228.943 63.8549C229.038 63.3078 229.028 62.5931 228.439 62.2948C227.954 62.0486 227.159 62.1271 226.59 62.4768C226.267 62.6758 225.914 63.0246 226.064 63.5549C226.169 63.9263 225.897 64.2992 225.456 64.3878C225.015 64.4764 224.572 64.2472 224.467 63.8758C224.194 62.9141 224.625 61.9739 225.621 61.3609C226.727 60.68 228.234 60.5769 229.287 61.1105C229.902 61.4223 230.887 62.2195 230.569 64.0544C230.254 65.8687 228.739 67.3221 226.187 68.2574C225.013 68.6793 223.794 68.9647 222.554 69.1081C222.522 69.1111 222.491 69.1126 222.46 69.1126Z" fill="url(#paint13_linear_314_71)"/>
<path d="M216.311 69.1126C216.723 69.1126 217.078 68.8524 217.126 68.4997C217.177 68.1205 216.854 67.778 216.403 67.7345C216.318 67.7259 210.389 67.0998 209.827 63.8549C209.732 63.3078 209.743 62.5931 210.331 62.2948C210.817 62.0486 211.612 62.1271 212.18 62.4768C212.503 62.6758 212.857 63.0246 212.706 63.5549C212.601 63.9263 212.873 64.2992 213.315 64.3878C213.756 64.4764 214.199 64.2472 214.304 63.8758C214.577 62.9141 214.145 61.9739 213.15 61.3609C212.044 60.68 210.536 60.5769 209.484 61.1105C208.868 61.4223 207.884 62.2195 208.202 64.0544C208.516 65.8687 210.031 67.3221 212.583 68.2574C213.758 68.6793 214.977 68.9647 216.216 69.1081C216.248 69.1111 216.28 69.1126 216.311 69.1126Z" fill="url(#paint14_linear_314_71)"/>
<path opacity="0.63" d="M223.525 51.6962C223.49 51.6961 223.456 51.6824 223.431 51.658C223.406 51.6336 223.392 51.6004 223.391 51.5654C223.39 51.5305 223.403 51.4966 223.426 51.4709C223.45 51.4451 223.483 51.4297 223.518 51.4278L225.096 51.3428C225.131 51.3412 225.166 51.3536 225.192 51.3774C225.218 51.4011 225.234 51.4343 225.236 51.4697C225.238 51.5051 225.226 51.5398 225.202 51.5662C225.179 51.5927 225.145 51.6088 225.11 51.6109L223.532 51.6958C223.53 51.6961 223.527 51.6962 223.525 51.6962Z" fill="white"/>
<path opacity="0.63" d="M211.456 52.3457C211.421 52.3456 211.387 52.3319 211.362 52.3075C211.337 52.2831 211.323 52.2499 211.322 52.2149C211.321 52.18 211.334 52.1461 211.357 52.1203C211.381 52.0946 211.414 52.0792 211.449 52.0773L220.874 51.5702C220.892 51.5691 220.91 51.5715 220.927 51.5773C220.943 51.5831 220.959 51.5922 220.972 51.604C220.985 51.6158 220.996 51.63 221.004 51.646C221.011 51.662 221.016 51.6793 221.017 51.697C221.018 51.7147 221.015 51.7324 221.009 51.7491C221.003 51.7658 220.994 51.7812 220.982 51.7943C220.97 51.8074 220.956 51.8181 220.94 51.8257C220.924 51.8332 220.907 51.8375 220.889 51.8383L211.463 52.3455C211.461 52.3456 211.458 52.3457 211.456 52.3457Z" fill="white"/>
<path opacity="0.63" d="M218.754 66.6637C218.749 66.6637 218.744 66.6634 218.739 66.6628C217.032 66.4664 215.668 65.0766 214.683 62.5317C213.871 60.4303 213.487 57.971 213.308 56.278C213.305 56.2429 213.316 56.2081 213.339 56.1809C213.361 56.1538 213.393 56.1365 213.428 56.1328C213.463 56.1291 213.498 56.1393 213.526 56.1612C213.553 56.1831 213.571 56.2149 213.575 56.2498C213.882 59.1562 215.002 65.9627 218.77 66.396C218.804 66.3998 218.835 66.4166 218.857 66.4428C218.879 66.469 218.891 66.5027 218.889 66.537C218.887 66.5713 218.872 66.6035 218.847 66.627C218.822 66.6506 218.789 66.6637 218.754 66.6637Z" fill="white"/>
<path opacity="0.63" d="M213.328 55.0703C213.294 55.0702 213.261 55.0572 213.236 55.0339C213.211 55.0106 213.196 54.9788 213.194 54.9448C213.169 54.5572 213.162 54.3343 213.162 54.325C213.161 54.2894 213.174 54.2549 213.198 54.2289C213.223 54.203 213.256 54.1879 213.292 54.1868C213.31 54.1856 213.328 54.1881 213.344 54.1941C213.361 54.2001 213.376 54.2096 213.389 54.2218C213.402 54.234 213.413 54.2488 213.42 54.2652C213.427 54.2816 213.43 54.2992 213.43 54.317C213.43 54.3193 213.437 54.5451 213.462 54.9273C213.464 54.9629 213.452 54.9979 213.429 55.0246C213.405 55.0514 213.372 55.0677 213.337 55.07C213.334 55.0702 213.331 55.0703 213.328 55.0703Z" fill="white"/>
<path d="M141.378 86.8279L137.959 92.0869C139.549 95.1849 141.316 96.8952 143.083 97.7083C143.398 95.7781 144.526 94.176 145.353 93.2243C142.201 91.4313 141.378 86.8279 141.378 86.8279Z" fill="url(#paint15_linear_314_71)"/>
<path d="M153.123 92.2802C149.623 94.3516 147.121 94.2301 145.353 93.2243C144.526 94.1759 143.398 95.7781 143.083 97.7082C148.7 100.293 154.326 93.7874 154.326 93.7874L153.123 92.2802Z" fill="url(#paint16_linear_314_71)"/>
<path d="M153.313 93.1811C153.313 93.1811 152.368 91.5339 153.727 90.2691C153.727 90.2691 154.165 89.7694 154.646 90.5036C154.646 90.5036 156.108 89.1766 156.507 89.7111C156.907 90.2456 157.967 91.5692 156.932 93.0789C155.885 94.6056 153.774 93.9251 153.313 93.1811Z" fill="url(#paint17_linear_314_71)"/>
<path d="M154.75 92.2642C154.602 92.2679 154.457 92.2319 154.328 92.16C154.199 92.0836 154.037 91.9242 153.995 91.5981C153.99 91.5534 154.003 91.5084 154.03 91.473C154.058 91.4375 154.099 91.4144 154.143 91.4087C154.188 91.4031 154.233 91.4152 154.269 91.4426C154.305 91.4699 154.328 91.5103 154.335 91.5549C154.354 91.7084 154.409 91.81 154.502 91.8654C154.632 91.9427 154.824 91.9269 154.967 91.8961L154.636 90.846C154.623 90.8028 154.627 90.7559 154.648 90.7157C154.669 90.6755 154.705 90.6452 154.748 90.6316C154.791 90.6179 154.838 90.622 154.878 90.643C154.918 90.6639 154.949 90.6999 154.962 90.7432L155.346 91.9595C155.359 92.0008 155.356 92.0456 155.337 92.0847C155.319 92.1237 155.286 92.1543 155.245 92.1701C155.087 92.2298 154.919 92.2616 154.75 92.2642Z" fill="#F79E6D"/>
<path d="M103.588 127.599C103.284 127.782 103.129 128.167 103.201 128.545C103.487 130.032 104.424 133.96 106.703 136.285C106.735 136.32 106.773 136.347 106.816 136.366C106.86 136.385 106.906 136.395 106.953 136.395C107 136.396 107.047 136.386 107.09 136.367C107.133 136.349 107.172 136.321 107.204 136.287C106.627 135.686 105.912 134.658 105.076 132.914C103.791 130.232 103.553 128.578 103.588 127.599Z" fill="url(#paint18_linear_314_71)"/>
<path d="M106.53 127.543C106.53 127.543 105.061 126.744 103.599 127.591C103.595 127.593 103.592 127.596 103.588 127.599C103.553 128.578 103.791 130.232 105.076 132.914C105.912 134.658 106.627 135.686 107.204 136.287C107.249 136.239 107.282 136.182 107.299 136.119C107.727 134.633 108.631 130.502 106.53 127.543Z" fill="url(#paint19_linear_314_71)"/>
<path d="M108.652 127.635L107.321 128.913C107.207 129.023 107.059 129.091 106.901 129.106C106.743 129.121 106.585 129.082 106.452 128.995C106.148 128.791 105.913 128.5 105.775 128.161C105.724 128.038 105.709 127.902 105.731 127.771C105.754 127.639 105.814 127.517 105.904 127.418L107.233 125.956C107.307 125.875 107.398 125.812 107.501 125.773C107.603 125.734 107.713 125.719 107.822 125.73C107.932 125.741 108.036 125.778 108.129 125.837C108.221 125.896 108.298 125.976 108.354 126.071L108.77 126.773C108.85 126.909 108.882 127.069 108.861 127.225C108.839 127.381 108.766 127.526 108.652 127.635Z" fill="url(#paint20_linear_314_71)"/>
<path d="M151.677 121.229C151.986 121.403 152.398 121.347 152.691 121.098C153.842 120.115 156.793 117.358 157.689 114.228C157.703 114.183 157.708 114.136 157.703 114.089C157.698 114.042 157.684 113.997 157.661 113.956C157.638 113.915 157.606 113.879 157.569 113.851C157.531 113.823 157.488 113.802 157.442 113.792C157.205 114.59 156.665 115.72 155.562 117.309C153.866 119.751 152.546 120.776 151.677 121.229Z" fill="url(#paint21_linear_314_71)"/>
<path d="M150.174 118.699C150.174 118.699 150.206 120.371 151.665 121.224C151.669 121.226 151.673 121.227 151.677 121.229C152.546 120.776 153.866 119.751 155.562 117.309C156.665 115.72 157.205 114.59 157.442 113.792C157.379 113.776 157.313 113.776 157.25 113.792C155.746 114.154 151.708 115.41 150.174 118.699Z" fill="url(#paint22_linear_314_71)"/>
<path d="M150.071 115.931L151.462 117.142C151.582 117.246 151.663 117.387 151.692 117.543C151.721 117.699 151.696 117.86 151.621 118C151.445 118.321 151.177 118.582 150.851 118.748C150.733 118.811 150.6 118.838 150.467 118.827C150.333 118.816 150.206 118.768 150.1 118.687L148.525 117.494C148.438 117.428 148.367 117.342 148.319 117.243C148.271 117.145 148.246 117.036 148.248 116.927C148.249 116.817 148.276 116.709 148.327 116.612C148.377 116.515 148.45 116.431 148.539 116.367L149.202 115.89C149.33 115.798 149.486 115.752 149.644 115.759C149.801 115.766 149.952 115.827 150.071 115.931Z" fill="url(#paint23_linear_314_71)"/>
<path d="M122.163 103.666C122.163 103.666 119.449 112.913 117.694 116.977C117.694 116.977 114.627 117.445 112.728 118.554C110.83 119.663 106.74 125.812 106.74 125.812C106.74 125.812 107.808 127.839 109.097 128.15L120.739 120.084L130.03 109.279L129.589 104.268L122.163 103.666Z" fill="url(#paint24_linear_314_71)"/>
<path d="M122.331 102.912L121.536 105.444C121.536 105.444 122.263 112.082 130.632 110.963C139 109.844 140.052 108.477 140.052 108.477C140.052 108.477 139.326 112.717 148.477 117.815C148.477 117.815 149.868 116.765 150.174 115.572L143.761 105.003C142.869 103.616 142.042 103.251 140.413 103.506C136.812 104.069 130.068 104.803 129.047 104.629L122.331 102.912Z" fill="url(#paint25_linear_314_71)"/>
<path d="M128.867 84.0834C126.428 84.2075 122.573 85.3668 120.083 87.6594C120.848 88.5043 122.026 89.8782 122.904 91.2353C123.688 90.4987 124.815 89.8853 126.401 89.4924C125.03 94.6163 123.409 99.4979 121.435 104.036C121.405 104.102 121.39 104.175 121.389 104.248C121.389 104.321 121.404 104.393 121.433 104.46C121.462 104.528 121.505 104.588 121.558 104.638C121.612 104.688 121.675 104.726 121.744 104.75C123.272 105.282 127.778 106.551 131.393 104.508L139.405 93.0349C140.267 91.8009 140.834 90.3854 141.061 88.8976L141.377 86.8279C141.377 86.8279 134.181 83.8132 128.867 84.0834Z" fill="url(#paint26_linear_314_71)"/>
<path d="M124.497 101.446C124.149 100.677 122.956 99.9583 122.387 99.6495C121.892 98.6291 119.916 94.0398 122.904 91.2352C122.026 89.8782 120.848 88.5042 120.083 87.6593C117.209 90.3045 116.157 94.4598 121.196 100.278C120.921 101.711 121.818 103.379 122.304 103.614C122.527 103.721 124.96 102.468 124.497 101.446Z" fill="url(#paint27_linear_314_71)"/>
<path d="M134.279 81.0359L132.186 85.1334C132.123 85.2552 132.099 85.3932 132.116 85.5291C132.134 85.6649 132.192 85.7923 132.284 85.8943C132.791 86.4589 133.988 87.376 136.07 86.7188C136.183 86.6822 136.283 86.6148 136.359 86.5241C136.435 86.4335 136.484 86.3234 136.5 86.2062L137.045 82.485L134.279 81.0359Z" fill="url(#paint28_linear_314_71)"/>
<path d="M137.769 76.278C137.769 76.278 138.997 79.0985 139.079 80.5789C139.162 82.0593 139.481 83.0199 137.769 83.318C136.057 83.6161 134.615 82.7634 133.834 81.2888C133.834 81.2888 132.61 79.0165 132.885 78.0859C133.159 77.1553 137.769 76.278 137.769 76.278Z" fill="url(#paint29_linear_314_71)"/>
<path d="M134.419 80.2285L134.517 80.1856C134.546 80.1727 134.572 80.154 134.594 80.1305C134.616 80.107 134.633 80.0793 134.644 80.0491C134.655 80.0188 134.659 79.9867 134.657 79.9547C134.655 79.9226 134.646 79.8914 134.631 79.8629C134.39 79.3964 133.919 78.3277 134.527 78.0784C135.311 77.7571 138.414 77.1243 139.084 76.0232C139.727 74.9649 139.157 73.5988 138.3 73.2103C138.273 73.1973 138.242 73.1953 138.213 73.2047C138.184 73.214 138.16 73.234 138.146 73.2606L138.074 73.3957C138.063 73.4162 138.047 73.433 138.026 73.4439C138.006 73.4548 137.983 73.4594 137.96 73.457C137.936 73.4547 137.915 73.4455 137.897 73.4306C137.879 73.4158 137.866 73.3959 137.86 73.3737C137.854 73.3521 137.841 73.3328 137.824 73.318C137.808 73.3033 137.787 73.2937 137.765 73.2906C137.743 73.2874 137.72 73.2907 137.7 73.3001C137.679 73.3096 137.662 73.3247 137.65 73.3437C137.444 73.6731 136.889 74.2072 135.403 74.4814C133.291 74.8712 131.895 75.7257 131.86 77.185C131.86 77.2058 131.854 77.2262 131.843 77.244C131.832 77.2618 131.817 77.2763 131.799 77.2861C131.78 77.2959 131.76 77.3006 131.739 77.2997C131.718 77.2988 131.698 77.2923 131.68 77.2809C131.524 77.1859 131.275 77.1413 130.941 77.4217C130.361 77.9094 130.599 79.1743 131.87 80.2149C131.884 80.226 131.896 80.2404 131.904 80.2568C131.911 80.2733 131.915 80.2913 131.915 80.3094C131.914 80.3276 131.909 80.3453 131.901 80.3613C131.892 80.3772 131.88 80.3909 131.865 80.4012C131.634 80.5512 131.29 80.9082 132.181 81.3841C133.102 81.8764 133.789 81.836 134.054 81.7923C134.07 81.7897 134.084 81.7839 134.098 81.7754C134.111 81.7668 134.122 81.7557 134.131 81.7426C134.14 81.7295 134.146 81.7147 134.149 81.6992C134.152 81.6837 134.151 81.6678 134.148 81.6524L133.865 80.3699C133.861 80.3529 133.862 80.3353 133.865 80.3184C133.869 80.3015 133.877 80.2856 133.888 80.2721C133.899 80.2585 133.913 80.2475 133.928 80.24C133.944 80.2325 133.961 80.2286 133.979 80.2285H134.419Z" fill="url(#paint30_linear_314_71)"/>
<path d="M134.472 80.4992C134.472 80.4992 134.004 78.6974 133.196 79.2026C132.388 79.7078 133.616 81.2214 134.265 81.2888L134.472 80.4992Z" fill="url(#paint31_linear_314_71)"/>
<path d="M338.5 152C338.5 152 270.884 180 169.5 180C68.0982 180 0.5 152 0.5 152L0.5 180L338.5 180V152Z" fill="white"/>
<defs>
<linearGradient id="paint0_linear_314_71" x1="254.636" y1="196.013" x2="135.152" y2="47.6219" gradientUnits="userSpaceOnUse">
<stop stop-color="#DAE3FE"/>
<stop offset="1" stop-color="#E9EFFD"/>
</linearGradient>
<linearGradient id="paint1_linear_314_71" x1="253.536" y1="32.3385" x2="25.1693" y2="146.191" gradientUnits="userSpaceOnUse">
<stop stop-color="#4F52FF"/>
<stop offset="1" stop-color="#4042E2"/>
</linearGradient>
<linearGradient id="paint2_linear_314_71" x1="110159" y1="-10657.8" x2="-12195.7" y2="73938.5" gradientUnits="userSpaceOnUse">
<stop stop-color="#4F52FF"/>
<stop offset="1" stop-color="#4042E2"/>
</linearGradient>
<linearGradient id="paint3_linear_314_71" x1="31300.9" y1="-9447" x2="26744.4" y2="865.139" gradientUnits="userSpaceOnUse">
<stop stop-color="#4F52FF"/>
<stop offset="1" stop-color="#4042E2"/>
</linearGradient>
<linearGradient id="paint4_linear_314_71" x1="185.94" y1="59.2862" x2="218.207" y2="39.7657" gradientUnits="userSpaceOnUse">
<stop stop-color="#09005D"/>
<stop offset="1" stop-color="#1A0F91"/>
</linearGradient>
<linearGradient id="paint5_linear_314_71" x1="30874.6" y1="-23659.2" x2="34842.7" y2="-26950.5" gradientUnits="userSpaceOnUse">
<stop stop-color="#09005D"/>
<stop offset="1" stop-color="#1A0F91"/>
</linearGradient>
<linearGradient id="paint6_linear_314_71" x1="254.658" y1="58.2982" x2="104.319" y2="258.411" gradientUnits="userSpaceOnUse">
<stop stop-color="#FF928E"/>
<stop offset="1" stop-color="#FE7062"/>
</linearGradient>
<linearGradient id="paint7_linear_314_71" x1="114181" y1="8870.26" x2="-9292.71" y2="187824" gradientUnits="userSpaceOnUse">
<stop stop-color="#FF928E"/>
<stop offset="1" stop-color="#FE7062"/>
</linearGradient>
<linearGradient id="paint8_linear_314_71" x1="220.48" y1="48.0842" x2="219.928" y2="58.6752" gradientUnits="userSpaceOnUse">
<stop stop-color="#E1473D"/>
<stop offset="1" stop-color="#E9605A"/>
</linearGradient>
<linearGradient id="paint9_linear_314_71" x1="36606.9" y1="19535.3" x2="37553.2" y2="12501.8" gradientUnits="userSpaceOnUse">
<stop stop-color="#FF928E"/>
<stop offset="1" stop-color="#FE7062"/>
</linearGradient>
<linearGradient id="paint10_linear_314_71" x1="25264.6" y1="940.125" x2="25262.6" y2="1209.71" gradientUnits="userSpaceOnUse">
<stop stop-color="#E1473D"/>
<stop offset="1" stop-color="#E9605A"/>
</linearGradient>
<linearGradient id="paint11_linear_314_71" x1="27891.4" y1="1108.28" x2="27845" y2="1540.57" gradientUnits="userSpaceOnUse">
<stop stop-color="#FF928E"/>
<stop offset="1" stop-color="#FE7062"/>
</linearGradient>
<linearGradient id="paint12_linear_314_71" x1="46936" y1="2789.16" x2="47007.5" y2="1742.07" gradientUnits="userSpaceOnUse">
<stop stop-color="#FF928E"/>
<stop offset="1" stop-color="#FE7062"/>
</linearGradient>
<linearGradient id="paint13_linear_314_71" x1="25184.2" y1="6089.76" x2="20823.5" y2="9071.21" gradientUnits="userSpaceOnUse">
<stop stop-color="#FF928E"/>
<stop offset="1" stop-color="#FE7062"/>
</linearGradient>
<linearGradient id="paint14_linear_314_71" x1="16256.3" y1="53624.9" x2="20617" y2="56606.3" gradientUnits="userSpaceOnUse">
<stop stop-color="#FF928E"/>
<stop offset="1" stop-color="#FE7062"/>
</linearGradient>
<linearGradient id="paint15_linear_314_71" x1="6753.67" y1="15933.3" x2="3180.78" y2="14595.1" gradientUnits="userSpaceOnUse">
<stop stop-color="#4F52FF"/>
<stop offset="1" stop-color="#4042E2"/>
</linearGradient>
<linearGradient id="paint16_linear_314_71" x1="155.681" y1="91.3287" x2="129.998" y2="103.77" gradientUnits="userSpaceOnUse">
<stop stop-color="#FEBBBA"/>
<stop offset="1" stop-color="#FF928E"/>
</linearGradient>
<linearGradient id="paint17_linear_314_71" x1="5046.77" y1="6323.76" x2="2761.32" y2="7423.05" gradientUnits="userSpaceOnUse">
<stop stop-color="#FEBBBA"/>
<stop offset="1" stop-color="#FF928E"/>
</linearGradient>
<linearGradient id="paint18_linear_314_71" x1="308.667" y1="19766.4" x2="636.283" y2="19766.4" gradientUnits="userSpaceOnUse">
<stop stop-color="#09005D"/>
<stop offset="1" stop-color="#1A0F91"/>
</linearGradient>
<linearGradient id="paint19_linear_314_71" x1="357.059" y1="20362.4" x2="728.054" y2="20362.4" gradientUnits="userSpaceOnUse">
<stop stop-color="#09005D"/>
<stop offset="1" stop-color="#1A0F91"/>
</linearGradient>
<linearGradient id="paint20_linear_314_71" x1="428.292" y1="7363.34" x2="628.895" y2="7363.34" gradientUnits="userSpaceOnUse">
<stop stop-color="#FEBBBA"/>
<stop offset="1" stop-color="#FF928E"/>
</linearGradient>
<linearGradient id="paint21_linear_314_71" x1="6384.13" y1="14737.7" x2="7120.49" y2="14737.7" gradientUnits="userSpaceOnUse">
<stop stop-color="#09005D"/>
<stop offset="1" stop-color="#1A0F91"/>
</linearGradient>
<linearGradient id="paint22_linear_314_71" x1="7442.66" y1="14556.2" x2="8513.1" y2="14556.2" gradientUnits="userSpaceOnUse">
<stop stop-color="#09005D"/>
<stop offset="1" stop-color="#1A0F91"/>
</linearGradient>
<linearGradient id="paint23_linear_314_71" x1="3481.38" y1="6057.36" x2="3723.5" y2="6057.36" gradientUnits="userSpaceOnUse">
<stop stop-color="#FEBBBA"/>
<stop offset="1" stop-color="#FF928E"/>
</linearGradient>
<linearGradient id="paint24_linear_314_71" x1="2975.59" y1="46781.2" x2="13967.3" y2="46781.2" gradientUnits="userSpaceOnUse">
<stop stop-color="#09005D"/>
<stop offset="1" stop-color="#1A0F91"/>
</linearGradient>
<linearGradient id="paint25_linear_314_71" x1="12236.4" y1="26839.5" x2="28856.8" y2="26839.5" gradientUnits="userSpaceOnUse">
<stop stop-color="#09005D"/>
<stop offset="1" stop-color="#1A0F91"/>
</linearGradient>
<linearGradient id="paint26_linear_314_71" x1="13353.1" y1="28927.2" x2="5023.59" y2="42036.9" gradientUnits="userSpaceOnUse">
<stop stop-color="#4F52FF"/>
<stop offset="1" stop-color="#4042E2"/>
</linearGradient>
<linearGradient id="paint27_linear_314_71" x1="3346.28" y1="25282.1" x2="-2215.17" y2="21043.2" gradientUnits="userSpaceOnUse">
<stop stop-color="#FEBBBA"/>
<stop offset="1" stop-color="#FF928E"/>
</linearGradient>
<linearGradient id="paint28_linear_314_71" x1="3412.81" y1="8026.48" x2="3631.91" y2="7504.88" gradientUnits="userSpaceOnUse">
<stop stop-color="#FEBBBA"/>
<stop offset="1" stop-color="#FF928E"/>
</linearGradient>
<linearGradient id="paint29_linear_314_71" x1="4912.59" y1="8266.17" x2="3939.44" y2="8928.23" gradientUnits="userSpaceOnUse">
<stop stop-color="#FEBBBA"/>
<stop offset="1" stop-color="#FF928E"/>
</linearGradient>
<linearGradient id="paint30_linear_314_71" x1="5859.27" y1="9272.28" x2="6997.6" y2="10755" gradientUnits="userSpaceOnUse">
<stop stop-color="#09005D"/>
<stop offset="1" stop-color="#1A0F91"/>
</linearGradient>
<linearGradient id="paint31_linear_314_71" x1="1273.74" y1="2538.69" x2="1004.97" y2="2684.51" gradientUnits="userSpaceOnUse">
<stop stop-color="#FEBBBA"/>
<stop offset="1" stop-color="#FF928E"/>
</linearGradient>
</defs>
</svg>
