<svg width="337" height="180" viewBox="0 0 337 180" fill="none" xmlns="http://www.w3.org/2000/svg">
<rect width="337" height="180" fill="#E4F8FD"/>
<path d="M163.817 26.6018C130.158 25.5796 101.003 50.6954 96.5977 83.6504C91.7816 119.682 118.289 152.102 150.905 157.295C191.474 163.753 230.824 126.389 227.291 85.8548C224.629 55.3157 198.032 27.6408 163.817 26.6018Z" fill="#FFD1CC"/>
<path d="M174.224 109.654C172.249 103.95 170.193 95.2266 172.278 85.4712C174.673 74.2695 180.34 71.9444 185.268 59.9322C193.173 40.6654 186.794 26.6572 191.315 25.2565C196.019 23.7986 207.876 37.4403 207.797 52.2312C207.724 65.9289 197.442 75.5656 196.427 76.4896C188.597 83.6167 182.357 82.2266 177.411 88.9574C172.658 95.4262 173.174 103.851 174.224 109.654Z" fill="url(#paint0_linear_314_129)"/>
<path opacity="0.5" d="M174.416 122.464C170.538 106.913 171.259 93.5144 176.558 82.642C179.759 76.0736 183.957 71.7692 187.66 67.9715C192.146 63.3722 196.019 59.3998 197.539 52.6375C199.689 43.0672 196.022 32.1266 186.639 20.1196L186.792 20C196.212 32.0551 199.892 43.0501 197.728 52.68C196.197 59.496 192.305 63.4865 187.799 68.1071C184.106 71.8942 179.92 76.1868 176.732 82.7272C171.454 93.5574 170.738 106.911 174.605 122.417L174.416 122.464Z" fill="white"/>
<path opacity="0.5" d="M196.95 55.0286L196.922 54.8355C196.477 51.7141 195.374 48.723 193.685 46.0603C191.025 41.8898 187.529 39.5113 185.064 38.2506L185.152 38.0776C187.638 39.3494 191.166 41.7486 193.849 45.9558C195.517 48.5862 196.62 51.5351 197.086 54.6147C199.492 52.1553 201.343 49.2095 202.515 45.9752C204.495 40.4604 204.007 35.4733 203.248 32.2606L203.437 32.2161C204.202 35.4541 204.694 40.4812 202.698 46.0409C201.493 49.3634 199.579 52.3834 197.087 54.8901L196.95 55.0286Z" fill="white"/>
<path opacity="0.5" d="M185.476 70.5261L185.6 70.3526C186.812 68.6625 188.805 65.1106 188.534 60.3119C188.285 55.9139 186.234 52.7775 185.033 51.2994L185.183 51.1769C186.399 52.6733 188.476 55.8483 188.728 60.3009C188.993 65.0003 187.114 68.5181 185.881 70.2917C190.709 69.7987 195.351 68.1932 199.318 65.6423C208.408 59.7973 211.623 50.6274 212.584 46.9562L212.772 47.0053C211.806 50.6985 208.571 59.9237 199.423 65.8056C195.372 68.4103 190.623 70.0354 185.688 70.5058L185.476 70.5261Z" fill="white"/>
<path opacity="0.5" d="M175.719 84.9026L175.714 84.806C175.602 82.5506 175.602 80.2654 175.714 78.014C175.958 73.1341 176.718 68.2936 177.979 63.5733L178.167 63.6233C176.909 68.3305 176.152 73.1574 175.908 78.0237C175.798 80.2364 175.797 82.482 175.903 84.6997C181.256 84.4441 186.387 83.1978 191.153 80.995C201.933 76.0123 207.824 67.412 210.376 62.729L210.546 62.8219C207.983 67.5261 202.065 76.1652 191.235 81.1714C186.416 83.3981 181.229 84.6525 175.815 84.8985L175.719 84.9026Z" fill="white"/>
<path d="M174.471 107.12C173.338 103.059 172.244 96.6439 174.982 90.5029C179.76 79.7893 190.826 81.9687 199.898 70.0611C207.215 60.4571 203.876 53.9732 212.403 47.1927C218.523 42.3263 226.569 40.6357 227.72 42.404C228.958 44.3054 220.896 48.1605 217.228 57.6901C212.455 70.0906 220.856 77.2052 215.774 84.9797C211.908 90.8929 205.607 88.9821 191.868 95.6447C185.594 98.6952 179.745 102.553 174.471 107.12Z" fill="url(#paint1_linear_314_129)"/>
<path opacity="0.5" d="M172.592 121.255L172.398 121.255C172.414 106.424 176.066 95.7773 183.254 89.6114C186.673 86.6788 189.986 85.4784 193.19 84.3178C197.128 82.891 200.847 81.5433 204.271 77.1033C207.331 73.1343 207.902 69.6068 208.506 65.8721C209.062 62.4312 209.638 58.873 212.141 54.5886C215.895 48.1634 222.218 43.2114 230.934 39.8701L231.003 40.0514C222.33 43.3765 216.04 48.3005 212.309 54.6866C209.824 58.9398 209.251 62.4797 208.698 65.9029C208.089 69.6626 207.515 73.2138 204.424 77.2216C200.966 81.7066 197.221 83.0635 193.256 84.5001C190.069 85.6549 186.773 86.8491 183.381 89.7588C176.237 95.8862 172.608 106.483 172.592 121.255Z" fill="white"/>
<path opacity="0.5" d="M209.17 63.0625L209.079 62.808C208.239 60.4932 207.85 58.0394 207.931 55.5784C208.129 49.8171 210.924 45.5786 212.573 43.5648L212.724 43.6879C211.09 45.6827 208.321 49.8809 208.125 55.5848C208.048 57.9305 208.402 60.2703 209.172 62.4875C210.493 58.9383 212.466 56.3728 215.037 54.8607C217.739 53.2723 220.2 53.3416 222.806 53.415C224.417 53.46 226.082 53.5074 227.827 53.1313C233.17 51.9798 237.869 47.0839 241.793 38.5797L241.97 38.661C238.018 47.2235 233.274 52.1559 227.868 53.3209C226.1 53.7019 224.422 53.6543 222.8 53.6089C220.224 53.536 217.789 53.4676 215.136 55.028C212.543 56.5524 210.567 59.1698 209.262 62.8078L209.17 63.0625Z" fill="white"/>
<path opacity="0.5" d="M203.139 78.6256L203.124 78.5244C202.061 71.5703 202.316 64.4784 203.874 57.6184L204.064 57.6611C202.518 64.4639 202.26 71.4957 203.301 78.3937C206.488 77.7235 209.505 76.4118 212.17 74.5386C216.231 71.6859 218.578 68.1467 219.831 65.68L220.004 65.768C218.741 68.2544 216.375 71.8218 212.281 74.6975C209.567 76.6058 206.49 77.9358 203.24 78.605L203.139 78.6256Z" fill="white"/>
<path opacity="0.5" d="M205.299 88.3901C204.496 88.3901 203.678 88.362 202.845 88.3059C198.79 88.0236 194.811 87.0612 191.075 85.4589L190.938 85.4006L191.046 85.2988C192.989 83.4729 194.485 81.2232 195.416 78.7248C196.167 76.6959 196.526 74.5429 196.474 72.3801L196.669 72.3757C196.721 74.563 196.357 76.7403 195.598 78.7921C194.674 81.2717 193.2 83.5097 191.287 85.338C194.964 86.8974 198.874 87.8348 202.858 88.112C211.681 88.7175 218.836 85.9235 223.284 83.4733L223.378 83.6434C219.327 85.875 213.042 88.3901 205.299 88.3901Z" fill="white"/>
<path opacity="0.5" d="M196.944 96.9895C195.878 95.6937 193.548 93.3952 189.922 92.5628C183.568 91.1039 178.598 95.391 178.053 95.8847L177.876 96.0442L177.891 95.8067C178.026 93.5311 178.455 91.2825 179.166 89.1164C180.365 85.4678 182.325 82.1569 184.989 79.2754L185.132 79.4072C182.486 82.2681 180.541 85.5552 179.35 89.1771C178.669 91.2531 178.249 93.4058 178.099 95.5856C179.176 94.6689 183.959 90.9944 189.966 92.3735C193.648 93.2189 196.012 95.5513 197.094 96.8663L196.944 96.9895Z" fill="white"/>
<path d="M173.946 103.623C177.149 100.863 180.672 98.4971 184.438 96.5744C195.409 90.9865 200.968 93.0836 206.962 87.8966C214.332 81.5199 212.899 72.3195 215.318 72.3782C218.875 72.4647 226.023 92.451 217.309 100.805C211.728 106.155 201.636 104.821 199.576 104.494C194.699 103.719 193.376 101.994 188.434 101.35C182.423 100.566 177.274 102.19 173.946 103.623Z" fill="url(#paint2_linear_314_129)"/>
<path opacity="0.5" d="M171.245 105.343L171.126 105.189C177.633 100.157 184.132 97.6554 190.446 97.7597C193.85 97.8149 196.495 98.5956 198.829 99.2842C201.9 100.191 204.553 100.973 207.76 99.6534C211.856 97.9679 214.985 93.6096 216.57 87.3812C219.11 77.4019 213.487 69.0714 211.704 66.7557L211.858 66.6372C213.655 68.9703 219.32 77.3648 216.758 87.429C215.158 93.7184 211.989 98.1236 207.835 99.8328C204.564 101.179 201.881 100.387 198.774 99.4704C196.452 98.7852 193.821 98.0087 190.443 97.9539C184.177 97.8492 177.716 100.338 171.245 105.343Z" fill="white"/>
<path opacity="0.5" d="M214.447 93.1734L214.484 92.9817C215.025 90.1395 215.025 87.2206 214.484 84.3784C213.875 81.2095 212.613 78.2017 210.78 75.5461L210.94 75.4355C212.789 78.1135 214.06 81.1466 214.674 84.3422C215.208 87.1434 215.22 90.0191 214.71 92.8247C216.246 92.0351 218.321 90.6009 219.835 88.1578C223.063 82.9488 221.192 77.2159 220.784 76.1198L220.966 76.0521C221.379 77.1633 223.276 82.9742 220 88.2602C218.403 90.8359 216.194 92.3065 214.622 93.0867L214.447 93.1734Z" fill="white"/>
<path opacity="0.5" d="M210.344 104.056C208.17 104.061 206.008 103.724 203.939 103.057C201.226 102.178 198.726 100.753 196.508 98.8201L196.286 98.6265L196.579 98.6502C200.84 98.991 204.831 97.0932 206.993 93.6949C209.302 90.065 208.539 86.1648 208.25 85.056L208.438 85.0071C208.732 86.135 209.508 90.1029 207.157 93.7992C205.006 97.1805 201.08 99.1054 196.856 98.8637C198.999 100.683 201.4 102.031 203.999 102.873C211.396 105.268 218.079 102.713 220.609 101.503L220.693 101.679C218.904 102.534 215.057 104.056 210.344 104.056Z" fill="white"/>
<path opacity="0.5" d="M199.539 108.812C198.498 106.584 196.021 102.503 191.127 100.199C189.051 99.2255 186.798 98.684 184.506 98.6072L184.501 98.4134C188.408 98.0322 191.252 96.9268 192.955 95.1277C193.108 94.9658 193.306 94.7416 193.606 94.4023C194.009 93.9459 194.618 93.2561 195.554 92.227C196.488 91.1995 197.433 90.1791 198.363 89.1938L198.504 89.327C197.575 90.3116 196.631 91.3311 195.697 92.3574C194.763 93.3857 194.154 94.0748 193.751 94.5307C193.45 94.8714 193.251 95.0965 193.096 95.261C191.518 96.9286 188.989 98.0104 185.57 98.4832C187.525 98.6671 189.433 99.1881 191.21 100.023C196.159 102.353 198.663 106.478 199.715 108.729L199.539 108.812Z" fill="white"/>
<path d="M107.602 106.148L158.94 109.276L215.94 105.992L159.722 123.815L107.602 106.148Z" fill="url(#paint3_linear_314_129)"/>
<path d="M149.16 159.973L107.386 143.682C103.279 142.577 100.089 138.508 100.089 134.562V134.519C100.089 130.573 103.279 127.926 107.386 128.65L152.118 141.124L149.16 159.973Z" fill="url(#paint4_linear_314_129)"/>
<path d="M216.01 146.415L151.125 159.089C146.998 159.55 143.606 156.673 143.606 152.655V149.93C143.606 145.913 146.998 142.387 151.125 142.058L216.01 131.497C213.095 136.924 212.422 142.002 216.01 146.415Z" fill="url(#paint5_linear_314_129)"/>
<path d="M216.583 147.145L151.677 159.935C146.295 160.545 141.834 156.776 141.834 151.52V151.462C141.834 146.207 146.295 141.583 151.677 141.163L216.583 130.706C216.98 130.675 217.301 131.005 217.301 131.444C217.301 131.882 216.98 132.263 216.583 132.296L151.677 142.978C147.347 143.331 143.772 147.056 143.772 151.277V151.335C143.772 155.556 147.347 158.597 151.677 158.12L216.583 145.556C216.98 145.512 217.301 145.832 217.301 146.271C217.301 146.709 216.98 147.1 216.583 147.145Z" fill="url(#paint6_linear_314_129)"/>
<path d="M150.873 141.168L107.386 128.65C103.279 127.926 100.089 122.543 100.089 116.619V116.554C100.089 110.629 103.279 105.928 107.386 106.08L153.457 113.072L150.873 141.168Z" fill="url(#paint7_linear_314_129)"/>
<path d="M216.01 129.556L154.817 139.564C148.684 140.027 143.606 135.52 143.606 129.488V125.396C143.606 119.365 148.684 114.337 154.817 114.169L216.01 107.157C213.085 115.289 212.431 122.905 216.01 129.556Z" fill="url(#paint8_linear_314_129)"/>
<path d="M216.583 130.706L151.677 141.164C146.295 141.583 141.834 135.511 141.834 127.62V127.533C141.834 119.642 146.295 113.111 151.677 112.978L216.583 106.023C216.98 106.013 217.301 106.538 217.301 107.196C217.301 107.854 216.98 108.397 216.583 108.409L151.677 115.703C147.347 115.832 143.772 121.096 143.772 127.434V127.52C143.772 133.858 147.347 138.754 151.677 138.439L216.583 128.32C216.98 128.291 217.301 128.801 217.301 129.459C217.301 130.117 216.98 130.675 216.583 130.706Z" fill="url(#paint9_linear_314_129)"/>
<g style="mix-blend-mode:soft-light" opacity="0.5">
<path d="M137.698 135.231L127.616 132.502C125.496 126.714 125.655 121.396 127.616 115.041L137.698 116.828C135.836 123.516 136.118 129.574 137.698 135.231Z" fill="white"/>
</g>
<path d="M217.803 102.696L106.919 101.627V104.791C106.919 105.65 107.402 106.381 108.057 106.511L139.412 112.742C139.782 112.816 140.161 112.835 140.537 112.8L216.598 105.696C217.277 105.633 217.803 104.9 217.803 104.017V102.696Z" fill="url(#paint10_linear_314_129)"/>
<path d="M182.108 97.5668L108.139 103.356C106.816 103.459 105.739 102.358 105.739 100.897V42.3373C105.739 40.8756 106.816 39.6907 108.139 39.6907H182.108C183.198 39.6907 184.08 40.7618 184.08 42.0831V95.0199C184.08 96.3412 183.199 97.4814 182.108 97.5668Z" fill="url(#paint11_linear_314_129)"/>
<path d="M183.287 97.5668L109.319 103.356C107.995 103.459 106.919 102.358 106.919 100.897V42.3373C106.919 40.8756 107.995 39.6907 109.319 39.6907H183.287C184.378 39.6907 185.26 40.7618 185.26 42.0831V95.0199C185.26 96.3412 184.378 97.4814 183.287 97.5668Z" fill="url(#paint12_linear_314_129)"/>
<path d="M180.983 93.8345L112.089 98.8629C111.012 98.9415 110.137 98.0381 110.137 96.8448V45.5759C110.137 44.3826 111.012 43.4113 112.089 43.4063L180.983 43.0906C181.883 43.0865 182.61 43.9642 182.61 45.051V91.7479C182.61 92.8347 181.883 93.7689 180.983 93.8345Z" fill="url(#paint13_linear_314_129)"/>
<path d="M148.915 41.2923C148.915 41.8365 148.535 42.2788 148.065 42.2804C147.594 42.2819 147.212 41.8412 147.212 41.2959C147.212 40.7506 147.594 40.3081 148.065 40.3077C148.535 40.3074 148.915 40.7482 148.915 41.2923Z" fill="white"/>
<g style="mix-blend-mode:soft-light" opacity="0.48">
<path d="M165.466 81.5058C159.763 78.1081 155.28 82.4134 150.953 78.1657C148.329 75.5903 149.617 73.6699 146.389 69.8214C142.814 65.5588 140.486 66.9918 136.893 63.1553C132.35 58.3045 134.622 54.5304 130.709 51.0477C125.961 46.8228 120.841 50.7332 116.322 46.6813C114.373 44.9336 113.303 42.3931 112.745 39.6908H108.323C107.548 39.6908 106.919 40.3863 106.919 41.2443V101.946C106.919 102.804 107.548 103.45 108.323 103.389L183.709 97.4633C184.079 97.4341 184.407 97.195 184.618 96.8482C179.099 96.6255 175.709 94.5768 173.542 92.4589C169.302 88.3157 170.038 84.2299 165.466 81.5058Z" fill="white"/>
</g>
<path d="M181.442 97.3042L106.919 103.398L139.412 109.855C139.783 109.929 140.162 109.949 140.537 109.913L217.803 102.696L182.627 97.3455C182.235 97.2858 181.837 97.2719 181.442 97.3042Z" fill="url(#paint14_linear_314_129)"/>
<path style="mix-blend-mode:multiply" opacity="0.3" d="M117.793 103.551L179.835 98.4022L199.037 101.299L137.529 106.803L117.793 103.551Z" fill="url(#paint15_linear_314_129)"/>
<path d="M177.141 62.8629L163.426 55.7794L149.039 48.3485L118.36 64.1943L118.458 64.2404V64.8029L149.069 79.233L177.113 63.4231V62.8861L177.099 62.8864L177.141 62.8629Z" fill="white"/>
<path d="M166.853 71.0134L149.039 81.0864L129.454 71.9292V85.1781C129.454 86.2258 129.845 87.2359 130.551 88.0101C131.257 88.7843 132.227 89.2666 133.27 89.3623C136.774 89.6821 142.358 89.9979 148.6 89.6131C154.677 89.2387 159.999 88.2812 163.305 87.5698C164.31 87.3532 165.21 86.7987 165.856 85.9986C166.502 85.1986 166.854 84.2014 166.853 83.1733V71.0134Z" fill="white"/>
<path d="M177.124 83.5151C176.926 83.526 176.943 83.3502 176.943 83.1347V64.1031C176.943 63.6726 176.543 63.3996 176.148 63.4089L149.247 64.0401C149.195 64.04 149.143 64.0294 149.095 64.009C149.047 63.9886 149.004 63.9588 148.967 63.9213C148.931 63.8838 148.903 63.8395 148.884 63.7909C148.865 63.7423 148.856 63.6903 148.857 63.6382C148.856 63.5315 148.895 63.4282 148.968 63.3499C149.04 63.2717 149.14 63.2246 149.247 63.2185L176.148 62.6205C176.938 62.6029 177.304 63.2339 177.304 64.0944V83.1153C177.304 83.3306 177.321 83.5043 177.124 83.5151Z" fill="white"/>
<path d="M177.695 63.0981C177.512 62.7446 177.768 62.5843 177.304 62.5946L149.247 63.2185C149.14 63.2246 149.04 63.2717 148.968 63.3499C148.895 63.4282 148.856 63.5315 148.857 63.6382C148.856 63.6903 148.865 63.7422 148.884 63.7909C148.903 63.8395 148.931 63.8838 148.967 63.9213C149.004 63.9587 149.047 63.9885 149.095 64.009C149.143 64.0294 149.195 64.04 149.247 64.0401L176.148 63.4089C176.367 63.4031 176.58 63.4836 176.741 63.6331L177.113 63.4232L177.695 63.0981Z" fill="url(#paint16_linear_314_129)"/>
<path d="M177.98 79.5157L177.629 78.9425C177.571 78.8371 177.485 78.7503 177.379 78.6921C177.274 78.634 177.155 78.6069 177.035 78.614C176.912 78.625 176.795 78.6682 176.694 78.7392C176.594 78.8101 176.514 78.9064 176.462 79.0182L176.152 79.6489C176.076 79.8009 176.034 79.9676 176.029 80.1375V85.3222C176.029 85.4336 176.57 85.4924 177.113 85.461C177.656 85.4296 178.193 85.3085 178.193 85.1976V80.0157C178.193 79.8368 178.061 79.6675 177.98 79.5157Z" fill="white"/>
<path d="M205.551 128.959C203.899 130.408 201.408 130.29 199.872 128.718C197.958 126.759 194.366 125.429 187.931 129.502C176.435 136.777 189.141 157.356 196.401 157.957C203.661 158.558 206.081 156.751 209.711 157.957C213.341 159.163 218.484 151.091 220.602 143.783C222.72 136.475 217.274 127.8 211.829 126.843C209.149 126.373 207.129 127.575 205.551 128.959Z" fill="url(#paint17_linear_314_129)"/>
<path style="mix-blend-mode:multiply" opacity="0.3" d="M215.04 151L212.275 152.709C209.511 154.419 208.351 147.774 203.268 143.599C198.185 139.425 188.197 142.43 188.732 135.254C188.999 131.676 190.795 129.04 192.529 127.296C191.187 127.702 189.662 128.407 187.931 129.502C176.435 136.777 189.141 157.356 196.401 157.957C203.661 158.558 206.081 156.751 209.711 157.957C212.828 158.993 217.06 153.189 219.534 146.901L215.04 151Z" fill="url(#paint18_linear_314_129)"/>
<path d="M203.683 130.187C203.683 130.187 208.879 121.723 200.107 119.303C191.335 116.883 187.605 113.637 187.605 113.637C187.605 113.637 189.823 120.691 191.436 125.997C193.05 131.302 200.806 132.501 203.683 130.187Z" fill="url(#paint19_linear_314_129)"/>
<path d="M206.077 120.322C204.564 120.496 205.169 118.13 203.719 119.709C202.457 121.083 202.234 128.652 202.198 130.591C202.196 130.712 202.241 130.83 202.324 130.918C202.407 131.007 202.521 131.059 202.642 131.065C202.705 131.068 202.768 131.058 202.827 131.036C202.886 131.014 202.94 130.98 202.986 130.936C203.031 130.892 203.067 130.84 203.092 130.782C203.117 130.724 203.129 130.661 203.129 130.598C203.11 126.428 207.608 121.722 208.093 120.766C208.597 119.772 207.589 120.147 206.077 120.322Z" fill="url(#paint20_linear_314_129)"/>
<path style="mix-blend-mode:multiply" opacity="0.3" d="M199.926 125.265C199.24 121.463 196.297 122.164 190.348 117.021C189.491 116.286 188.682 115.497 187.925 114.659C188.598 116.804 190.196 121.917 191.436 125.997C192.875 130.727 199.197 132.193 202.59 130.815C201.469 129.822 200.443 128.128 199.926 125.265Z" fill="url(#paint21_linear_314_129)"/>
<path d="M337.167 152C337.167 152 269.751 180 168.667 180C67.5649 180 0.166687 152 0.166687 152L0.166687 180L337.167 180V152Z" fill="white"/>
<defs>
<linearGradient id="paint0_linear_314_129" x1="201.692" y1="39.0187" x2="176.337" y2="79.8485" gradientUnits="userSpaceOnUse">
<stop stop-color="#FCB148"/>
<stop offset="0.052" stop-color="#FDBA46"/>
<stop offset="0.142" stop-color="#FFC244"/>
<stop offset="0.318" stop-color="#FFC444"/>
<stop offset="0.485" stop-color="#FDB946"/>
<stop offset="0.775" stop-color="#F99C4D"/>
<stop offset="0.866" stop-color="#F8924F"/>
<stop offset="1" stop-color="#F8924F"/>
</linearGradient>
<linearGradient id="paint1_linear_314_129" x1="209.256" y1="46.751" x2="188.974" y2="107.265" gradientUnits="userSpaceOnUse">
<stop stop-color="#AA80F9"/>
<stop offset="0.996" stop-color="#6165D7"/>
</linearGradient>
<linearGradient id="paint2_linear_314_129" x1="222.655" y1="80.0255" x2="163.054" y2="128.984" gradientUnits="userSpaceOnUse">
<stop offset="0.004" stop-color="#E38DDD"/>
<stop offset="1" stop-color="#9571F6"/>
</linearGradient>
<linearGradient id="paint3_linear_314_129" x1="25893.5" y1="34897.6" x2="267305" y2="34897.6" gradientUnits="userSpaceOnUse">
<stop stop-color="#AA80F9"/>
<stop offset="0.996" stop-color="#6165D7"/>
</linearGradient>
<linearGradient id="paint4_linear_314_129" x1="121.328" y1="154.042" x2="128.576" y2="137.555" gradientUnits="userSpaceOnUse">
<stop stop-color="#FFC444"/>
<stop offset="0.996" stop-color="#F36F56"/>
</linearGradient>
<linearGradient id="paint5_linear_314_129" x1="143.606" y1="145.317" x2="216.01" y2="145.317" gradientUnits="userSpaceOnUse">
<stop offset="0.494" stop-color="#EAEDF3"/>
<stop offset="1" stop-color="white"/>
</linearGradient>
<linearGradient id="paint6_linear_314_129" x1="71239.6" y1="72560.4" x2="188380" y2="72560.4" gradientUnits="userSpaceOnUse">
<stop stop-color="#FFC444"/>
<stop offset="0.996" stop-color="#F36F56"/>
</linearGradient>
<linearGradient id="paint7_linear_314_129" x1="39761.4" y1="57902.1" x2="33186.1" y2="91585.7" gradientUnits="userSpaceOnUse">
<stop stop-color="#AA80F9"/>
<stop offset="0.996" stop-color="#6165D7"/>
</linearGradient>
<linearGradient id="paint8_linear_314_129" x1="70994" y1="65647.9" x2="178820" y2="65647.9" gradientUnits="userSpaceOnUse">
<stop offset="0.494" stop-color="#EAEDF3"/>
<stop offset="1" stop-color="white"/>
</linearGradient>
<linearGradient id="paint9_linear_314_129" x1="71239.6" y1="71309.1" x2="188380" y2="71309.1" gradientUnits="userSpaceOnUse">
<stop stop-color="#AA80F9"/>
<stop offset="0.996" stop-color="#6165D7"/>
</linearGradient>
<linearGradient id="paint10_linear_314_129" x1="153.729" y1="107.059" x2="145.931" y2="110.334" gradientUnits="userSpaceOnUse">
<stop stop-color="#40447E"/>
<stop offset="0.996" stop-color="#3C3B6B"/>
</linearGradient>
<linearGradient id="paint11_linear_314_129" x1="76177.4" y1="57956.2" x2="63220" y2="64652.1" gradientUnits="userSpaceOnUse">
<stop stop-color="#40447E"/>
<stop offset="0.996" stop-color="#3C3B6B"/>
</linearGradient>
<linearGradient id="paint12_linear_314_129" x1="17651.9" y1="60775.9" x2="143885" y2="60775.9" gradientUnits="userSpaceOnUse">
<stop stop-color="#40447E"/>
<stop offset="0.996" stop-color="#3C3B6B"/>
</linearGradient>
<linearGradient id="paint13_linear_314_129" x1="162.117" y1="55.8675" x2="118.101" y2="91.6464" gradientUnits="userSpaceOnUse">
<stop stop-color="#FF9085"/>
<stop offset="1" stop-color="#FB6FBB"/>
</linearGradient>
<linearGradient id="paint14_linear_314_129" x1="24940.3" y1="20500.4" x2="277833" y2="20500.4" gradientUnits="userSpaceOnUse">
<stop stop-color="#40447E"/>
<stop offset="0.996" stop-color="#3C3B6B"/>
</linearGradient>
<linearGradient id="paint15_linear_314_129" x1="36484.1" y1="14371.3" x2="172247" y2="14371.3" gradientUnits="userSpaceOnUse">
<stop stop-color="#40447E"/>
<stop offset="0.996" stop-color="#3C3B6B"/>
</linearGradient>
<linearGradient id="paint16_linear_314_129" x1="42544.9" y1="1093.95" x2="42384.5" y2="3693.62" gradientUnits="userSpaceOnUse">
<stop stop-color="#FF9085"/>
<stop offset="1" stop-color="#FB6FBB"/>
</linearGradient>
<linearGradient id="paint17_linear_314_129" x1="87165.7" y1="69501.6" x2="74987.8" y2="89426.3" gradientUnits="userSpaceOnUse">
<stop stop-color="#FF9085"/>
<stop offset="1" stop-color="#FB6FBB"/>
</linearGradient>
<linearGradient id="paint18_linear_314_129" x1="83628" y1="68270.9" x2="71539.4" y2="87588" gradientUnits="userSpaceOnUse">
<stop stop-color="#FF9085"/>
<stop offset="1" stop-color="#FB6FBB"/>
</linearGradient>
<linearGradient id="paint19_linear_314_129" x1="194.81" y1="111.398" x2="200.255" y2="137.31" gradientUnits="userSpaceOnUse">
<stop stop-color="#A1F094"/>
<stop offset="1" stop-color="#4FC3BA"/>
</linearGradient>
<linearGradient id="paint20_linear_314_129" x1="208.888" y1="117.805" x2="198.448" y2="131.985" gradientUnits="userSpaceOnUse">
<stop stop-color="#311944"/>
<stop offset="1" stop-color="#6B3976"/>
</linearGradient>
<linearGradient id="paint21_linear_314_129" x1="192.957" y1="111.787" x2="198.402" y2="137.699" gradientUnits="userSpaceOnUse">
<stop stop-color="#38E8C7"/>
<stop offset="1" stop-color="#425F63"/>
</linearGradient>
</defs>
</svg>
