<svg width="338" height="180" viewBox="0 0 338 180" fill="none" xmlns="http://www.w3.org/2000/svg">
<rect width="338" height="180" fill="#FFEAE7"/>
<path d="M174.746 21.6614C139.573 20.5932 109.105 46.8393 104.502 81.2774C99.4691 118.931 127.169 152.81 161.253 158.236C203.648 164.985 244.769 125.94 241.077 83.5811C238.295 51.6675 210.501 22.7471 174.746 21.6614Z" fill="#FFDCD9"/>
<path d="M180.375 97.8166C188.346 99.451 198.706 100.238 209.214 97.1413C211.896 96.3509 228.462 91.4683 227.859 83.1452C227.646 80.2133 225.483 79.3306 225.139 75.4164C224.731 70.7784 227.507 69.049 230.037 63.8676C231.547 60.7759 235.966 51.7278 231.708 45.3968C229.164 41.6136 223.637 38.9719 219.079 39.2727C212.393 39.714 209.1 46.3997 203.701 57.8218C198.916 67.947 199.324 70.7445 195.766 77.9671C193.125 83.3274 188.592 90.5308 180.375 97.8166Z" fill="url(#paint0_linear_314_59)"/>
<g style="mix-blend-mode:soft-light" opacity="0.5">
<g style="mix-blend-mode:soft-light" opacity="0.5">
<path d="M167.964 99.6065C160.561 99.6065 153.104 97.6613 145.753 93.8064L145.911 93.5045C154.243 97.8733 162.707 99.7728 171.069 99.1503C200.997 96.922 217.078 61.8304 221.293 51.1281C223.688 45.0489 224.484 37.9526 223.658 30.0365L223.997 30.0012C224.828 37.9722 224.026 45.1224 221.611 51.2531C218.144 60.0552 211.959 72.732 202.188 83.1381C192.784 93.1526 182.323 98.6542 171.094 99.4902C170.052 99.5678 169.009 99.6066 167.964 99.6065Z" fill="white"/>
</g>
<g style="mix-blend-mode:soft-light" opacity="0.5">
<path d="M213.099 68.3227L213.025 68.1703C213.007 68.1345 211.252 64.5197 210.181 59.3173C209.192 54.5122 208.599 47.3269 211.39 40.3848L211.707 40.512C208.947 47.3754 209.536 54.4893 210.515 59.2485C211.454 63.8073 212.917 67.1292 213.258 67.8666C232.08 58.6666 234.091 44.297 234.258 40.1028C234.263 39.9761 234.265 39.9308 234.27 39.9001L234.606 39.9543L234.438 39.9272L234.606 39.9532C234.603 39.9758 234.602 40.031 234.598 40.1164C234.429 44.37 232.389 58.9694 213.252 68.2487L213.099 68.3227Z" fill="white"/>
</g>
<g style="mix-blend-mode:soft-light" opacity="0.5">
<path d="M214.681 85.468C211.169 85.468 206.996 84.8133 202.166 83.0071L202.082 82.9756L202.06 82.8879C202.031 82.7682 199.169 70.7325 202.472 55.7839L205.805 40.7013L206.138 40.7749L202.805 55.8577C199.668 70.0562 202.119 81.6059 202.371 82.72C212.416 86.4539 219.566 85.159 223.8 83.4115C228.4 81.5132 230.647 78.686 230.669 78.6576L230.938 78.8674C230.915 78.8964 228.625 81.7839 223.95 83.7186C221.682 84.6568 218.59 85.468 214.681 85.468Z" fill="white"/>
</g>
</g>
<path d="M155.888 102.112C160.484 99.095 166.746 93.9849 170.589 85.8854C175.629 75.2631 172.081 68.8319 175.889 50.0234C178.296 38.1311 180.096 29.8558 186.898 26.4484C192.228 23.7781 199.992 24.4168 204.065 28.4644C207.452 31.8298 208.684 37.9461 208.651 42.1529C208.625 45.5814 207.757 47.9225 209.372 50.0129C211.021 52.1489 213.317 51.5031 214.921 53.1517C218.173 56.4952 214.461 65.0433 213.861 66.4249C207.187 81.7929 190.516 90.0345 183.201 93.5419C177.153 96.4422 167.94 100.105 155.888 102.112Z" fill="url(#paint1_linear_314_59)"/>
<g style="mix-blend-mode:soft-light" opacity="0.5">
<g style="mix-blend-mode:soft-light" opacity="0.5">
<path d="M150.859 104.293L150.794 103.958C163.655 101.479 180.216 95.7181 186.07 82.3517C188.223 77.4369 188.705 72.0395 189.373 64.5694C189.906 58.6043 189.745 54.3294 189.604 50.5578C189.419 45.6284 189.273 41.7347 190.781 36.3855C192.312 30.957 195.092 25.7805 199.046 21L199.309 21.2172C195.385 25.9611 192.627 31.0955 191.109 36.478C189.616 41.7756 189.761 45.6455 189.945 50.545C190.086 54.3268 190.247 58.613 189.712 64.5983C189.067 71.8197 188.557 77.5226 186.382 82.4886C183.601 88.8391 178.121 94.0874 170.095 98.0876C164.674 100.79 158.202 102.877 150.859 104.293Z" fill="white"/>
</g>
<g style="mix-blend-mode:soft-light" opacity="0.5">
<path d="M189.901 60.3905L189.74 60.2844C189.704 60.2606 186.094 57.8443 182.886 53.1383C179.925 48.7949 176.706 41.5537 178.182 31.7224L178.519 31.773C177.059 41.4951 180.241 48.6533 183.167 52.9463C185.957 57.0392 189.045 59.3725 189.77 59.8897C194.837 49.8141 201.71 44.1407 206.596 41.1518C211.926 37.8914 216.118 37.0299 216.16 37.0217L216.227 37.3559C216.186 37.3641 212.041 38.2178 206.76 41.451C201.888 44.4341 195.023 50.1114 189.987 60.2184L189.901 60.3905Z" fill="white"/>
</g>
<g style="mix-blend-mode:soft-light" opacity="0.5">
<path d="M188.003 76.4621L187.952 76.3493C187.924 76.2863 185.039 69.9781 180.909 64.2203C176.803 58.494 165.491 54.7789 165.377 54.7419L165.482 54.4177C165.597 54.4549 177.014 58.2039 181.186 64.0214C185.03 69.3811 187.8 75.214 188.21 76.0948C193.494 75.4321 200.502 70.3942 208.488 61.5143C214.583 54.7384 219.142 48.0582 219.187 47.9916L219.469 48.1832C219.423 48.2501 214.851 54.9494 208.742 61.7424C200.522 70.8822 193.586 75.8299 188.126 76.4482L188.003 76.4621Z" fill="white"/>
</g>
<g style="mix-blend-mode:soft-light" opacity="0.5">
<path d="M174.286 97.0257C173.207 97.0257 172.599 96.9947 172.58 96.9937L172.241 96.9753L172.459 96.7144C176.513 91.8514 177.051 86.0956 174.057 79.6069C171.816 74.749 168.324 71.2845 168.289 71.2501L168.528 71.007C168.563 71.0417 172.094 74.5434 174.363 79.4556C176.436 83.9431 177.847 90.5438 172.938 96.6663C174.308 96.7083 179.683 96.778 186.643 95.6343C194.07 94.4139 204.872 91.5219 214.156 84.6779L232.185 71.3855L232.388 71.6598L214.358 84.9522C205.017 91.8387 194.156 94.7459 186.69 95.9721C181.158 96.8804 176.621 97.0257 174.286 97.0257Z" fill="white"/>
</g>
</g>
<path d="M180 115.733C174.587 114.774 166.818 112.547 160.092 106.62C151.271 98.8466 151.995 91.5375 141.077 75.7557C134.174 65.7771 129.256 58.8828 121.662 58.4341C115.711 58.0827 108.829 61.7315 106.682 67.0574C104.897 71.4859 106.177 77.5922 107.866 81.4452C109.243 84.5853 110.964 86.3947 110.305 88.9521C109.631 91.5657 107.266 91.8778 106.443 94.0252C104.774 98.3801 111.556 104.771 112.652 105.804C124.846 117.294 143.416 118.293 151.522 118.63C158.224 118.91 168.135 118.642 180 115.733Z" fill="url(#paint2_linear_314_59)"/>
<g style="mix-blend-mode:soft-light" opacity="0.5">
<g style="mix-blend-mode:soft-light" opacity="0.5">
<path d="M168.625 117.73C167.514 117.73 166.425 117.699 165.358 117.638C156.405 117.128 149.3 114.466 144.239 109.728C140.281 106.022 137.563 100.982 134.123 94.6012C131.271 89.3121 129.728 85.3099 128.366 81.7788C126.603 77.2041 125.21 73.5907 121.748 69.3115C118.231 64.9638 113.671 61.3337 108.194 58.5218L108.35 58.2185C113.869 61.0522 118.466 64.7123 122.013 69.0971C125.509 73.418 126.91 77.0536 128.685 81.6563C130.042 85.1779 131.581 89.1694 134.423 94.4395C137.983 101.041 140.555 105.811 144.472 109.479C155.124 119.452 172.613 118.215 185.41 115.421L185.483 115.754C179.465 117.068 173.811 117.73 168.625 117.73Z" fill="white"/>
</g>
<g style="mix-blend-mode:soft-light" opacity="0.5">
<path d="M132.29 90.8088L132.143 90.6843C123.523 83.3781 114.969 80.8697 109.311 80.052C103.186 79.1667 99.0539 80.0161 99.0129 80.0248L98.9424 79.6913C98.984 79.6826 103.176 78.8208 109.36 79.7146C115.029 80.5339 123.582 83.0367 132.212 90.297C132.675 89.5341 134.596 86.1634 135.544 81.2983C136.537 76.2024 136.635 68.3748 131.462 60.0222L131.752 59.8428C136.986 68.2948 136.883 76.2187 135.876 81.3777C134.784 86.9675 132.419 90.6117 132.395 90.6479L132.29 90.8088Z" fill="white"/>
</g>
<g style="mix-blend-mode:soft-light" opacity="0.5">
<path d="M136.065 105.42C130.946 105.42 124.06 103.434 115.509 99.4823C107.216 95.6496 100.372 91.2965 100.304 91.2528L100.488 90.9655C100.556 91.009 107.383 95.3514 115.656 99.1743C126.495 104.183 134.921 106.048 140.038 104.573C140.067 103.602 140.311 97.1495 141.73 90.7084C143.27 83.7169 152.282 75.7687 152.373 75.6892L152.598 75.9456C152.508 76.0244 143.578 83.8997 142.063 90.7814C140.539 97.7025 140.376 104.636 140.375 104.705L140.372 104.829L140.254 104.865C139.024 105.235 137.628 105.421 136.065 105.42Z" fill="white"/>
</g>
<g style="mix-blend-mode:soft-light" opacity="0.5">
<path d="M132.078 124.418C128.041 124.418 123.785 124.028 119.503 123.026L97.6921 117.922L97.7698 117.59L119.581 122.694C130.811 125.322 141.878 123.718 149.184 121.911C156.03 120.217 160.943 118.033 162.185 117.454C155.259 113.763 153.953 107.141 154.087 102.2C154.235 96.7915 156.099 92.1809 156.117 92.1349L156.433 92.2641C156.414 92.3095 154.571 96.8703 154.428 102.219C154.236 109.362 157 114.439 162.644 117.309L162.947 117.463L162.643 117.613C162.59 117.64 157.23 120.27 149.274 122.239C144.713 123.369 138.692 124.418 132.078 124.418Z" fill="white"/>
</g>
</g>
<path d="M168.721 118.179C164.915 124.364 159.1 131.585 150.667 136.53C148.515 137.792 135.22 145.588 130.173 140.112C128.395 138.183 129.142 136.236 126.806 133.622C124.038 130.524 121.217 131.274 116.3 129.755C113.367 128.849 104.781 126.197 103.262 119.561C102.355 115.595 104.012 110.386 106.991 107.604C111.362 103.523 117.723 105.464 128.452 108.928C137.963 111.999 139.533 113.973 146.406 116.07C151.506 117.625 158.961 119.076 168.721 118.179Z" fill="url(#paint3_linear_314_59)"/>
<g style="mix-blend-mode:soft-light" opacity="0.5">
<g style="mix-blend-mode:soft-light" opacity="0.5">
<path d="M145.839 123.425C133.1 123.425 121.077 119.706 113.233 116.585C107.767 114.411 102.622 110.564 97.9415 105.153L98.1993 104.93C102.844 110.299 107.944 114.114 113.359 116.268C122.894 120.061 155.538 131.03 175.259 112.926C180.769 107.868 184.701 101.204 186.947 93.1182L187.275 93.2093C185.012 101.358 181.047 108.076 175.49 113.177C168.084 119.975 158.111 123.423 145.847 123.424L145.839 123.425Z" fill="white"/>
</g>
<g style="mix-blend-mode:soft-light" opacity="0.5">
<path d="M115.566 124.279C106.018 124.279 100.076 119.986 98.0498 118.23C97.9931 118.181 97.9565 118.149 97.9397 118.137L98.1317 117.855C98.1504 117.868 98.1979 117.908 98.273 117.973C101.101 120.423 111.664 127.883 129.126 121.271C128.508 119.759 123.356 107.892 112.294 103.581L112.418 103.264C118.643 105.689 122.959 110.467 125.482 114.047C128.214 117.923 129.495 121.275 129.508 121.308L129.568 121.467L129.409 121.528C124.181 123.528 119.558 124.279 115.566 124.279Z" fill="white"/>
</g>
<g style="mix-blend-mode:soft-light" opacity="0.5">
<path d="M126.075 139.54C125.737 139.54 125.539 139.524 125.507 139.521L125.538 139.181C125.57 139.184 128.779 139.448 132.819 137.617C136.537 135.931 141.74 132.074 145.442 123.272C144.84 122.383 138.828 113.769 127.712 107.161L115.863 100.117L116.038 99.8239L127.886 106.868C139.633 113.851 145.718 123.068 145.778 123.16L145.827 123.236L145.792 123.319C142.04 132.294 136.733 136.221 132.941 137.936C129.787 139.362 127.182 139.54 126.075 139.54Z" fill="white"/>
</g>
</g>
<path d="M126.958 147.71C123.107 147.828 120.091 144.953 120.091 141.164V62.7672C120.091 58.8944 123.296 55.7602 127.235 55.7805L224.774 56.2839C224.809 56.2839 224.835 56.2843 224.871 56.2852C228.079 56.3636 230.67 59.2365 230.67 62.6898V132.02C230.67 135.454 228.096 138.484 224.911 138.775L127.394 147.683C127.246 147.697 127.106 147.706 126.958 147.71Z" fill="#A5ACB7"/>
<path d="M128.374 147.667C124.53 147.785 121.519 144.912 121.519 141.126V62.7946C121.519 58.9251 124.719 55.7933 128.651 55.8136L226.032 56.3146C226.068 56.3146 226.094 56.3151 226.129 56.3159C229.333 56.3943 231.92 59.2649 231.92 62.7154V131.991C231.92 135.423 229.35 138.451 226.17 138.741L128.81 147.64C128.662 147.654 128.522 147.662 128.374 147.667Z" fill="#BFC8D6"/>
<path d="M226.062 136.958L128.678 145.749C125.841 146.005 123.529 143.912 123.529 141.073V62.8332C123.53 62.1585 123.663 61.4906 123.923 60.8677C124.182 60.2449 124.562 59.6793 125.04 59.2036C125.518 58.7278 126.086 58.3512 126.71 58.0953C127.335 57.8395 128.003 57.7094 128.678 57.7126L226.062 58.1052C228.324 58.1144 230.149 60.1621 230.149 62.6791V132.031C230.149 134.548 228.324 136.754 226.062 136.958Z" fill="#F4F7FA"/>
<path d="M152.977 126.889L137.264 128.019C137.22 128.023 137.176 128.018 137.134 128.003C137.092 127.989 137.054 127.966 137.022 127.935C136.99 127.905 136.964 127.869 136.947 127.828C136.93 127.787 136.921 127.743 136.922 127.699V123.915C136.923 123.822 136.959 123.733 137.022 123.665C137.085 123.597 137.171 123.555 137.264 123.548L152.977 122.494C153.02 122.491 153.063 122.497 153.103 122.511C153.144 122.526 153.181 122.549 153.212 122.579C153.243 122.608 153.267 122.644 153.284 122.684C153.3 122.724 153.308 122.767 153.307 122.81V126.527C153.306 126.617 153.273 126.705 153.212 126.771C153.15 126.838 153.067 126.88 152.977 126.889Z" fill="#D8DEE8"/>
<path d="M197.525 131.633L137.264 136.522C137.22 136.526 137.176 136.521 137.134 136.507C137.092 136.493 137.054 136.47 137.022 136.44C136.99 136.41 136.964 136.374 136.947 136.333C136.93 136.293 136.921 136.249 136.922 136.205V132.421C136.923 132.328 136.959 132.239 137.022 132.17C137.085 132.102 137.171 132.059 137.264 132.05L197.525 127.452C197.69 127.44 197.823 127.574 197.823 127.752V131.286C197.825 131.371 197.795 131.453 197.74 131.516C197.685 131.58 197.608 131.622 197.525 131.633Z" fill="#D8DEE8"/>
<path d="M136.296 77.4039C135.43 77.9492 134.595 79.1236 134.784 80.3893C134.977 81.6735 136.136 82.4616 137.05 82.7048C138.334 83.0467 138.757 82.2115 140.137 82.2978C142.224 82.4282 143.846 84.5025 144.523 86.0474C145.188 87.5652 144.67 87.9535 145.099 89.711C145.854 92.797 148.191 94.6248 150.415 96.3639C152.265 97.8107 155.083 99.5379 155.589 98.9763C155.771 98.7752 155.607 98.3355 155.509 98.0703C155.118 97.0176 154.226 96.805 153.01 95.8502C152.144 95.1706 151.05 94.3125 151.228 93.592C151.402 92.8823 152.787 92.399 153.817 92.6725C154.849 92.9462 155.403 93.9457 155.67 94.4272C155.898 94.8387 155.86 95.3847 156.071 95.4039C156.217 95.4172 156.38 95.1902 156.453 94.9974C156.641 94.5011 156.312 94.0399 156.192 93.6648C155.916 92.8008 156.57 91.8365 157.221 90.8779C158.309 89.2751 158.946 89.2436 160.626 87.3698C161.748 86.1175 162.31 85.4743 162.371 84.585C162.477 83.06 161.209 81.9569 160.997 81.7719C159.971 80.8791 158.23 80.2928 157.488 80.9711C156.822 81.5799 157.523 82.6933 156.74 83.5738C156.193 84.1897 155.236 84.3364 154.489 84.1253C153.435 83.8271 152.828 82.8225 152.767 81.902C152.755 81.7204 152.699 80.881 153.252 80.2889C153.41 80.1201 153.793 79.7825 155.08 79.6997C156.887 79.5834 157.263 80.1774 158.341 79.9089C159.238 79.6852 160.321 78.9379 160.308 78.2242C160.292 77.3884 158.788 77.3324 157.061 75.4787C156.388 74.7569 155.84 74.1519 155.884 73.3485C155.945 72.2176 157.143 71.3092 157.381 71.1291C158.313 70.4226 159.139 69.8478 159.139 69.8478C159.372 69.6861 159.709 69.4543 159.671 69.2395C159.645 69.098 159.464 69.0032 159.139 68.9147C158.114 68.6353 157.328 68.8197 157.328 68.8197C156.107 69.106 155.717 69.717 154.221 70.5558C153.616 70.8949 152.595 71.4672 151.2 71.8042C149.608 72.1891 149.06 71.8975 148.269 72.504C147.505 73.0894 147.746 73.5667 146.96 74.4668C146.136 75.4101 145.129 75.7371 143.561 76.246C142.429 76.608 141.263 76.8521 140.082 76.9745C137.708 77.2303 137.206 76.8313 136.296 77.4039Z" fill="#D8DEE8"/>
<path d="M162.266 69.6001C160.613 70.0654 159.173 70.4708 158.873 71.4975C158.717 72.0313 158.862 72.7585 159.299 73.1391C160.166 73.8958 161.474 72.6643 162.424 73.3175C162.932 73.6667 162.74 74.1438 163.321 76.7477C163.708 78.4844 164.026 79.3144 164.636 80.0533C164.981 80.4719 165.466 81.059 165.947 80.9522C166.66 80.7942 166.39 79.3308 167.516 78.2535C167.911 77.8757 167.983 78.019 169.858 77.0706C170.951 76.5178 171.499 76.2374 171.62 76.0113C172.236 74.8557 170.6 73.4898 171.258 72.1182C171.382 71.8597 171.399 71.9942 172.24 70.9165C173.206 69.6787 173.194 69.4874 173.169 69.3936C173.062 68.9954 172.343 68.9722 170.481 68.7671C167.383 68.4259 167.131 68.2439 166.209 68.4753C165.597 68.6289 165.434 68.7776 164.111 69.1467C163.076 69.4351 162.961 69.4044 162.266 69.6001Z" fill="#D8DEE8"/>
<path d="M158.075 98.8735C157.157 99.5986 156.975 100.801 156.901 101.288C156.718 102.494 157.06 103.263 157.701 105.211C158.48 107.576 158.868 108.758 158.927 109.434C159.017 110.485 158.828 110.678 158.075 114.865C157.514 117.981 157.454 118.787 157.968 119.323C158.724 120.112 160.349 119.931 160.414 119.715C160.445 119.61 160.095 119.54 159.83 119.204C159.24 118.457 159.665 117.141 159.777 116.794C160.218 115.426 161.061 114.807 162.424 113.405C164.03 111.753 165.076 110.678 165.842 109.122C166.223 108.349 167.034 106.648 166.784 104.5C166.637 103.301 166.187 102.16 165.475 101.184C164.114 99.333 162.276 98.8113 161.737 98.6673C160.689 98.387 159.196 97.988 158.075 98.8735Z" fill="#D8DEE8"/>
<path d="M173.632 90.7228C173.043 91.902 172.392 93.2066 172.137 94.3967C171.908 95.4621 171.69 97.8677 172.859 98.7485C173.916 99.5447 175.135 98.3591 176.608 99.2373C177.359 99.6848 177.689 100.379 178.088 101.216C178.946 103.015 178.537 104.047 178.903 106.388C179.075 107.487 179.622 110.98 180.984 111.156C182.119 111.302 183.353 109.084 183.559 108.714C184.106 107.731 184.316 106.726 184.715 104.759C185.252 102.106 185.052 101.747 185.618 100.984C186.345 100.004 187.225 99.8573 187.417 98.936C187.559 98.2592 187.221 97.6684 187.018 97.3041C186.268 95.9576 185.221 96.1491 184.514 94.846C184.107 94.0965 183.997 93.1919 184.162 93.0982C184.309 93.0144 184.718 93.5553 184.915 93.8176C185.523 94.6229 185.449 94.9253 185.818 95.3291C186.563 96.145 187.822 95.9545 187.916 95.9389C188.492 95.8428 189.53 95.4599 189.657 94.7564C189.754 94.2151 189.282 93.6575 188.713 92.9873C188.253 92.4464 187.91 92.2192 187.966 92.111C188.022 92.0013 188.431 92.127 189.508 92.4814C190.676 92.8656 191.259 93.0574 191.341 93.1043C191.734 93.3282 192.068 93.6379 193.167 95.5206C194.279 97.4263 194.684 98.3891 194.936 98.2978C195.062 98.2524 195.04 97.9856 195.132 97.0774C195.27 95.719 195.346 95.0296 195.671 94.5274C195.945 94.1036 196.531 93.5216 197.137 93.5776C197.501 93.6112 197.937 94.1928 198.793 95.353C199.636 96.4954 199.92 96.8835 200.491 97.1717C200.79 97.323 201.326 97.5939 201.748 97.3288C202.216 97.0347 202.376 96.1851 202.182 95.5857C201.947 94.8603 201.294 94.8147 201.313 94.3644C201.34 93.7223 202.691 93.2503 202.809 93.2105C203.679 92.9147 203.901 93.2047 204.347 92.893C205.008 92.4305 205.28 91.258 205.114 90.3643C204.943 89.444 204.363 89.1221 204.539 88.7156C204.686 88.3736 205.15 88.477 206.071 88.1986C206.753 87.992 207.761 87.6873 208.311 86.8309C208.639 86.3215 208.696 85.7845 208.786 84.9495C208.84 84.3975 208.84 83.8416 208.786 83.2896C208.675 82.0724 208.432 81.9936 208.549 81.6353C208.805 80.8493 210.04 81.0357 212.38 80.2534C213.717 79.8067 214.681 79.2886 214.775 79.4794C214.893 79.7187 213.332 80.4481 213.227 81.7311C213.147 82.7032 213.93 83.663 214.259 83.5619C214.531 83.4784 214.335 82.7194 214.822 81.5901C215.001 81.1744 215.273 80.5439 215.85 80.1252C216.543 79.6233 216.952 79.9514 217.575 79.4199C218.073 78.9949 217.948 78.669 218.365 78.2234C219.31 77.2144 220.901 77.8747 221.003 77.5064C221.097 77.1661 219.871 76.1261 218.272 75.917C216.848 75.7308 216.628 76.3982 215.009 76.4363C214.088 76.4579 212.971 76.0801 210.729 75.3215C209.46 74.8923 208.798 74.5953 207.645 74.5406C206.841 74.5026 206.817 74.6301 205.975 74.5662C205.019 74.4935 203.834 74.4034 202.905 73.5685C202.176 72.9132 202.398 72.5124 201.796 72.1198C200.823 71.4855 199.49 72.04 198.355 72.5299C197.149 73.0509 196.292 73.676 194.838 74.7364C193.144 75.9714 192.576 76.5807 191.638 76.4785C190.936 76.4022 190.792 76.0118 190.004 76.0296C189.366 76.0438 189.166 76.3063 187.866 76.9156C186.608 77.5055 185.966 77.7992 185.417 77.7049C184.566 77.5587 184.533 76.9326 183.609 76.5635C182.622 76.1694 181.68 76.4911 180.528 76.8844C179.103 77.3706 177.699 77.8497 177.017 79.1516C176.293 80.5316 176.964 81.719 176.147 82.3465C175.469 82.8675 174.774 82.2293 174.146 82.7714C173.391 83.4234 173.616 85.0181 173.735 85.8595C173.968 87.5168 174.549 87.9089 174.352 89.0804C174.265 89.5991 174.111 89.7637 173.632 90.7228Z" fill="#D8DEE8"/>
<path d="M187.417 104.093C187.066 104.072 186.477 105.595 186.618 107.006C186.627 107.09 186.743 108.184 187.068 108.206C187.37 108.227 187.685 107.31 187.717 107.215C187.77 107.058 187.928 106.547 187.866 105.719C187.849 105.488 187.747 104.114 187.417 104.093Z" fill="#D8DEE8"/>
<path d="M199.958 100.076C199.933 100.142 200.031 100.249 200.306 100.472C201.031 101.062 201.393 101.356 201.989 101.553C202.505 101.724 203.784 102.017 204.059 101.509C204.235 101.184 203.982 100.558 203.579 100.279C203.148 99.9818 202.825 100.27 201.796 100.255C200.73 100.239 200.021 99.9138 199.958 100.076Z" fill="#D8DEE8"/>
<path d="M203.579 97.2C203.367 97.2453 203.421 97.6947 203.002 98.6863C202.806 99.1492 202.7 99.2746 202.761 99.4281C202.895 99.7666 203.705 99.8968 204.107 99.473C204.482 99.0773 204.311 98.4007 204.251 98.1629C204.137 97.7129 203.827 97.147 203.579 97.2Z" fill="#D8DEE8"/>
<path d="M207.883 100.812C208.043 101.056 208.313 101.355 208.976 101.643C209.208 101.743 210.914 102.485 211.343 101.842C211.518 101.58 211.432 101.162 211.296 100.913C211.085 100.528 210.7 100.45 210.067 100.297C208.179 99.8397 207.752 99.5969 207.597 99.8378C207.425 100.109 207.796 100.678 207.883 100.812Z" fill="#D8DEE8"/>
<path d="M204.683 95.3298C204.457 95.4145 204.471 96.5335 204.875 97.4067C205.085 97.8607 205.467 98.3931 205.641 98.3117C205.829 98.2236 205.733 97.4371 205.593 96.908C205.384 96.1215 204.902 95.2478 204.683 95.3298Z" fill="#D8DEE8"/>
<path d="M206.501 90.005C206.505 89.7432 207.103 89.7865 207.883 89.2319C208.425 88.8469 209.219 88.0574 209.64 86.9984C209.726 86.7838 209.814 86.5133 209.877 86.525C209.973 86.5427 209.985 87.1972 209.877 87.7684C209.678 88.824 209.034 89.7855 208.216 90.2592C207.895 90.4451 207.655 90.4933 207.455 90.4927C207.009 90.4912 206.498 90.2475 206.501 90.005Z" fill="#D8DEE8"/>
<path d="M204.875 105.327C203.826 106.362 203.253 106.212 203.098 106.776C202.922 107.415 203.642 107.663 203.771 108.932C203.851 109.72 203.63 110.178 203.819 110.285C204.106 110.447 204.579 109.374 205.689 108.93C205.775 108.895 206.936 108.449 207.883 109.016C208.433 109.344 208.364 109.687 209.261 110.494C209.835 111.01 210.133 111.27 210.493 111.2C211.086 111.084 211.421 110.154 211.626 109.583C211.797 109.11 212.187 108.027 211.909 106.776C211.789 106.234 211.701 106.368 210.067 103.922C209.615 103.245 209.433 102.953 209.024 102.781C208.188 102.43 207.271 102.945 207.121 103.029C206.793 103.214 206.505 103.519 205.928 104.128C205.246 104.849 205.288 104.919 204.875 105.327Z" fill="#D8DEE8"/>
<path d="M168.104 65.6275C168.104 79.8783 156.961 91.0887 142.719 90.6513C127.897 90.1961 115.431 77.3951 115.431 62.0764C115.431 46.7577 127.897 35.6375 142.719 37.1809C156.961 38.6639 168.104 51.3767 168.104 65.6275Z" fill="url(#paint4_linear_314_59)"/>
<path d="M171.953 64.3986C171.953 78.6494 160.81 89.8598 146.567 89.4224C131.745 88.9673 119.28 76.1662 119.28 60.8476C119.28 45.5289 131.745 34.4086 146.567 35.952C160.81 37.435 171.953 50.1479 171.953 64.3986Z" fill="url(#paint5_linear_314_59)"/>
<path d="M170.835 64.3233C170.835 77.9465 160.173 88.6451 146.567 88.2044C132.434 87.7467 120.567 75.5301 120.567 60.9341C120.567 46.3381 132.434 35.7218 146.567 37.1699C160.173 38.5638 170.835 50.7 170.835 64.3233Z" fill="url(#paint6_linear_314_59)"/>
<path d="M170.035 64.2694C170.035 77.4431 159.718 87.7762 146.567 87.3347C132.924 86.8766 121.484 75.0774 121.484 60.9962C121.484 46.915 132.925 36.6584 146.567 38.0398C159.718 39.3714 170.035 51.0956 170.035 64.2694Z" fill="url(#paint7_linear_314_59)"/>
<path d="M146.433 42.5216C147.133 42.5881 147.699 43.2181 147.699 43.9287V46.3543C149.114 46.5132 150.517 46.7567 151.903 47.0835C152.937 47.3267 153.965 47.6161 154.986 47.9517C155.598 48.1528 156.014 48.7703 155.952 49.4073L155.654 52.4488C155.575 53.2557 154.777 53.7296 154.026 53.3947C153.354 53.0948 152.663 52.8375 151.958 52.6243C150.687 52.2439 149.379 51.9996 148.057 51.8953L147.699 51.8658V58.8121C151.35 59.8334 154.03 61.2074 155.763 62.9355C157.487 64.6554 158.348 66.801 158.346 69.3722C158.346 72.1549 157.394 74.3854 155.489 76.0637C153.572 77.7532 150.878 78.7017 147.408 78.9092V81.5862C147.408 82.2972 146.841 82.851 146.141 82.8232L146.119 82.8223C145.417 82.7944 144.847 82.1934 144.847 81.4799V78.8391L144.283 78.8137C142.713 78.7466 141.149 78.5799 139.601 78.3145C138.51 78.1255 137.43 77.8771 136.366 77.5704C135.729 77.3866 135.292 76.7803 135.351 76.129L135.701 72.2192C135.777 71.374 136.626 70.8821 137.43 71.1992C138.359 71.5662 139.309 71.8781 140.275 72.1332C141.765 72.5265 143.288 72.7808 144.824 72.893L144.847 65.1661C141.343 64.2992 138.726 63.0152 136.996 61.314C135.264 59.6049 134.397 57.4197 134.395 54.7584C134.395 52.0064 135.335 49.8839 137.214 48.3912C139.082 46.9078 141.737 46.1699 145.162 46.1717V43.692C145.162 42.9788 145.732 42.4549 146.433 42.5216ZM145.162 51.7939C144.079 51.8727 143.235 52.1702 142.63 52.6866C142.025 53.2039 141.722 53.8989 141.722 54.7717C141.722 55.5983 142.002 56.2891 142.562 56.8439C143.122 57.3977 143.988 57.8399 145.162 58.1703L145.162 51.7939ZM147.408 65.7856V72.8714C148.585 72.8737 149.489 72.5929 150.118 72.029C150.747 71.4662 151.062 70.6711 151.061 69.6437C151.061 68.7066 150.769 67.9293 150.185 67.3116C149.599 66.6927 148.674 66.184 147.408 65.7856Z" fill="url(#paint8_linear_314_59)"/>
<path style="mix-blend-mode:multiply" opacity="0.3" d="M142.321 67.4954C143.114 59.6645 150.311 56.3494 149.371 49.1465C148.792 44.7068 145.428 40.9654 141.674 38.0441C130.288 39.2378 121.484 48.6655 121.484 60.9962C121.484 75.0775 132.925 86.8765 146.567 87.3347C147.863 87.3778 149.159 87.3145 150.444 87.1454C145.026 81.7539 141.64 74.2231 142.321 67.4954Z" fill="url(#paint9_linear_314_59)"/>
<path d="M231.437 123.509C231.437 137.76 220.293 148.97 206.051 148.533C191.229 148.077 178.763 135.276 178.763 119.958C178.763 104.639 191.229 93.5189 206.051 95.0622C220.293 96.5451 231.437 109.258 231.437 123.509Z" fill="url(#paint10_linear_314_59)"/>
<path d="M235.285 122.28C235.285 136.531 224.142 147.741 209.899 147.304C195.077 146.849 182.612 134.048 182.612 118.729C182.612 103.41 195.077 92.2899 209.899 93.8334C224.142 95.3163 235.285 108.029 235.285 122.28Z" fill="url(#paint11_linear_314_59)"/>
<path d="M234.167 122.205C234.167 135.828 223.505 146.526 209.899 146.086C195.766 145.628 183.899 133.411 183.899 118.815C183.899 104.219 195.766 93.6029 209.899 95.051C223.505 96.4451 234.167 108.581 234.167 122.205Z" fill="url(#paint12_linear_314_59)"/>
<path d="M233.367 122.151C233.367 135.324 223.05 145.658 209.899 145.216C196.257 144.758 184.816 132.959 184.816 118.878C184.816 104.796 196.257 94.5397 209.899 95.9212C223.05 97.2527 233.367 108.977 233.367 122.151Z" fill="url(#paint13_linear_314_59)"/>
<path style="mix-blend-mode:multiply" opacity="0.3" d="M205.653 125.377C206.446 117.546 213.643 114.231 212.703 107.028C212.125 102.588 208.76 98.8466 205.006 95.9253C193.62 97.1193 184.816 106.547 184.816 118.878C184.816 132.959 196.257 144.758 209.899 145.216C211.195 145.259 212.491 145.196 213.776 145.027C208.358 139.635 204.972 132.104 205.653 125.377Z" fill="url(#paint14_linear_314_59)"/>
<path d="M213.896 110.722C214.9 110.799 215.887 111.026 216.825 111.394C217.769 111.765 218.786 111.443 219.255 110.636L220.217 108.983C220.498 108.499 220.54 107.895 220.334 107.331C220.121 106.757 219.691 106.29 219.136 106.031C217.48 105.26 215.711 104.761 213.896 104.551C204.562 103.474 196.116 110.146 196.116 119.544C196.116 128.942 204.562 135.929 213.896 135.2C215.548 135.072 217.172 134.697 218.714 134.09C218.992 133.979 219.246 133.813 219.458 133.602C219.671 133.391 219.839 133.139 219.952 132.862C220.062 132.596 220.113 132.309 220.101 132.022C220.089 131.734 220.015 131.453 219.882 131.197L218.973 129.479C218.526 128.637 217.519 128.248 216.561 128.559C215.699 128.838 214.802 128.996 213.896 129.029C208.45 129.242 203.735 125.057 203.735 119.686C203.735 114.315 208.45 110.306 213.896 110.722Z" fill="url(#paint15_linear_314_59)"/>
<path d="M212.476 116.728C212.476 117.478 211.833 118.067 211.033 118.043L193.65 117.527C192.658 117.498 191.845 116.787 191.845 115.94C191.845 115.093 192.658 114.444 193.65 114.49L211.033 115.302C211.833 115.339 212.476 115.977 212.476 116.728Z" fill="url(#paint16_linear_314_59)"/>
<path d="M212.476 122.917C212.476 123.667 211.833 124.282 211.033 124.289L193.65 124.445C192.658 124.454 191.845 123.775 191.845 122.928C191.845 122.081 192.658 121.4 193.65 121.408L211.033 121.547C211.833 121.553 212.476 122.167 212.476 122.917Z" fill="url(#paint17_linear_314_59)"/>
<path d="M132.825 109.574C134.235 110.246 135.649 110.858 137.066 111.412C135.168 107.196 133.702 102.798 132.692 98.2863C129.192 102.447 126.05 106.895 123.298 111.583C124.789 110.836 126.276 110.082 127.759 109.32C127.985 117.736 132.116 125.189 137.519 130.319C142.951 135.53 149.656 138.418 155.664 139.578C168.104 141.92 176.613 137.513 176.547 137.621C166.794 139.142 158.208 137.165 151.727 134.1C145.187 130.995 140.751 126.801 137.931 123.003C132.369 115.146 132.878 109.508 132.825 109.574Z" fill="url(#paint18_linear_314_59)"/>
<path d="M215.115 78.9525C213.705 78.2809 212.291 77.6685 210.875 77.1153C212.773 81.3313 214.238 85.7289 215.248 90.2406C218.748 86.0804 221.89 81.6324 224.642 76.944C223.151 77.6905 221.664 78.4449 220.182 79.2072C219.955 70.7905 215.824 63.3379 210.421 58.2079C204.989 52.9971 198.284 50.1087 192.276 48.9491C179.836 46.6072 171.327 51.0136 171.394 50.9056C181.147 49.3848 189.732 51.3615 196.213 54.427C202.753 57.5317 207.189 61.7255 210.009 65.524C215.571 73.3804 215.063 79.0191 215.115 78.9525Z" fill="url(#paint19_linear_314_59)"/>
<path d="M338.5 152C338.5 152 270.684 180 169 180C67.2982 180 -0.5 152 -0.5 152L-0.5 180L338.5 180V152Z" fill="white"/>
<defs>
<linearGradient id="paint0_linear_314_59" x1="249.674" y1="53.3031" x2="204.743" y2="72.0825" gradientUnits="userSpaceOnUse">
<stop stop-color="#AA80F9"/>
<stop offset="0.996" stop-color="#6165D7"/>
</linearGradient>
<linearGradient id="paint1_linear_314_59" x1="163.618" y1="44.0018" x2="194.287" y2="83.7704" gradientUnits="userSpaceOnUse">
<stop offset="0.004" stop-color="#E38DDD"/>
<stop offset="1" stop-color="#9571F6"/>
</linearGradient>
<linearGradient id="paint2_linear_314_59" x1="9738.37" y1="50027.6" x2="67353.2" y2="141926" gradientUnits="userSpaceOnUse">
<stop offset="0.004" stop-color="#E38DDD"/>
<stop offset="1" stop-color="#9571F6"/>
</linearGradient>
<linearGradient id="paint3_linear_314_59" x1="100069" y1="61241.3" x2="57863" y2="92796.9" gradientUnits="userSpaceOnUse">
<stop stop-color="#AA80F9"/>
<stop offset="0.996" stop-color="#6165D7"/>
</linearGradient>
<linearGradient id="paint4_linear_314_59" x1="132.741" y1="66.7421" x2="102.022" y2="76.6007" gradientUnits="userSpaceOnUse">
<stop stop-color="#FCB148"/>
<stop offset="0.052" stop-color="#FDBA46"/>
<stop offset="0.142" stop-color="#FFC244"/>
<stop offset="0.318" stop-color="#FFC444"/>
<stop offset="0.485" stop-color="#FDB946"/>
<stop offset="0.775" stop-color="#F99C4D"/>
<stop offset="0.866" stop-color="#F8924F"/>
<stop offset="1" stop-color="#F8924F"/>
</linearGradient>
<linearGradient id="paint5_linear_314_59" x1="157.59" y1="36.1647" x2="130.167" y2="96.6666" gradientUnits="userSpaceOnUse">
<stop stop-color="#FFDB44"/>
<stop offset="1" stop-color="#FEEF06"/>
</linearGradient>
<linearGradient id="paint6_linear_314_59" x1="52553.5" y1="82398.3" x2="46753.9" y2="51280" gradientUnits="userSpaceOnUse">
<stop stop-color="#FCB148"/>
<stop offset="0.052" stop-color="#FDBA46"/>
<stop offset="0.142" stop-color="#FFC244"/>
<stop offset="0.318" stop-color="#FFC444"/>
<stop offset="0.485" stop-color="#FDB946"/>
<stop offset="0.775" stop-color="#F99C4D"/>
<stop offset="0.866" stop-color="#F8924F"/>
<stop offset="1" stop-color="#F8924F"/>
</linearGradient>
<linearGradient id="paint7_linear_314_59" x1="39292.6" y1="30881.2" x2="62253" y2="78751.5" gradientUnits="userSpaceOnUse">
<stop stop-color="#FCB148"/>
<stop offset="0.052" stop-color="#FDBA46"/>
<stop offset="0.142" stop-color="#FFC244"/>
<stop offset="0.318" stop-color="#FFC444"/>
<stop offset="0.485" stop-color="#FDB946"/>
<stop offset="0.775" stop-color="#F99C4D"/>
<stop offset="0.866" stop-color="#F8924F"/>
<stop offset="1" stop-color="#F8924F"/>
</linearGradient>
<linearGradient id="paint8_linear_314_59" x1="19020.3" y1="16736.9" x2="32984" y2="47833.5" gradientUnits="userSpaceOnUse">
<stop stop-color="#FFDB44"/>
<stop offset="1" stop-color="#FEEF06"/>
</linearGradient>
<linearGradient id="paint9_linear_314_59" x1="19574.1" y1="33911" x2="48180" y2="69579.3" gradientUnits="userSpaceOnUse">
<stop stop-color="#FCB148"/>
<stop offset="0.052" stop-color="#FDBA46"/>
<stop offset="0.142" stop-color="#FFC244"/>
<stop offset="0.318" stop-color="#FFC444"/>
<stop offset="0.485" stop-color="#FDB946"/>
<stop offset="0.775" stop-color="#F99C4D"/>
<stop offset="0.866" stop-color="#F8924F"/>
<stop offset="1" stop-color="#F8924F"/>
</linearGradient>
<linearGradient id="paint10_linear_314_59" x1="103402" y1="114145" x2="69215.4" y2="124921" gradientUnits="userSpaceOnUse">
<stop stop-color="#FCB148"/>
<stop offset="0.052" stop-color="#FDBA46"/>
<stop offset="0.142" stop-color="#FFC244"/>
<stop offset="0.318" stop-color="#FFC444"/>
<stop offset="0.485" stop-color="#FDB946"/>
<stop offset="0.775" stop-color="#F99C4D"/>
<stop offset="0.866" stop-color="#F8924F"/>
<stop offset="1" stop-color="#F8924F"/>
</linearGradient>
<linearGradient id="paint11_linear_314_59" x1="130969" y1="79613.1" x2="99635.3" y2="147514" gradientUnits="userSpaceOnUse">
<stop stop-color="#FFDB44"/>
<stop offset="1" stop-color="#FEEF06"/>
</linearGradient>
<linearGradient id="paint12_linear_314_59" x1="119658" y1="144839" x2="113859" y2="113721" gradientUnits="userSpaceOnUse">
<stop stop-color="#FCB148"/>
<stop offset="0.052" stop-color="#FDBA46"/>
<stop offset="0.142" stop-color="#FFC244"/>
<stop offset="0.318" stop-color="#FFC444"/>
<stop offset="0.485" stop-color="#FDB946"/>
<stop offset="0.775" stop-color="#F99C4D"/>
<stop offset="0.866" stop-color="#F8924F"/>
<stop offset="1" stop-color="#F8924F"/>
</linearGradient>
<linearGradient id="paint13_linear_314_59" x1="104107" y1="91192.8" x2="127067" y2="139063" gradientUnits="userSpaceOnUse">
<stop stop-color="#FCB148"/>
<stop offset="0.052" stop-color="#FDBA46"/>
<stop offset="0.142" stop-color="#FFC244"/>
<stop offset="0.318" stop-color="#FFC444"/>
<stop offset="0.485" stop-color="#FDB946"/>
<stop offset="0.775" stop-color="#F99C4D"/>
<stop offset="0.866" stop-color="#F8924F"/>
<stop offset="1" stop-color="#F8924F"/>
</linearGradient>
<linearGradient id="paint14_linear_314_59" x1="58260.4" y1="94065.4" x2="86866.6" y2="129734" gradientUnits="userSpaceOnUse">
<stop stop-color="#FCB148"/>
<stop offset="0.052" stop-color="#FDBA46"/>
<stop offset="0.142" stop-color="#FFC244"/>
<stop offset="0.318" stop-color="#FFC444"/>
<stop offset="0.485" stop-color="#FDB946"/>
<stop offset="0.775" stop-color="#F99C4D"/>
<stop offset="0.866" stop-color="#F8924F"/>
<stop offset="1" stop-color="#F8924F"/>
</linearGradient>
<linearGradient id="paint15_linear_314_59" x1="52913.9" y1="53212.8" x2="59241.8" y2="71950.8" gradientUnits="userSpaceOnUse">
<stop stop-color="#FFDB44"/>
<stop offset="1" stop-color="#FEEF06"/>
</linearGradient>
<linearGradient id="paint16_linear_314_59" x1="4652.63" y1="99681.4" x2="3119.69" y2="99751.9" gradientUnits="userSpaceOnUse">
<stop stop-color="#FFDB44"/>
<stop offset="1" stop-color="#FEEF06"/>
</linearGradient>
<linearGradient id="paint17_linear_314_59" x1="3981.8" y1="102531" x2="2658.24" y2="102583" gradientUnits="userSpaceOnUse">
<stop stop-color="#FFDB44"/>
<stop offset="1" stop-color="#FEEF06"/>
</linearGradient>
<linearGradient id="paint18_linear_314_59" x1="169.078" y1="111.212" x2="110.622" y2="138.237" gradientUnits="userSpaceOnUse">
<stop stop-color="#FB6FBB"/>
<stop offset="1" stop-color="#FF9085"/>
</linearGradient>
<linearGradient id="paint19_linear_314_59" x1="-87340.3" y1="188684" x2="-35987.1" y2="159199" gradientUnits="userSpaceOnUse">
<stop stop-color="#FB6FBB"/>
<stop offset="1" stop-color="#FF9085"/>
</linearGradient>
</defs>
</svg>
