<svg width="338" height="180" viewBox="0 0 338 180" fill="none" xmlns="http://www.w3.org/2000/svg">
<rect width="338" height="180" fill="#EAF7EB"/>
<path d="M220.465 138.359C217.65 141.322 214.987 143.234 212.882 144.744C188.145 162.493 158.874 157.319 152.653 156.056C143.467 154.19 125.71 150.583 112.872 135.486C93.449 112.645 96.4734 76.6604 111.539 52.9061C114.295 48.5611 128.851 24.4451 158.438 20.5776C176.343 18.2372 197.215 22.9577 212.33 35.6209C244.057 62.202 241.798 115.901 220.465 138.359Z" fill="#CEEBD1"/>
<path d="M138.417 28.9917C138.387 28.9939 138.356 28.9886 138.329 28.9762C138.301 28.9639 138.277 28.945 138.259 28.9211C138.111 28.7303 137.957 28.5411 137.801 28.3584C137.769 28.3214 137.754 28.2733 137.758 28.2248C137.761 28.1762 137.784 28.1312 137.821 28.0996C137.858 28.0679 137.906 28.0523 137.955 28.0561C138.003 28.0599 138.049 28.0829 138.08 28.1199C138.24 28.3069 138.398 28.5007 138.549 28.6961C138.57 28.7224 138.582 28.7538 138.586 28.7868C138.59 28.8198 138.585 28.8533 138.572 28.8836C138.558 28.914 138.536 28.9401 138.509 28.9591C138.482 28.9781 138.45 28.9894 138.417 28.9917Z" fill="#91B3FA"/>
<path d="M127.272 53.8826C126.994 53.9051 126.708 53.9141 126.428 53.9185C126.38 53.9192 126.333 53.9006 126.298 53.8666C126.263 53.8327 126.243 53.7863 126.242 53.7376C126.242 53.6891 126.26 53.6424 126.294 53.6076C126.328 53.5727 126.374 53.5525 126.423 53.5512C126.695 53.5472 126.977 53.5339 127.246 53.5162C127.446 53.5024 127.649 53.4841 127.851 53.4618C127.875 53.4583 127.9 53.4598 127.923 53.4662C127.947 53.4726 127.969 53.4838 127.988 53.499C128.007 53.5142 128.022 53.5332 128.034 53.5547C128.045 53.5763 128.052 53.5999 128.054 53.6242C128.056 53.6481 128.054 53.6724 128.048 53.6955C128.041 53.7187 128.03 53.7403 128.015 53.7591C128 53.7779 127.981 53.7936 127.96 53.8052C127.939 53.8168 127.915 53.8242 127.892 53.8268C127.684 53.8498 127.476 53.8685 127.272 53.8826ZM130.195 53.3913C130.15 53.3944 130.105 53.3804 130.069 53.3521C130.033 53.3238 130.009 53.2833 130.002 53.2383C129.994 53.1933 130.004 53.1471 130.029 53.1088C130.053 53.0704 130.091 53.0426 130.135 53.0308C130.58 52.9113 131.027 52.7694 131.462 52.6094L131.5 52.5955C131.522 52.5869 131.547 52.5829 131.571 52.5838C131.595 52.5846 131.619 52.5902 131.641 52.6003C131.663 52.6104 131.683 52.6247 131.699 52.6425C131.716 52.6603 131.728 52.6811 131.737 52.7039C131.745 52.7266 131.749 52.7508 131.748 52.775C131.747 52.7992 131.741 52.823 131.731 52.8449C131.721 52.8669 131.706 52.8866 131.688 52.9029C131.67 52.9193 131.649 52.9319 131.627 52.9401L131.589 52.954C131.143 53.118 130.686 53.2631 130.231 53.3855C130.219 53.3886 130.207 53.3905 130.195 53.3913ZM133.713 51.9696C133.671 51.9725 133.63 51.9611 133.596 51.9373C133.561 51.9135 133.536 51.8787 133.524 51.8386C133.512 51.7985 133.515 51.7556 133.53 51.717C133.546 51.6783 133.575 51.6462 133.611 51.6259C134.028 51.3946 134.438 51.1415 134.829 50.8736C134.869 50.8461 134.919 50.8357 134.966 50.8446C135.014 50.8536 135.057 50.8812 135.084 50.9214C135.112 50.9616 135.122 51.0111 135.113 51.059C135.104 51.1068 135.077 51.1492 135.036 51.1767C134.636 51.451 134.216 51.7102 133.79 51.9467C133.766 51.9599 133.74 51.9677 133.713 51.9696ZM136.778 49.7349C136.74 49.7375 136.702 49.7284 136.67 49.7088C136.637 49.6891 136.612 49.6599 136.597 49.6252C136.581 49.5904 136.577 49.5519 136.585 49.5147C136.593 49.4776 136.612 49.4437 136.639 49.4178C136.985 49.0928 137.32 48.7471 137.635 48.3904C137.667 48.3538 137.712 48.3316 137.761 48.3286C137.81 48.3256 137.857 48.342 137.894 48.3742C137.93 48.4064 137.953 48.4518 137.956 48.5004C137.959 48.5491 137.942 48.5969 137.91 48.6334C137.588 48.9984 137.245 49.3525 136.891 49.6856C136.86 49.7146 136.82 49.732 136.778 49.7349ZM139.202 46.8177C139.168 46.82 139.134 46.8128 139.104 46.797C139.074 46.7811 139.049 46.7572 139.031 46.7279C139.014 46.6987 139.005 46.6651 139.006 46.6311C139.006 46.5971 139.016 46.5639 139.035 46.5353C139.291 46.1357 139.532 45.7188 139.751 45.296C139.773 45.2535 139.812 45.2216 139.858 45.2073C139.904 45.193 139.954 45.1974 139.997 45.2195C140.04 45.2417 140.072 45.2799 140.087 45.3258C140.102 45.3717 140.098 45.4216 140.077 45.4648C139.853 45.8976 139.606 46.3244 139.344 46.7336C139.328 46.7577 139.307 46.7779 139.283 46.7925C139.258 46.8071 139.23 46.8157 139.202 46.8177ZM140.845 43.3981C140.821 43.3997 140.797 43.3966 140.774 43.3888C140.751 43.3811 140.73 43.3689 140.712 43.3531C140.694 43.3372 140.679 43.3179 140.668 43.2963C140.658 43.2747 140.651 43.2512 140.65 43.2271C140.648 43.203 140.651 43.1789 140.659 43.1561C140.811 42.7054 140.944 42.2424 141.053 41.7801C141.064 41.7327 141.094 41.6916 141.135 41.6661C141.177 41.6405 141.227 41.6324 141.274 41.6436C141.321 41.6548 141.362 41.6844 141.388 41.7259C141.414 41.7673 141.422 41.8173 141.41 41.8647C141.298 42.3379 141.163 42.8121 141.007 43.2737C140.995 43.308 140.974 43.3381 140.945 43.3603C140.916 43.3824 140.882 43.3956 140.845 43.3981ZM141.61 39.6819C141.601 39.6826 141.592 39.6826 141.583 39.6819C141.534 39.6781 141.489 39.6551 141.458 39.618C141.426 39.581 141.411 39.5329 141.414 39.4844C141.452 39.0094 141.468 38.5281 141.461 38.0535C141.46 38.0293 141.464 38.0052 141.473 37.9827C141.482 37.9602 141.495 37.9396 141.512 37.9223C141.529 37.9049 141.549 37.8911 141.571 37.8817C141.594 37.8722 141.617 37.8673 141.642 37.8672C141.69 37.8665 141.737 37.8851 141.772 37.919C141.807 37.9529 141.827 37.9992 141.828 38.0479C141.835 38.5341 141.819 39.0272 141.781 39.5134C141.777 39.5572 141.758 39.5984 141.727 39.6293C141.695 39.6602 141.654 39.6789 141.61 39.6819H141.61ZM141.441 35.8902C141.396 35.8933 141.351 35.8795 141.315 35.8513C141.279 35.8232 141.255 35.7827 141.248 35.7379C141.168 35.2694 141.065 34.7989 140.942 34.3394C140.93 34.2925 140.937 34.2428 140.961 34.2011C140.985 34.1593 141.025 34.1288 141.072 34.1163C141.119 34.1037 141.168 34.1101 141.21 34.134C141.253 34.158 141.283 34.1975 141.296 34.2441C141.423 34.7147 141.528 35.1965 141.61 35.6762C141.618 35.7243 141.607 35.7736 141.578 35.8133C141.55 35.853 141.507 35.8799 141.459 35.8881C141.453 35.8891 141.447 35.8899 141.441 35.8902ZM140.353 32.2546C140.315 32.2572 140.278 32.2481 140.245 32.2285C140.213 32.2089 140.187 32.1797 140.172 32.145C139.981 31.708 139.767 31.2764 139.538 30.862C139.526 30.8409 139.519 30.8177 139.516 30.7937C139.513 30.7698 139.515 30.7455 139.522 30.7224C139.529 30.6992 139.54 30.6775 139.555 30.6587C139.57 30.6398 139.588 30.6241 139.609 30.6124C139.631 30.6008 139.654 30.5934 139.678 30.5906C139.702 30.5879 139.726 30.59 139.749 30.5966C139.772 30.6033 139.794 30.6145 139.813 30.6295C139.832 30.6445 139.847 30.6631 139.859 30.6842C140.094 31.1083 140.313 31.5503 140.509 31.9978C140.528 32.0424 140.529 32.0929 140.511 32.1383C140.494 32.1836 140.459 32.2201 140.414 32.2396C140.395 32.2481 140.374 32.2532 140.353 32.2546V32.2546Z" fill="#91B3FA"/>
<path d="M124.082 53.7724C124.069 53.7733 124.056 53.7728 124.043 53.7711C123.8 53.737 123.553 53.6967 123.311 53.6511C123.287 53.6468 123.264 53.6379 123.243 53.6248C123.223 53.6116 123.205 53.5946 123.192 53.5747C123.178 53.5547 123.168 53.5322 123.163 53.5085C123.158 53.4848 123.158 53.4603 123.162 53.4365C123.167 53.4127 123.176 53.39 123.189 53.3697C123.203 53.3494 123.22 53.332 123.24 53.3184C123.26 53.3048 123.282 53.2953 123.306 53.2904C123.33 53.2856 123.354 53.2855 123.378 53.2902C123.615 53.3347 123.856 53.3742 124.094 53.4074C124.139 53.4137 124.18 53.4364 124.209 53.4711C124.239 53.5059 124.254 53.5502 124.252 53.5956C124.251 53.6409 124.232 53.6841 124.201 53.7168C124.169 53.7494 124.127 53.7692 124.082 53.7724Z" fill="#91B3FA"/>
<path d="M113.645 47.4746C113.613 47.4768 113.582 47.471 113.554 47.4576C113.525 47.4443 113.501 47.4239 113.483 47.3984C113.34 47.1996 113.199 46.9931 113.064 46.7844C113.039 46.7435 113.03 46.6941 113.04 46.6469C113.051 46.5997 113.079 46.5586 113.12 46.5323C113.16 46.506 113.21 46.4968 113.257 46.5066C113.304 46.5165 113.346 46.5445 113.373 46.5848C113.504 46.7887 113.642 46.9904 113.781 47.1844C113.8 47.211 113.812 47.2421 113.815 47.2746C113.818 47.3071 113.812 47.3398 113.798 47.3694C113.784 47.3989 113.762 47.4242 113.736 47.4427C113.709 47.4611 113.677 47.4721 113.645 47.4744V47.4746Z" fill="#91B3FA"/>
<path d="M112.124 44.8353C112.086 44.8379 112.049 44.8289 112.017 44.8097C111.985 44.7905 111.959 44.7618 111.944 44.7277C111.789 44.3853 111.645 44.0327 111.515 43.6795C111.479 43.5822 111.444 43.485 111.411 43.3878C111.403 43.365 111.399 43.3409 111.401 43.3168C111.402 43.2927 111.408 43.2692 111.419 43.2475C111.43 43.2258 111.444 43.2064 111.462 43.1904C111.48 43.1743 111.501 43.162 111.524 43.1541C111.547 43.1462 111.571 43.1429 111.595 43.1443C111.619 43.1457 111.643 43.1519 111.664 43.1624C111.686 43.173 111.706 43.1877 111.722 43.2057C111.738 43.2237 111.75 43.2447 111.758 43.2675C111.791 43.3627 111.825 43.4577 111.86 43.5525C111.986 43.8975 112.127 44.2419 112.278 44.5764C112.298 44.6207 112.3 44.6713 112.283 44.7168C112.266 44.7623 112.231 44.7992 112.187 44.8192C112.167 44.8283 112.145 44.8338 112.124 44.8353ZM111.004 41.2735C110.959 41.2765 110.915 41.263 110.879 41.2354C110.844 41.2079 110.819 41.1682 110.811 41.124C110.724 40.653 110.657 40.1723 110.613 39.6953C110.609 39.6468 110.624 39.5985 110.655 39.561C110.686 39.5236 110.731 39.5001 110.779 39.4956C110.828 39.492 110.876 39.5073 110.913 39.5383C110.95 39.5693 110.974 39.6135 110.979 39.6617C111.022 40.1278 111.087 40.5971 111.172 41.0567C111.177 41.0804 111.176 41.1048 111.171 41.1284C111.166 41.152 111.157 41.1743 111.143 41.1942C111.13 41.2141 111.112 41.2311 111.092 41.2443C111.072 41.2574 111.049 41.2665 111.025 41.2709C111.018 41.2722 111.011 41.273 111.004 41.2734V41.2735ZM110.773 37.5466C110.765 37.547 110.757 37.547 110.749 37.5466C110.7 37.5436 110.655 37.5215 110.623 37.485C110.59 37.4485 110.574 37.4007 110.577 37.3521C110.605 36.874 110.657 36.3914 110.73 35.9182C110.737 35.8705 110.764 35.8279 110.803 35.7996C110.842 35.7712 110.891 35.7595 110.939 35.7668C110.986 35.7742 111.029 35.8 111.058 35.8388C111.087 35.8776 111.099 35.9262 111.093 35.974C111.021 36.4362 110.971 36.9071 110.943 37.3743C110.941 37.4187 110.922 37.4607 110.89 37.4924C110.859 37.5241 110.817 37.5433 110.773 37.5464V37.5466ZM111.446 33.8744C111.423 33.876 111.4 33.8733 111.378 33.8665C111.355 33.8593 111.334 33.8477 111.315 33.8322C111.297 33.8168 111.281 33.7978 111.27 33.7765C111.259 33.7551 111.252 33.7318 111.25 33.7077C111.248 33.6837 111.25 33.6595 111.258 33.6365C111.4 33.1791 111.566 32.7231 111.75 32.281C111.759 32.2587 111.772 32.2385 111.789 32.2215C111.806 32.2045 111.827 32.191 111.849 32.1818C111.871 32.1726 111.895 32.1679 111.919 32.1679C111.943 32.1679 111.967 32.1727 111.99 32.182C112.012 32.1912 112.032 32.2047 112.049 32.2218C112.066 32.2389 112.08 32.2591 112.089 32.2814C112.098 32.3037 112.103 32.3276 112.103 32.3517C112.103 32.3758 112.098 32.3996 112.089 32.4219C111.909 32.8537 111.748 33.2991 111.608 33.7456C111.597 33.7809 111.576 33.8121 111.547 33.8351C111.518 33.858 111.483 33.8717 111.446 33.8743V33.8744ZM112.977 30.4698C112.943 30.472 112.91 30.4651 112.88 30.4496C112.85 30.4342 112.825 30.4108 112.807 30.3822C112.79 30.3535 112.781 30.3206 112.78 30.287C112.78 30.2534 112.79 30.2205 112.807 30.1917C113.054 29.7821 113.323 29.3788 113.608 28.9929C113.622 28.9731 113.64 28.9563 113.66 28.9435C113.681 28.9307 113.704 28.9222 113.728 28.9184C113.752 28.9146 113.777 28.9156 113.801 28.9213C113.824 28.9271 113.846 28.9375 113.866 28.9519C113.886 28.9664 113.902 28.9846 113.915 29.0055C113.927 29.0263 113.935 29.0495 113.939 29.0736C113.942 29.0977 113.941 29.1222 113.935 29.1458C113.929 29.1694 113.918 29.1915 113.903 29.2108C113.626 29.5877 113.363 29.9815 113.121 30.3814C113.106 30.4067 113.085 30.4279 113.06 30.4432C113.034 30.4586 113.006 30.4676 112.977 30.4696V30.4698ZM115.277 27.5302C115.239 27.5328 115.202 27.524 115.17 27.5049C115.138 27.4857 115.112 27.4572 115.097 27.4232C115.081 27.3892 115.076 27.3512 115.083 27.3144C115.09 27.2776 115.107 27.2437 115.134 27.2172C115.472 26.879 115.83 26.5522 116.199 26.2461C116.236 26.215 116.285 26.2 116.333 26.2045C116.382 26.209 116.426 26.2326 116.457 26.27C116.489 26.3075 116.504 26.3558 116.499 26.4043C116.495 26.4528 116.471 26.4975 116.434 26.5286C116.074 26.8276 115.724 27.1467 115.394 27.4768C115.362 27.5082 115.321 27.5272 115.277 27.5302V27.5302ZM118.216 25.2309C118.175 25.2338 118.134 25.2228 118.1 25.1996C118.066 25.1764 118.04 25.1424 118.028 25.1031C118.016 25.0637 118.017 25.0214 118.031 24.9828C118.046 24.9442 118.073 24.9117 118.108 24.8904C118.518 24.6435 118.945 24.4129 119.377 24.2047C119.42 24.1835 119.471 24.1807 119.517 24.1967C119.563 24.2128 119.601 24.2464 119.622 24.2903C119.643 24.3342 119.646 24.3847 119.63 24.4307C119.614 24.4767 119.58 24.5144 119.536 24.5355C119.115 24.7386 118.698 24.9638 118.298 25.2052C118.273 25.2201 118.245 25.2289 118.216 25.2308V25.2309ZM121.622 23.7042C121.577 23.7073 121.533 23.6937 121.497 23.6662C121.462 23.6386 121.438 23.599 121.429 23.5548C121.421 23.5106 121.429 23.4649 121.453 23.4264C121.476 23.3879 121.512 23.3592 121.555 23.3458C122.013 23.2033 122.482 23.0805 122.95 22.9808C122.974 22.9755 122.998 22.9749 123.022 22.9791C123.046 22.9833 123.069 22.9922 123.09 23.0053C123.11 23.0184 123.128 23.0354 123.141 23.0554C123.155 23.0754 123.165 23.0979 123.17 23.1217C123.175 23.1454 123.175 23.1699 123.171 23.1938C123.167 23.2177 123.157 23.2404 123.144 23.2608C123.131 23.2811 123.113 23.2985 123.093 23.3121C123.073 23.3257 123.051 23.3352 123.027 23.34C122.569 23.4375 122.111 23.5574 121.664 23.6965C121.65 23.7007 121.636 23.7033 121.622 23.7042ZM126.72 23.0152C126.714 23.0156 126.708 23.0157 126.701 23.0156C126.233 22.9996 125.759 23.0056 125.293 23.0332C125.245 23.0356 125.198 23.0189 125.162 22.9867C125.126 22.9546 125.104 22.9097 125.101 22.8616C125.098 22.8135 125.114 22.7661 125.145 22.7296C125.177 22.6932 125.222 22.6706 125.27 22.6667H125.271C125.749 22.6384 126.234 22.6324 126.714 22.6486C126.761 22.6502 126.805 22.6697 126.838 22.7033C126.871 22.7368 126.89 22.7818 126.891 22.8288C126.892 22.8759 126.875 22.9215 126.843 22.9562C126.811 22.9909 126.767 23.0121 126.72 23.0153V23.0152Z" fill="#91B3FA"/>
<path d="M129.747 23.421C129.729 23.4222 129.71 23.4207 129.692 23.4166C129.459 23.3611 129.22 23.3106 128.983 23.2662C128.959 23.2621 128.936 23.2532 128.915 23.2402C128.895 23.2271 128.877 23.2101 128.863 23.1901C128.849 23.1701 128.84 23.1476 128.834 23.1238C128.829 23.1 128.829 23.0754 128.833 23.0515C128.838 23.0275 128.847 23.0047 128.86 22.9844C128.874 22.964 128.891 22.9466 128.911 22.933C128.931 22.9193 128.954 22.9099 128.978 22.9051C129.002 22.9004 129.027 22.9004 129.05 22.9053C129.293 22.9507 129.538 23.0025 129.777 23.0591C129.82 23.0693 129.857 23.0944 129.883 23.1299C129.909 23.1654 129.921 23.209 129.918 23.2528C129.914 23.2966 129.895 23.3376 129.864 23.3685C129.832 23.3993 129.791 23.418 129.747 23.421H129.747Z" fill="#91B3FA"/>
<path d="M130.347 27.1608C130.313 27.1436 130.274 27.1375 130.236 27.1434C130.197 27.1494 130.162 27.167 130.134 27.194L128.52 28.7719C127.481 28.5229 126.407 28.4452 125.343 28.5416L123.973 26.7496C123.949 26.7189 123.917 26.6963 123.88 26.685C123.843 26.6736 123.804 26.674 123.767 26.6862L121.198 27.5397C121.161 27.5518 121.129 27.5751 121.106 27.6063C121.083 27.6375 121.071 27.675 121.071 27.7135L121.045 29.9692C120.134 30.5289 119.321 31.2334 118.637 32.0548L116.399 31.7563C116.361 31.7512 116.322 31.7581 116.288 31.7762C116.254 31.7942 116.226 31.8225 116.209 31.857L114.995 34.2775C114.978 34.3119 114.972 34.351 114.978 34.3891C114.984 34.4273 115.002 34.4626 115.029 34.4902L116.607 36.1044C116.358 37.144 116.28 38.2172 116.376 39.2818L114.584 40.6518C114.554 40.6752 114.531 40.7077 114.52 40.7446C114.508 40.7814 114.509 40.821 114.521 40.8576L115.374 43.4272C115.386 43.4638 115.41 43.4957 115.441 43.5185C115.472 43.5413 115.51 43.5537 115.548 43.5542L117.804 43.5798C118.364 44.4906 119.068 45.304 119.889 45.988L119.591 48.2255C119.586 48.2637 119.593 48.3025 119.611 48.3366C119.629 48.3706 119.657 48.3982 119.692 48.4155L122.112 49.629C122.147 49.6463 122.186 49.6524 122.224 49.6464C122.262 49.6405 122.297 49.6228 122.325 49.5958L123.939 48.0179C124.979 48.2669 126.052 48.3447 127.116 48.2482L128.486 50.0403C128.51 50.071 128.542 50.0936 128.579 50.1049C128.616 50.1163 128.656 50.1158 128.692 50.1036L131.262 49.2502C131.298 49.238 131.33 49.2147 131.353 49.1836C131.376 49.1524 131.388 49.1149 131.389 49.0763L131.414 46.8205C132.325 46.261 133.139 45.5566 133.823 44.7352L136.06 45.0338C136.098 45.0389 136.137 45.0319 136.171 45.0139C136.205 44.9958 136.233 44.9676 136.25 44.9331L137.464 42.5126C137.481 42.4781 137.487 42.439 137.481 42.4009C137.475 42.3628 137.458 42.3274 137.431 42.2998L135.853 40.6859C136.102 39.6463 136.179 38.5731 136.083 37.5085L137.875 36.1385C137.906 36.115 137.928 36.0826 137.94 36.0457C137.951 36.0089 137.951 35.9694 137.938 35.9327L137.085 33.363C137.073 33.3263 137.049 33.2944 137.018 33.2716C136.987 33.2489 136.95 33.2364 136.911 33.2359L134.655 33.2103C134.096 32.2996 133.391 31.4862 132.57 30.8021L132.868 28.5646C132.873 28.5264 132.866 28.4875 132.848 28.4534C132.83 28.4192 132.802 28.3916 132.768 28.3743L130.347 27.1608Z" fill="#91B3FA"/>
<path d="M126.418 41.0694C126.161 41.0869 125.903 41.0675 125.651 41.0118C124.994 40.865 124.417 40.4748 124.036 39.9197C123.654 39.3646 123.497 38.6857 123.596 38.0195C123.695 37.3534 124.042 36.7494 124.569 36.3289C125.095 35.9085 125.76 35.7029 126.432 35.7534C127.104 35.8038 127.731 36.1067 128.188 36.601C128.646 37.0954 128.899 37.7445 128.897 38.418C128.895 39.0914 128.639 39.7392 128.179 40.2311C127.719 40.723 127.09 41.0225 126.418 41.0694ZM126.08 36.2706C125.541 36.3075 125.037 36.5469 124.668 36.9407C124.299 37.3346 124.092 37.8536 124.09 38.3933C124.089 38.9331 124.291 39.4535 124.658 39.8498C125.024 40.2462 125.527 40.4891 126.065 40.5296C126.603 40.5702 127.137 40.4053 127.559 40.0683C127.98 39.7313 128.258 39.2471 128.337 38.7132C128.416 38.1792 128.29 37.6352 127.984 37.1905C127.678 36.7459 127.215 36.4336 126.689 36.3165C126.489 36.2722 126.284 36.2567 126.08 36.2706Z" fill="#BDD0FB"/>
<path d="M126.665 45.2446C125.16 45.3444 123.664 44.942 122.412 44.1006C121.16 43.2591 120.223 42.0261 119.746 40.5946C119.564 40.0478 119.452 39.4802 119.412 38.9052C119.312 37.4 119.715 35.9043 120.556 34.6523C121.397 33.4003 122.63 32.4628 124.062 31.9866C124.107 31.9716 124.152 31.9572 124.197 31.9432C124.569 31.8283 124.949 31.7452 125.334 31.6947C125.382 31.6884 125.43 31.6827 125.478 31.6775L125.537 32.2251C125.094 32.2736 124.658 32.369 124.235 32.5095C122.745 32.9997 121.496 34.0353 120.738 35.4084C120.695 35.4858 120.654 35.5643 120.614 35.6438C120.111 36.6406 119.886 37.7543 119.962 38.8681C119.998 39.3966 120.102 39.9183 120.269 40.4208C120.573 41.3355 121.084 42.1675 121.763 42.852C122.441 43.5365 123.269 44.0551 124.181 44.3672C125.093 44.6793 126.064 44.7766 127.02 44.6514C127.976 44.5262 128.89 44.182 129.69 43.6455C130.491 43.1091 131.157 42.3949 131.637 41.5587C132.116 40.7225 132.396 39.7869 132.454 38.8248C132.512 37.8627 132.347 36.9002 131.972 36.0123C131.598 35.1243 131.023 34.335 130.292 33.7058L130.651 33.2882C131.333 33.8761 131.892 34.5931 132.295 35.3979C132.699 36.2027 132.939 37.0795 133.001 37.9775C133.211 41.003 131.362 43.9108 128.354 44.9101C127.808 45.0921 127.24 45.2045 126.665 45.2446Z" fill="#BDD0FB"/>
<path d="M121.814 52.3993C121.775 52.4021 121.737 52.3948 121.702 52.3782C121.667 52.3617 121.637 52.3363 121.615 52.3047C121.447 52.0662 121.265 51.8331 121.077 51.612C121.038 51.5667 121.019 51.5079 121.023 51.4486C121.028 51.3892 121.056 51.3341 121.101 51.2954C121.147 51.2567 121.205 51.2376 121.265 51.2423C121.324 51.2469 121.379 51.275 121.418 51.3203C121.616 51.5517 121.806 51.7961 121.982 52.0459C122.005 52.0785 122.019 52.1165 122.022 52.1562C122.025 52.1959 122.018 52.2357 122.001 52.2717C121.984 52.3077 121.958 52.3384 121.925 52.3609C121.892 52.3833 121.854 52.3966 121.814 52.3993H121.814Z" fill="#91B3FA"/>
<path d="M115.938 67.4869C115.881 67.4907 115.825 67.4731 115.781 67.4374C115.737 67.4017 115.708 67.3506 115.7 67.2944C115.692 67.2383 115.706 67.1812 115.738 67.1346C115.771 67.088 115.819 67.0555 115.875 67.0434C116.304 66.9495 116.727 66.8261 117.139 66.6741C117.285 66.6205 117.429 66.5638 117.57 66.5041C117.625 66.4809 117.687 66.4804 117.742 66.5028C117.797 66.5252 117.841 66.5685 117.864 66.6234C117.888 66.6782 117.888 66.74 117.866 66.7952C117.843 66.8504 117.8 66.8944 117.745 66.9176C117.597 66.9804 117.447 67.0398 117.294 67.0958C116.863 67.255 116.42 67.3841 115.971 67.4824C115.96 67.4848 115.949 67.4863 115.938 67.4869ZM120.184 65.3846C120.137 65.3879 120.09 65.3762 120.05 65.3513C120.01 65.3263 119.978 65.2893 119.96 65.2455C119.943 65.2017 119.939 65.1534 119.95 65.1074C119.961 65.0615 119.987 65.0202 120.023 64.9896C120.474 64.6039 120.888 64.1766 121.26 63.7133C121.278 63.6898 121.301 63.6703 121.327 63.6557C121.353 63.6411 121.381 63.6319 121.411 63.6284C121.44 63.625 121.47 63.6274 121.499 63.6356C121.527 63.6439 121.554 63.6577 121.577 63.6763C121.6 63.6949 121.62 63.7179 121.634 63.744C121.648 63.7701 121.657 63.7988 121.66 63.8283C121.663 63.8579 121.66 63.8878 121.652 63.9163C121.643 63.9448 121.629 63.9712 121.61 63.9942C121.221 64.4795 120.787 64.9272 120.314 65.3314C120.278 65.3626 120.232 65.3813 120.184 65.3846ZM122.926 61.5219C122.893 61.5243 122.86 61.5191 122.829 61.5069C122.802 61.4962 122.776 61.4802 122.755 61.4598C122.734 61.4394 122.717 61.415 122.705 61.388C122.693 61.361 122.687 61.3319 122.686 61.3024C122.685 61.2729 122.691 61.2436 122.701 61.2161C122.917 60.6625 123.081 60.0899 123.19 59.5058C123.201 59.4472 123.235 59.3954 123.284 59.3617C123.333 59.3281 123.393 59.3153 123.452 59.3262C123.511 59.3372 123.562 59.3709 123.596 59.4201C123.63 59.4692 123.643 59.5297 123.632 59.5883C123.517 60.2 123.346 60.7997 123.12 61.3795C123.104 61.4192 123.078 61.4536 123.043 61.4788C123.009 61.5041 122.968 61.519 122.926 61.5219ZM123.518 56.8214C123.461 56.8253 123.404 56.8071 123.36 56.7706C123.316 56.734 123.287 56.6818 123.28 56.6248C123.207 56.0351 123.079 55.4536 122.898 54.8877C122.88 54.831 122.885 54.7694 122.912 54.7164C122.939 54.6634 122.987 54.6234 123.043 54.6051C123.1 54.5869 123.162 54.592 123.215 54.6192C123.268 54.6464 123.308 54.6936 123.326 54.7503C123.516 55.3429 123.65 55.9521 123.726 56.5697C123.733 56.6288 123.717 56.6883 123.68 56.7353C123.643 56.7822 123.59 56.8127 123.53 56.8201C123.526 56.8208 123.522 56.8211 123.518 56.8214Z" fill="#91B3FA"/>
<path d="M112.982 67.6667C112.97 67.6676 112.958 67.6675 112.945 67.6664C112.641 67.6379 112.335 67.5948 112.036 67.5384C111.977 67.5273 111.925 67.4935 111.892 67.4443C111.858 67.3951 111.846 67.3346 111.857 67.276C111.868 67.2175 111.902 67.1657 111.951 67.1321C112 67.0985 112.06 67.0859 112.119 67.0969C112.405 67.1508 112.697 67.1919 112.987 67.219C113.043 67.2242 113.096 67.2504 113.133 67.2923C113.171 67.3342 113.192 67.3888 113.191 67.4452C113.19 67.5017 113.169 67.5558 113.13 67.5968C113.091 67.6378 113.038 67.6628 112.982 67.6667Z" fill="#91B3FA"/>
<path d="M105.991 63.6597C105.953 63.6624 105.915 63.6553 105.88 63.639C105.845 63.6227 105.815 63.5977 105.793 63.5665C105.616 63.3192 105.447 63.0598 105.293 62.7952C105.278 62.7698 105.268 62.7415 105.263 62.7122C105.259 62.6828 105.261 62.6529 105.268 62.6242C105.276 62.5955 105.289 62.5686 105.307 62.5449C105.325 62.5213 105.347 62.5014 105.373 62.4864C105.398 62.4715 105.426 62.4618 105.456 62.4578C105.485 62.4539 105.515 62.4558 105.544 62.4634C105.572 62.4711 105.599 62.4844 105.623 62.5025C105.646 62.5206 105.666 62.5431 105.681 62.5689C105.828 62.8211 105.989 63.0689 106.158 63.3049C106.181 63.3373 106.195 63.3754 106.199 63.4153C106.203 63.4551 106.196 63.4951 106.179 63.5313C106.162 63.5675 106.135 63.5985 106.102 63.6211C106.069 63.6436 106.031 63.657 105.991 63.6598L105.991 63.6597Z" fill="#91B3FA"/>
<path d="M104.426 60.2091C104.373 60.2127 104.32 60.1973 104.277 60.1656C104.235 60.134 104.204 60.0882 104.192 60.0364C104.07 59.5162 103.99 58.9871 103.953 58.4541C103.948 58.3764 103.943 58.2987 103.94 58.2211C103.939 58.1621 103.961 58.1051 104.001 58.0615C104.04 58.018 104.095 57.9912 104.154 57.9867C104.214 57.9841 104.272 58.0052 104.316 58.0454C104.36 58.0856 104.386 58.1416 104.388 58.2011C104.392 58.2752 104.396 58.349 104.401 58.4232C104.436 58.932 104.513 59.4371 104.629 59.9337C104.643 59.9917 104.633 60.0527 104.602 60.1033C104.57 60.1539 104.52 60.19 104.462 60.2037C104.45 60.2064 104.438 60.2082 104.426 60.2091ZM104.485 55.5491C104.45 55.5514 104.414 55.5453 104.381 55.5312C104.349 55.5172 104.32 55.4955 104.297 55.4681C104.274 55.4407 104.259 55.4082 104.251 55.3735C104.243 55.3387 104.244 55.3026 104.253 55.2681C104.408 54.6765 104.617 54.1002 104.877 53.5467C104.903 53.4935 104.948 53.4527 105.004 53.4331C105.06 53.4134 105.121 53.4165 105.174 53.4416C105.228 53.4668 105.269 53.512 105.29 53.5675C105.31 53.6229 105.308 53.6842 105.283 53.738C105.035 54.2666 104.835 54.8169 104.687 55.3819C104.675 55.4274 104.649 55.468 104.613 55.498C104.577 55.5281 104.532 55.546 104.485 55.5493V55.5491ZM106.707 51.4533C106.663 51.4563 106.618 51.446 106.579 51.4235C106.541 51.401 106.509 51.3674 106.49 51.3271C106.47 51.2868 106.463 51.2415 106.47 51.1972C106.476 51.1528 106.496 51.1114 106.526 51.0783C106.938 50.626 107.391 50.2129 107.88 49.8441C107.927 49.8083 107.987 49.7927 108.046 49.801C108.105 49.8093 108.158 49.8406 108.194 49.8881C108.23 49.9357 108.246 49.9955 108.237 50.0545C108.229 50.1135 108.198 50.1668 108.15 50.2027C107.684 50.5547 107.252 50.949 106.858 51.3807C106.819 51.4236 106.765 51.4497 106.707 51.4535V51.4533ZM110.583 48.8672C110.529 48.8709 110.475 48.8549 110.432 48.8222C110.389 48.7896 110.359 48.7424 110.348 48.6894C110.337 48.6364 110.345 48.5812 110.371 48.5338C110.398 48.4865 110.44 48.4503 110.491 48.4319C111.067 48.224 111.66 48.0693 112.263 47.9697C112.292 47.9642 112.322 47.9647 112.351 47.9711C112.38 47.9776 112.408 47.9898 112.432 48.0071C112.456 48.0244 112.476 48.0464 112.492 48.0717C112.507 48.0971 112.517 48.1253 112.521 48.1547C112.526 48.1838 112.525 48.2135 112.518 48.2422C112.512 48.2709 112.5 48.298 112.482 48.322C112.465 48.3459 112.443 48.3663 112.418 48.3818C112.393 48.3974 112.365 48.4078 112.336 48.4126C111.76 48.5079 111.193 48.6557 110.644 48.8544C110.624 48.8616 110.604 48.866 110.583 48.8674V48.8672Z" fill="#91B3FA"/>
<path d="M116.108 48.5482C116.085 48.5497 116.062 48.5479 116.04 48.5428C115.757 48.4755 115.467 48.4208 115.179 48.3804C115.12 48.3721 115.066 48.3407 115.03 48.2931C114.994 48.2456 114.979 48.1857 114.987 48.1267C114.996 48.0676 115.027 48.0143 115.075 47.9785C115.122 47.9426 115.182 47.9271 115.241 47.9354C115.543 47.9779 115.847 48.035 116.144 48.1054C116.196 48.1178 116.242 48.1485 116.274 48.192C116.305 48.2354 116.32 48.2888 116.316 48.3423C116.311 48.3958 116.288 48.446 116.25 48.4837C116.212 48.5215 116.161 48.5443 116.108 48.548V48.5482Z" fill="#91B3FA"/>
<path d="M116.477 50.7889C116.455 50.778 116.431 50.7741 116.407 50.7779C116.383 50.7816 116.361 50.7927 116.343 50.8096L115.329 51.801C114.676 51.6445 114.002 51.5957 113.333 51.6563L112.472 50.5303C112.457 50.511 112.437 50.4968 112.414 50.4896C112.391 50.4824 112.366 50.4827 112.343 50.4903L110.729 51.0265C110.705 51.0341 110.685 51.0487 110.671 51.0683C110.657 51.0878 110.649 51.1114 110.649 51.1357L110.632 52.5528C110.06 52.9046 109.549 53.3472 109.12 53.8634L107.714 53.6759C107.69 53.6727 107.666 53.677 107.644 53.6884C107.623 53.6997 107.605 53.7174 107.595 53.7391L106.832 55.2598C106.821 55.2814 106.817 55.306 106.821 55.3299C106.825 55.3539 106.836 55.3761 106.853 55.3934L107.844 56.4075C107.688 57.0606 107.639 57.7349 107.7 58.4037L106.574 59.2645C106.554 59.2792 106.54 59.2996 106.533 59.3227C106.526 59.3459 106.526 59.3707 106.534 59.3938L107.07 61.0081C107.078 61.0312 107.092 61.0513 107.112 61.0656C107.131 61.08 107.155 61.0878 107.179 61.0881L108.596 61.1042C108.948 61.6764 109.39 62.1874 109.907 62.6171L109.719 64.0228C109.716 64.0469 109.72 64.0713 109.732 64.0927C109.743 64.1141 109.761 64.1315 109.782 64.1424L111.303 64.9047C111.325 64.9156 111.349 64.9194 111.373 64.9157C111.397 64.912 111.419 64.9008 111.437 64.8839L112.451 63.8926C113.104 64.049 113.778 64.0979 114.447 64.0373L115.308 65.1632C115.322 65.1824 115.343 65.1966 115.366 65.2037C115.389 65.2109 115.414 65.2106 115.437 65.2029L117.051 64.6668C117.074 64.6591 117.094 64.6445 117.109 64.6249C117.123 64.6053 117.131 64.5818 117.131 64.5575L117.147 63.1404C117.719 62.7888 118.23 62.3462 118.66 61.8301L120.066 62.0177C120.09 62.0209 120.114 62.0165 120.136 62.0052C120.157 61.9938 120.174 61.9761 120.185 61.9544L120.948 60.4338C120.959 60.4121 120.962 60.3875 120.959 60.3636C120.955 60.3396 120.944 60.3174 120.927 60.3001L119.936 59.286C120.092 58.6329 120.141 57.9587 120.08 57.2898L121.206 56.429C121.225 56.4143 121.24 56.394 121.247 56.3708C121.254 56.3476 121.254 56.3228 121.246 56.2998L120.71 54.6853C120.702 54.6622 120.688 54.6421 120.668 54.6278C120.648 54.6134 120.625 54.6056 120.601 54.6053L119.183 54.5892C118.832 54.017 118.389 53.506 117.873 53.0762L118.061 51.6705C118.064 51.6465 118.06 51.622 118.048 51.6006C118.037 51.5792 118.019 51.5618 117.997 51.551L116.477 50.7889Z" fill="#91B3FA"/>
<path d="M114.02 59.6889C113.611 59.718 113.203 59.6096 112.862 59.381C112.52 59.1523 112.265 58.8164 112.136 58.4264C112.007 58.0363 112.012 57.6144 112.149 57.2274C112.287 56.8404 112.55 56.5103 112.896 56.2893C113.133 56.1378 113.402 56.0425 113.682 56.0106C113.961 55.9787 114.244 56.0111 114.51 56.1053C114.775 56.1995 115.015 56.3531 115.212 56.5543C115.408 56.7555 115.557 56.9989 115.645 57.2661C115.733 57.5333 115.76 57.8172 115.721 58.096C115.683 58.3748 115.582 58.6413 115.425 58.875C115.269 59.1087 115.061 59.3035 114.817 59.4446C114.574 59.5857 114.301 59.6692 114.02 59.6889H114.02ZM113.259 56.8574C113.063 56.9822 112.909 57.1623 112.816 57.3748C112.722 57.5874 112.694 57.8228 112.735 58.0513C112.775 58.2799 112.882 58.4913 113.043 58.6588C113.204 58.8264 113.41 58.9425 113.637 58.9926C113.864 59.0426 114.1 59.0244 114.316 58.9401C114.533 58.8558 114.719 58.7092 114.852 58.519C114.985 58.3287 115.059 58.1033 115.063 57.8713C115.068 57.6392 115.004 57.4109 114.879 57.2153C114.712 56.9532 114.447 56.7684 114.143 56.7013C113.839 56.6342 113.521 56.6903 113.259 56.8574Z" fill="#BDD0FB"/>
<path d="M114.175 62.3133C113.193 62.3784 112.217 62.1159 111.4 61.567C110.584 61.0182 109.972 60.2139 109.661 59.2802C109.543 58.9235 109.469 58.5532 109.443 58.1781C109.378 57.1963 109.641 56.2207 110.19 55.4041C110.739 54.5875 111.543 53.9759 112.476 53.6652C112.776 53.5655 113.086 53.4979 113.4 53.4636L113.473 54.1336C112.868 54.1994 112.288 54.4102 111.783 54.7483C111.277 55.0864 110.861 55.5416 110.569 56.0752C110.562 56.0878 110.555 56.1002 110.549 56.1131C110.535 56.1391 110.521 56.1652 110.508 56.1916C110.206 56.7917 110.07 57.4623 110.116 58.1329C110.138 58.451 110.2 58.765 110.301 59.0676C110.59 59.9373 111.186 60.6718 111.978 61.1336C112.77 61.5953 113.703 61.7526 114.603 61.576C115.502 61.3995 116.306 60.9011 116.865 60.1743C117.424 59.4475 117.698 58.542 117.637 57.6274C117.603 57.1293 117.47 56.6429 117.246 56.1963C117.023 55.7497 116.714 55.3517 116.336 55.0252L116.775 54.5144C117.441 55.0901 117.922 55.8509 118.155 56.7002C118.389 57.5494 118.365 58.4489 118.086 59.2845C117.808 60.1201 117.287 60.8541 116.591 61.3934C115.894 61.9327 115.054 62.2529 114.175 62.3135L114.175 62.3133Z" fill="#BDD0FB"/>
<path d="M160.727 112.607C160.879 112.633 161.032 112.658 161.184 112.683C184.288 116.336 206.011 100.363 209.704 77.0069L167.413 70.3197L160.727 112.607Z" fill="url(#paint0_linear_314_191)"/>
<path d="M167.61 70.2676L139.186 102.295C144.961 107.43 152.196 111.065 160.374 112.468C160.631 112.512 160.889 112.553 161.146 112.592L167.61 70.2676Z" fill="url(#paint1_linear_314_191)"/>
<path d="M167.413 70.319L125.466 61.7428C125.412 62.0059 125.36 62.2698 125.311 62.535C122.484 77.825 128.16 92.7181 138.99 102.348L167.413 70.319Z" fill="#91B3FA"/>
<path d="M172.641 66.7968L214.159 74.8512C217.918 55.4783 207.974 36.6267 191.089 28.3003L172.48 66.474C172.464 66.5054 172.456 66.5398 172.457 66.5747C172.457 66.6096 172.465 66.6439 172.481 66.6751C172.496 66.7063 172.519 66.7335 172.546 66.7547C172.574 66.7758 172.606 66.7902 172.641 66.7968Z" fill="url(#paint2_linear_314_191)"/>
<path d="M167.569 70.4123L185.324 31.5285C181.94 29.919 178.915 29.0223 175.048 28.3329C157.006 25.117 139.594 33.7099 130.739 48.5749L167.569 70.4123Z" fill="#7D97F4"/>
<path d="M130.759 48.1936C128.216 52.3864 126.415 56.986 125.434 61.7905L167.372 70.4105L130.759 48.1936Z" fill="#BDD0FB"/>
<path d="M138.094 41.8912C138.027 41.8912 137.961 41.8713 137.905 41.834C137.85 41.7967 137.806 41.7437 137.78 41.6818C137.755 41.6198 137.748 41.5516 137.761 41.4858C137.774 41.42 137.807 41.3596 137.854 41.3123C142.412 36.7745 147.955 33.3482 154.052 31.2992C160.314 29.2048 167.095 28.6464 173.663 29.6849C174.25 29.7778 174.842 29.8844 175.424 30.0017C175.511 30.02 175.588 30.0722 175.637 30.1469C175.687 30.2217 175.704 30.3128 175.687 30.4006C175.669 30.4883 175.617 30.5655 175.543 30.6153C175.468 30.6651 175.377 30.6834 175.289 30.6663C174.717 30.5509 174.135 30.446 173.557 30.3546C160.717 28.3239 147.549 32.6001 138.333 41.7923C138.302 41.8237 138.264 41.8486 138.223 41.8656C138.182 41.8826 138.138 41.8913 138.094 41.8912Z" fill="#91B3FA"/>
<path d="M138.848 100.861C138.761 100.861 138.677 100.828 138.614 100.768C130.2 92.7674 125.489 81.5541 125.689 70.0034C125.69 69.9146 125.727 69.8299 125.79 69.7676C125.853 69.7053 125.939 69.6704 126.027 69.6703C126.029 69.6703 126.031 69.6703 126.033 69.6703C126.123 69.6718 126.209 69.709 126.271 69.7737C126.334 69.8383 126.368 69.9251 126.367 70.015C126.17 81.3765 130.804 92.4064 139.081 100.277C139.13 100.323 139.164 100.384 139.179 100.45C139.193 100.516 139.187 100.585 139.162 100.648C139.137 100.711 139.094 100.765 139.038 100.803C138.982 100.841 138.915 100.861 138.848 100.861V100.861Z" fill="white"/>
<path d="M177.409 110.884C177.327 110.884 177.247 110.853 177.185 110.799C177.123 110.744 177.083 110.669 177.073 110.587C177.063 110.505 177.083 110.422 177.129 110.354C177.175 110.286 177.245 110.237 177.325 110.216C185.527 108.108 192.773 103.578 198.28 97.1155C198.308 97.0816 198.344 97.0537 198.383 97.0335C198.423 97.0132 198.466 97.001 198.511 96.9974C198.555 96.9939 198.6 96.9991 198.642 97.0128C198.684 97.0265 198.724 97.0484 198.757 97.0773C198.791 97.1062 198.819 97.1414 198.839 97.1811C198.86 97.2207 198.872 97.264 198.876 97.3083C198.879 97.3527 198.874 97.3974 198.86 97.4397C198.846 97.4821 198.825 97.5213 198.796 97.5552C193.198 104.125 185.832 108.73 177.494 110.873C177.466 110.88 177.438 110.884 177.409 110.884Z" fill="url(#paint3_linear_314_191)"/>
<path d="M182.576 50.304C182.518 50.3039 182.461 50.2891 182.411 50.2611C182.361 50.233 182.318 50.1926 182.288 50.1436C182.258 50.0946 182.24 50.0387 182.237 49.9812C182.235 49.9236 182.247 49.8663 182.272 49.8146L191.966 30.2246L192.283 30.4181C195.469 32.3681 198.405 34.6135 201.523 37.4853C201.589 37.5462 201.628 37.6309 201.632 37.7208C201.635 37.8106 201.603 37.8982 201.542 37.9644C201.481 38.0305 201.397 38.0697 201.307 38.0734C201.217 38.077 201.129 38.0449 201.063 37.984C198.083 35.2381 195.271 33.0721 192.244 31.1911L182.88 50.1152C182.852 50.1719 182.808 50.2197 182.755 50.253C182.701 50.2864 182.639 50.3041 182.576 50.304Z" fill="#91B3FA"/>
<path d="M196.986 69.9491C196.965 69.9491 196.944 69.9471 196.924 69.9432L175.06 65.8581C174.983 65.8436 174.909 65.8113 174.846 65.7636C174.783 65.716 174.732 65.6543 174.696 65.5835C174.661 65.5127 174.642 65.4347 174.642 65.3555C174.642 65.2763 174.66 65.1982 174.695 65.1273L176.668 61.1426C176.688 61.1028 176.715 61.0671 176.749 61.0379C176.782 61.0086 176.821 60.9862 176.864 60.9719C176.906 60.9577 176.95 60.9519 176.995 60.9549C177.039 60.9578 177.082 60.9695 177.122 60.9893C177.162 61.009 177.198 61.0364 177.227 61.07C177.256 61.1035 177.279 61.1424 177.293 61.1846C177.307 61.2267 177.313 61.2713 177.31 61.3157C177.307 61.3601 177.295 61.4035 177.276 61.4434L175.4 65.232L197.048 69.2767C197.131 69.2921 197.206 69.3381 197.257 69.4055C197.307 69.4729 197.331 69.5569 197.324 69.641C197.316 69.7251 197.277 69.8033 197.215 69.8603C197.152 69.9172 197.071 69.9488 196.986 69.9489L196.986 69.9491Z" fill="#91B3FA"/>
<path d="M188.989 145.68L214.885 96.0681H209.579C208.601 96.0681 208.063 94.9306 208.683 94.1743L236.284 60.5353C237.48 59.0773 239.843 60.0021 239.732 61.8846L237.792 94.7796C237.765 95.2257 237.648 95.6617 237.448 96.0611C237.247 96.4604 236.967 96.8147 236.625 97.1022C236.283 97.3898 235.886 97.6045 235.458 97.7334C235.03 97.8622 234.581 97.9025 234.137 97.8517L230.438 97.4283L204.743 153.073C204.416 153.783 203.892 154.383 203.234 154.805C202.575 155.226 201.81 155.449 201.029 155.449H192.123L188.989 145.68Z" fill="url(#paint4_linear_314_191)"/>
<path d="M167.578 110.885L185.86 151.497C186.39 152.674 187.249 153.674 188.334 154.375C189.418 155.076 190.682 155.449 191.974 155.449H201.399C202.013 155.449 202.616 155.285 203.145 154.973C203.674 154.662 204.11 154.214 204.408 153.677L204.743 153.073C204.246 153.073 203.759 152.936 203.336 152.676C202.912 152.417 202.569 152.046 202.343 151.603L177.984 103.875L167.578 110.885Z" fill="url(#paint5_linear_314_191)"/>
<path d="M180.444 108.696C180.011 108.354 179.511 108.105 178.977 107.966C178.442 107.826 177.885 107.799 177.339 107.885C176.794 107.972 176.272 108.171 175.807 108.469C175.342 108.768 174.944 109.159 174.638 109.619L147.758 150.004C146.698 151.597 145.261 152.903 143.575 153.806C141.888 154.709 140.005 155.182 138.092 155.182H134.309L131.231 146.315C131.231 146.315 156.22 107.998 162.661 102.202C162.661 102.202 169.075 96.4213 175.4 100.792C177.07 101.947 178.339 103.595 179.114 105.472L180.444 108.696Z" fill="url(#paint6_linear_314_191)"/>
<path d="M101.995 122.466C101.995 122.466 106.495 116.842 115.214 115.967C115.214 115.967 119.355 117.378 127.606 132.162C135.856 146.945 141.332 153.686 147.758 150.004L147.226 150.887C146.364 152.319 145.147 153.503 143.692 154.325C142.238 155.147 140.595 155.579 138.924 155.579H135.37C131.457 155.579 128.059 149.551 125.774 146.375C119.353 137.449 105.94 123.852 101.995 122.466Z" fill="url(#paint7_linear_314_191)"/>
<path d="M236.618 72.2836C236.608 72.2836 236.598 72.283 236.589 72.2819C236.555 72.2782 236.523 72.2679 236.494 72.2518C236.465 72.2356 236.439 72.2138 236.418 72.1877C236.398 72.1616 236.382 72.1316 236.373 72.0995C236.364 72.0674 236.361 72.0338 236.365 72.0007L236.547 70.3944C236.556 70.3288 236.59 70.2693 236.642 70.2286C236.695 70.188 236.761 70.1694 236.827 70.1769C236.893 70.1844 236.953 70.2173 236.995 70.2686C237.037 70.32 237.057 70.3856 237.051 70.4517L236.87 72.058C236.863 72.12 236.833 72.1772 236.787 72.2188C236.74 72.2604 236.68 72.2834 236.618 72.2836Z" fill="#91B3FA"/>
<path d="M213.577 92.5588C213.53 92.5588 213.483 92.5455 213.443 92.5204C213.403 92.4953 213.37 92.4594 213.349 92.4168C213.328 92.3742 213.32 92.3265 213.325 92.2793C213.329 92.2321 213.347 92.1871 213.376 92.1495L236.167 62.5356C236.294 62.3705 236.472 62.2515 236.673 62.1969C236.874 62.1423 237.087 62.155 237.28 62.2332C237.474 62.3113 237.636 62.4505 237.742 62.6296C237.849 62.8086 237.894 63.0176 237.87 63.2246L237.468 66.7743C237.465 66.8081 237.456 66.841 237.44 66.8709C237.424 66.9009 237.402 66.9274 237.376 66.9489C237.35 66.9703 237.319 66.9863 237.287 66.9959C237.254 67.0054 237.22 67.0084 237.186 67.0046C237.153 67.0008 237.12 66.9902 237.09 66.9736C237.061 66.957 237.035 66.9346 237.014 66.9078C236.993 66.881 236.978 66.8503 236.969 66.8176C236.961 66.7848 236.959 66.7506 236.963 66.717L237.365 63.1674C237.376 63.0707 237.355 62.9731 237.306 62.8896C237.256 62.806 237.18 62.741 237.09 62.7045C237 62.6681 236.9 62.6621 236.806 62.6876C236.712 62.7131 236.629 62.7686 236.57 62.8457L213.779 92.4597C213.755 92.4906 213.725 92.5156 213.69 92.5328C213.655 92.55 213.616 92.5589 213.577 92.5588Z" fill="#91B3FA"/>
<path d="M161.874 123.604C161.828 123.604 161.782 123.591 161.743 123.568C161.703 123.544 161.671 123.51 161.649 123.469C161.628 123.428 161.618 123.382 161.62 123.336C161.622 123.29 161.637 123.246 161.663 123.207L173.45 105.736C173.655 105.432 173.937 105.188 174.267 105.029C174.596 104.869 174.962 104.8 175.328 104.827C175.693 104.855 176.044 104.979 176.346 105.186C176.648 105.394 176.89 105.678 177.047 106.009C177.061 106.039 177.07 106.072 177.072 106.105C177.074 106.139 177.069 106.172 177.058 106.204C177.046 106.236 177.029 106.265 177.007 106.29C176.984 106.315 176.957 106.335 176.927 106.349C176.896 106.364 176.863 106.372 176.83 106.374C176.796 106.375 176.763 106.37 176.731 106.359C176.7 106.347 176.671 106.33 176.646 106.307C176.621 106.284 176.601 106.257 176.587 106.226C176.469 105.976 176.286 105.762 176.058 105.605C175.83 105.449 175.565 105.355 175.289 105.334C175.013 105.313 174.737 105.366 174.488 105.486C174.239 105.607 174.026 105.791 173.872 106.02L162.085 123.492C162.062 123.526 162.03 123.555 161.993 123.574C161.956 123.594 161.915 123.604 161.874 123.604Z" fill="#91B3FA"/>
<path d="M158.811 128.144C158.765 128.144 158.719 128.132 158.68 128.108C158.64 128.084 158.608 128.05 158.586 128.009C158.565 127.969 158.555 127.923 158.557 127.877C158.559 127.831 158.574 127.786 158.6 127.748L159.356 126.627C159.374 126.6 159.398 126.576 159.426 126.557C159.454 126.538 159.485 126.525 159.518 126.519C159.551 126.512 159.585 126.513 159.618 126.519C159.651 126.526 159.682 126.539 159.71 126.558C159.737 126.576 159.761 126.6 159.78 126.628C159.798 126.656 159.811 126.688 159.817 126.721C159.823 126.754 159.823 126.787 159.816 126.82C159.809 126.853 159.796 126.884 159.777 126.912L159.022 128.032C158.998 128.067 158.967 128.095 158.93 128.115C158.893 128.134 158.852 128.144 158.811 128.144Z" fill="#91B3FA"/>
<path d="M196.417 54.0153C198.254 51.0096 197.306 47.0843 194.3 45.2479C191.294 43.4115 187.369 44.3594 185.533 47.3651C183.696 50.3708 184.644 54.2961 187.65 56.1325C190.656 57.9689 194.581 57.021 196.417 54.0153Z" fill="url(#paint8_linear_314_191)"/>
<path d="M195.335 55.0503C197.743 52.6425 197.743 48.7386 195.335 46.3308C192.927 43.923 189.023 43.923 186.616 46.3308C184.208 48.7386 184.208 52.6425 186.616 55.0503C189.023 57.4581 192.927 57.4581 195.335 55.0503Z" fill="url(#paint9_linear_314_191)"/>
<path opacity="0.78" d="M185.799 48.5463C185.763 48.5477 185.729 48.5401 185.697 48.5242C185.666 48.5082 185.639 48.4846 185.619 48.4554C185.6 48.4262 185.588 48.3925 185.585 48.3574C185.582 48.3223 185.588 48.2871 185.603 48.2551C186.051 47.2585 186.769 46.4069 187.676 45.7961C188.582 45.1854 189.641 44.8397 190.733 44.7979C191.09 44.7832 191.447 44.8006 191.8 44.8498C191.854 44.8573 191.903 44.8861 191.936 44.9298C191.969 44.9734 191.983 45.0283 191.975 45.0825C191.968 45.1366 191.939 45.1855 191.895 45.2184C191.852 45.2514 191.797 45.2656 191.743 45.258C191.414 45.2124 191.082 45.1963 190.75 45.2099C189.734 45.2488 188.749 45.5704 187.906 46.1384C187.063 46.7065 186.395 47.4986 185.978 48.4255C185.962 48.4603 185.937 48.49 185.905 48.5113C185.874 48.5326 185.837 48.5447 185.799 48.5463Z" fill="white"/>
<path opacity="0.78" d="M194.805 54.5092C196.843 52.4713 196.843 49.1671 194.805 47.1292C192.767 45.0913 189.463 45.0913 187.425 47.1292C185.387 49.1671 185.387 52.4713 187.425 54.5092C189.463 56.5471 192.767 56.5471 194.805 54.5092Z" fill="white"/>
<path d="M190.763 54.7164L190.739 54.1492C190.192 54.1517 189.648 54.057 189.134 53.8695C189.061 53.8402 189.001 53.7858 188.964 53.716C188.928 53.6463 188.918 53.5659 188.936 53.4895L189.059 52.9552C189.069 52.9091 189.09 52.8659 189.118 52.8284C189.147 52.7909 189.184 52.76 189.225 52.7377C189.267 52.7155 189.313 52.7024 189.36 52.6993C189.407 52.6963 189.454 52.7034 189.499 52.7202C189.972 52.9 190.475 52.9846 190.981 52.9692C191.55 52.9458 191.967 52.7353 191.951 52.3392C191.936 51.9821 191.599 51.7832 190.799 51.6034C189.657 51.3409 188.826 50.8819 188.785 49.8875C188.748 48.9897 189.376 48.2775 190.508 48.0471L190.484 47.4798C190.481 47.3921 190.512 47.3066 190.572 47.2421C190.631 47.1776 190.714 47.1393 190.801 47.1357L191.135 47.122C191.222 47.1184 191.308 47.1498 191.372 47.2092C191.437 47.2686 191.475 47.3513 191.479 47.4389L191.5 47.9483C191.93 47.9414 192.358 48.0003 192.771 48.123C192.85 48.1479 192.917 48.2017 192.958 48.2738C192.999 48.3458 193.011 48.4308 192.992 48.5116L192.88 49.0057C192.87 49.0506 192.85 49.0929 192.823 49.1299C192.795 49.1669 192.76 49.1977 192.72 49.2204C192.68 49.243 192.636 49.257 192.59 49.2615C192.544 49.2659 192.498 49.2607 192.454 49.2462C192.053 49.1121 191.63 49.0532 191.207 49.0724C190.532 49.1001 190.35 49.388 190.36 49.639C190.373 49.9479 190.787 50.1437 191.677 50.3779C192.947 50.7029 193.49 51.2028 193.529 52.1391C193.564 52.9983 192.959 53.7968 191.731 54.0406L191.757 54.6756C191.759 54.719 191.752 54.7624 191.737 54.8031C191.722 54.8439 191.699 54.8814 191.67 54.9133C191.64 54.9453 191.605 54.9711 191.565 54.9894C191.526 55.0076 191.483 55.0179 191.44 55.0197L191.107 55.0334C191.019 55.037 190.933 55.0055 190.869 54.9461C190.805 54.8867 190.766 54.804 190.763 54.7164Z" fill="url(#paint10_linear_314_191)"/>
<path d="M207.164 46.2629C212.913 46.2629 217.573 41.6029 217.573 35.8546C217.573 30.1062 212.913 25.4463 207.164 25.4463C201.416 25.4463 196.756 30.1062 196.756 35.8546C196.756 41.6029 201.416 46.2629 207.164 46.2629Z" fill="url(#paint11_linear_314_191)"/>
<path d="M214.279 42.9697C218.209 39.0401 218.209 32.6691 214.279 28.7395C210.35 24.81 203.979 24.81 200.049 28.7395C196.12 32.6691 196.12 39.0401 200.049 42.9697C203.979 46.8993 210.35 46.8993 214.279 42.9697Z" fill="url(#paint12_linear_314_191)"/>
<path opacity="0.78" d="M198.71 32.2122C198.677 32.2135 198.645 32.2064 198.615 32.1915C198.586 32.1765 198.561 32.1543 198.542 32.127C198.524 32.0996 198.513 32.068 198.51 32.0351C198.507 32.0022 198.513 31.9692 198.527 31.9392C199.248 30.3369 200.402 28.9678 201.859 27.9858C203.317 27.0038 205.019 26.4479 206.775 26.3807C207.348 26.357 207.922 26.385 208.49 26.4644C208.515 26.4677 208.539 26.476 208.562 26.4888C208.584 26.5016 208.603 26.5187 208.618 26.539C208.634 26.5593 208.645 26.5824 208.652 26.6071C208.658 26.6318 208.659 26.6575 208.656 26.6828C208.652 26.708 208.644 26.7323 208.631 26.7543C208.618 26.7763 208.601 26.7954 208.58 26.8107C208.56 26.826 208.537 26.8371 208.512 26.8433C208.487 26.8495 208.461 26.8508 208.436 26.8471C207.891 26.7711 207.34 26.7443 206.79 26.7671C205.106 26.8315 203.473 27.3648 202.075 28.3067C200.678 29.2487 199.57 30.5621 198.878 32.099C198.863 32.1315 198.84 32.1593 198.81 32.1793C198.781 32.1993 198.746 32.2107 198.71 32.2122Z" fill="white"/>
<path opacity="0.78" d="M213.414 42.0867C216.74 38.7609 216.74 33.3685 213.414 30.0427C210.088 26.7168 204.696 26.7168 201.37 30.0427C198.044 33.3685 198.044 38.7609 201.37 42.0867C204.696 45.4126 210.088 45.4126 213.414 42.0867Z" fill="white"/>
<path d="M206.817 42.4248L206.779 41.499C205.812 41.5001 204.849 41.3115 204.158 41.0426C204.039 40.9949 203.941 40.906 203.882 40.7921C203.823 40.6782 203.807 40.547 203.836 40.4221L204.036 39.5501C204.054 39.475 204.087 39.4044 204.134 39.3432C204.181 39.2819 204.24 39.2315 204.308 39.1952C204.376 39.1588 204.451 39.1375 204.528 39.1326C204.605 39.1278 204.682 39.1394 204.754 39.1668C205.438 39.4211 206.278 39.6101 207.173 39.5733C208.103 39.5351 208.783 39.1914 208.757 38.5455C208.733 37.9626 208.183 37.638 206.877 37.3445C205.013 36.9161 203.656 36.1669 203.59 34.5442C203.53 33.0789 204.555 31.9163 206.402 31.5406L206.364 30.6148C206.358 30.4717 206.409 30.3322 206.506 30.2269C206.603 30.1216 206.738 30.0591 206.881 30.0532L207.425 30.0308C207.568 30.025 207.707 30.0762 207.813 30.1732C207.918 30.2702 207.98 30.405 207.986 30.5481L208.02 31.3793C208.915 31.3784 209.571 31.5043 210.095 31.6643C210.224 31.705 210.333 31.7928 210.4 31.9104C210.467 32.028 210.487 32.1666 210.457 32.2985L210.273 33.1049C210.256 33.1782 210.225 33.2473 210.18 33.3077C210.135 33.368 210.078 33.4183 210.013 33.4553C209.947 33.4922 209.875 33.5151 209.8 33.5223C209.725 33.5296 209.649 33.5211 209.578 33.4973C208.923 33.2786 208.233 33.1825 207.544 33.2137C206.441 33.259 206.144 33.7287 206.161 34.1387C206.182 34.6428 206.858 34.9622 208.31 35.3445C210.383 35.8748 211.269 36.6906 211.332 38.2188C211.389 39.621 210.401 40.9241 208.398 41.3221L208.44 42.3582C208.446 42.5013 208.395 42.6408 208.298 42.7461C208.201 42.8514 208.066 42.9139 207.923 42.9198L207.379 42.9421C207.308 42.9451 207.237 42.934 207.171 42.9096C207.104 42.8852 207.043 42.8479 206.991 42.7999C206.939 42.7518 206.897 42.694 206.867 42.6296C206.837 42.5653 206.82 42.4957 206.817 42.4248Z" fill="url(#paint13_linear_314_191)"/>
<path d="M222.864 66.361C227.047 62.1785 227.047 55.3972 222.864 51.2147C218.682 47.0322 211.9 47.0322 207.718 51.2147C203.535 55.3972 203.535 62.1785 207.718 66.361C211.9 70.5435 218.682 70.5435 222.864 66.361Z" fill="url(#paint14_linear_314_191)"/>
<path d="M222.612 66.1092C226.656 62.0657 226.656 55.51 222.612 51.4665C218.569 47.423 212.013 47.423 207.97 51.4665C203.926 55.51 203.926 62.0657 207.97 66.1092C212.013 70.1527 218.569 70.1527 222.612 66.1092Z" fill="url(#paint15_linear_314_191)"/>
<path opacity="0.78" d="M206.592 55.0342C206.559 55.0355 206.526 55.0284 206.496 55.0135C206.467 54.9986 206.442 54.9764 206.423 54.949C206.405 54.9216 206.394 54.89 206.391 54.8571C206.388 54.8243 206.394 54.7912 206.408 54.7612C207.15 53.1135 208.337 51.7055 209.835 50.6957C211.334 49.6859 213.085 49.1143 214.89 49.0452C215.48 49.0209 216.07 49.0497 216.654 49.1312C216.705 49.1384 216.751 49.1653 216.782 49.2063C216.813 49.2472 216.826 49.2987 216.819 49.3494C216.812 49.4002 216.785 49.446 216.744 49.4769C216.703 49.5077 216.652 49.5211 216.601 49.5139C216.04 49.4357 215.473 49.4081 214.906 49.4315C213.172 49.4978 211.491 50.0468 210.052 51.0166C208.612 51.9863 207.472 53.3385 206.76 54.9209C206.745 54.9535 206.721 54.9814 206.692 55.0014C206.662 55.0214 206.627 55.0328 206.592 55.0342Z" fill="white"/>
<path opacity="0.78" d="M221.722 65.2006C225.145 61.7783 225.144 56.2297 221.722 52.8075C218.3 49.3852 212.751 49.3852 209.329 52.8075C205.907 56.2297 205.907 61.7783 209.329 65.2006C212.751 68.6229 218.3 68.6229 221.722 65.2006Z" fill="white"/>
<path d="M214.934 65.5486L214.895 64.5959C213.9 64.597 212.908 64.403 212.198 64.1263C212.075 64.0771 211.975 63.9856 211.914 63.8685C211.853 63.7513 211.836 63.6163 211.867 63.4878L212.072 62.5905C212.09 62.5132 212.124 62.4406 212.173 62.3777C212.221 62.3147 212.282 62.2628 212.352 62.2254C212.422 62.188 212.499 62.1661 212.578 62.161C212.658 62.156 212.737 62.168 212.811 62.1961C213.515 62.4578 214.379 62.6522 215.3 62.6143C216.257 62.575 216.957 62.2214 216.93 61.5567C216.905 60.9567 216.339 60.623 214.995 60.321C213.077 59.8801 211.681 59.1093 211.613 57.4395C211.551 55.9317 212.606 54.7354 214.506 54.3488L214.467 53.3961C214.464 53.3232 214.475 53.2505 214.5 53.182C214.526 53.1135 214.564 53.0506 214.613 52.997C214.663 52.9433 214.722 52.8999 214.789 52.8692C214.855 52.8386 214.926 52.8213 214.999 52.8183L215.559 52.7953C215.632 52.7923 215.705 52.8037 215.773 52.8288C215.841 52.8539 215.904 52.8923 215.958 52.9417C216.012 52.9911 216.055 53.0506 216.086 53.1168C216.116 53.183 216.134 53.2546 216.137 53.3275L216.172 54.1829C217.092 54.1819 217.768 54.3115 218.306 54.4763C218.439 54.5181 218.551 54.6085 218.62 54.7295C218.689 54.8505 218.71 54.9931 218.679 55.1288L218.49 55.9588C218.473 56.0343 218.44 56.1054 218.394 56.1675C218.348 56.2296 218.289 56.2814 218.222 56.3194C218.154 56.3575 218.08 56.381 218.003 56.3884C217.926 56.3959 217.848 56.3871 217.774 56.3627C217.1 56.1376 216.391 56.0387 215.681 56.0708C214.546 56.1174 214.241 56.6008 214.259 57.0224C214.28 57.5412 214.975 57.8698 216.469 58.2632C218.603 58.8088 219.514 59.6482 219.579 61.2208C219.638 62.6636 218.622 64.0045 216.56 64.4141L216.604 65.4802C216.607 65.5531 216.595 65.6259 216.57 65.6943C216.545 65.7628 216.507 65.8257 216.457 65.8794C216.408 65.933 216.348 65.9764 216.282 66.0071C216.216 66.0377 216.144 66.0551 216.071 66.0581L215.511 66.0811C215.364 66.087 215.221 66.0342 215.112 65.9344C215.004 65.8345 214.94 65.6957 214.934 65.5486Z" fill="url(#paint16_linear_314_191)"/>
<path d="M236.485 40.6006C236.585 35.871 232.833 31.9552 228.104 31.8543C223.374 31.7534 219.458 35.5057 219.357 40.2352C219.257 44.9648 223.009 48.8806 227.738 48.9815C232.468 49.0824 236.384 45.3301 236.485 40.6006Z" fill="url(#paint17_linear_314_191)"/>
<path d="M233.777 46.2734C237.011 43.0396 237.011 37.7966 233.777 34.5628C230.543 31.329 225.3 31.329 222.067 34.5628C218.833 37.7966 218.833 43.0396 222.067 46.2734C225.3 49.5072 230.543 49.5072 233.777 46.2734Z" fill="url(#paint18_linear_314_191)"/>
<path opacity="0.78" d="M220.967 37.4724C220.931 37.4738 220.895 37.466 220.863 37.4497C220.831 37.4334 220.803 37.4092 220.783 37.3793C220.763 37.3495 220.751 37.3149 220.748 37.2791C220.745 37.2432 220.751 37.2071 220.766 37.1744C221.364 35.847 222.32 34.7128 223.527 33.8993C224.734 33.0859 226.145 32.6254 227.599 32.5697C228.074 32.5501 228.55 32.5733 229.02 32.639C229.048 32.6425 229.075 32.6516 229.099 32.6655C229.123 32.6795 229.144 32.6981 229.161 32.7202C229.178 32.7424 229.19 32.7677 229.197 32.7947C229.204 32.8217 229.206 32.8498 229.202 32.8774C229.198 32.905 229.189 32.9316 229.175 32.9556C229.16 32.9795 229.142 33.0005 229.119 33.0172C229.097 33.0338 229.071 33.0459 229.044 33.0527C229.017 33.0595 228.989 33.0608 228.962 33.0567C228.516 32.9947 228.066 32.9728 227.617 32.9913C226.24 33.044 224.906 33.4798 223.763 34.2496C222.621 35.0194 221.716 36.0927 221.15 37.3487C221.134 37.3843 221.109 37.4147 221.076 37.4366C221.044 37.4584 221.006 37.4708 220.967 37.4724Z" fill="white"/>
<path opacity="0.78" d="M233.065 45.5468C235.802 42.8097 235.802 38.3721 233.065 35.6351C230.328 32.8981 225.891 32.8981 223.154 35.6351C220.417 38.3721 220.417 42.8097 223.154 45.5468C225.891 48.2838 230.328 48.2838 233.065 45.5468Z" fill="white"/>
<path d="M227.636 45.8252L227.605 45.0634C226.809 45.0642 226.016 44.9091 225.448 44.6877C225.35 44.6484 225.27 44.5752 225.221 44.4816C225.172 44.3879 225.159 44.2798 225.183 44.1771L225.348 43.4595C225.362 43.3977 225.389 43.3396 225.428 43.2893C225.466 43.2389 225.515 43.1974 225.571 43.1675C225.627 43.1376 225.689 43.12 225.752 43.116C225.816 43.112 225.879 43.1215 225.939 43.1441C226.574 43.3855 227.25 43.4991 227.929 43.4786C228.694 43.4471 229.254 43.1643 229.232 42.6327C229.213 42.153 228.76 41.8859 227.685 41.6444C226.151 41.2918 225.035 40.6753 224.98 39.3399C224.931 38.134 225.774 37.1773 227.294 36.8681L227.263 36.1062C227.258 35.9884 227.3 35.8736 227.38 35.7869C227.46 35.7003 227.571 35.6489 227.689 35.644L228.136 35.6256C228.194 35.6232 228.253 35.6323 228.307 35.6524C228.362 35.6725 228.413 35.7032 228.455 35.7427C228.498 35.7823 228.533 35.8299 228.558 35.8828C228.582 35.9358 228.596 35.993 228.598 36.0513L228.627 36.7354C229.363 36.7346 229.903 36.8383 230.333 36.97C230.44 37.0035 230.529 37.0758 230.585 37.1726C230.64 37.2693 230.657 37.3834 230.631 37.4919L230.48 38.1556C230.467 38.2159 230.441 38.2728 230.404 38.3225C230.367 38.3721 230.32 38.4135 230.266 38.4439C230.212 38.4744 230.152 38.4932 230.091 38.4991C230.029 38.5051 229.967 38.4981 229.908 38.4785C229.369 38.2985 228.802 38.2194 228.234 38.2451C227.326 38.2824 227.083 38.669 227.096 39.0062C227.113 39.4212 227.67 39.6839 228.865 39.9985C230.571 40.4348 231.299 41.1062 231.351 42.3639C231.399 43.5178 230.586 44.5902 228.937 44.9177L228.972 45.7703C228.974 45.8286 228.965 45.8868 228.945 45.9416C228.925 45.9964 228.894 46.0467 228.855 46.0896C228.815 46.1325 228.768 46.1672 228.715 46.1917C228.662 46.2163 228.604 46.2301 228.546 46.2325L228.099 46.2509C227.981 46.2557 227.866 46.2136 227.779 46.1338C227.693 46.0539 227.641 45.9429 227.636 45.8252Z" fill="url(#paint19_linear_314_191)"/>
<path d="M133.172 155.405C131.136 155.581 127.603 155.867 124.818 155.989C123.143 156.063 122.18 155.899 121.624 155.677C121.625 155.739 121.627 155.798 121.629 155.853C121.637 155.996 121.697 156.13 121.798 156.23C121.9 156.331 122.034 156.39 122.177 156.397C127.44 156.691 131.625 156.499 133.116 156.408C133.186 156.405 133.254 156.383 133.314 156.346C133.374 156.308 133.423 156.256 133.456 156.194C133.49 156.132 133.507 156.063 133.506 155.992C133.505 155.922 133.485 155.853 133.45 155.792C133.366 155.657 133.274 155.527 133.172 155.405Z" fill="url(#paint20_linear_314_191)"/>
<path d="M124.818 155.989C127.603 155.867 131.136 155.581 133.172 155.405C131.17 152.949 124.818 151.294 124.818 151.294H123.023C121.789 153.073 121.611 154.767 121.624 155.677C122.179 155.899 123.143 156.063 124.818 155.989Z" fill="url(#paint21_linear_314_191)"/>
<path d="M122.721 148.365L122.889 151.688C122.898 151.864 122.967 152.031 123.085 152.161C123.204 152.291 123.363 152.376 123.537 152.402C123.989 152.469 124.45 152.431 124.885 152.29C125.038 152.24 125.175 152.149 125.281 152.028C125.388 151.906 125.459 151.759 125.488 151.6L126.069 148.365L122.721 148.365Z" fill="url(#paint22_linear_314_191)"/>
<path d="M101.897 159.238C101.014 159.079 100.615 158.486 100.448 157.852C100.446 157.858 100.445 157.864 100.444 157.869C100.314 158.538 100.615 159.23 101.217 159.56C101.945 159.958 102.741 160.026 103.358 159.993C103.684 159.978 104.001 159.883 104.281 159.716C104.561 159.549 104.795 159.315 104.963 159.036L104.968 159.028C104.303 159.453 103.37 159.503 101.897 159.238Z" fill="url(#paint23_linear_314_191)"/>
<path d="M106.06 149.389H104.58C102.326 149.329 100.911 155.473 100.447 157.852C100.615 158.486 101.014 159.078 101.897 159.237C103.369 159.503 104.303 159.453 104.968 159.027C106.186 156.957 106.789 153.924 107.08 152.154C107.41 150.141 106.06 149.389 106.06 149.389Z" fill="url(#paint24_linear_314_191)"/>
<path d="M104.77 146.305L103.948 149.573C103.9 149.768 103.92 149.973 104.003 150.156C104.087 150.338 104.231 150.487 104.41 150.578C104.87 150.814 105.517 151.061 106.111 150.99C106.248 150.972 106.377 150.916 106.484 150.829C106.591 150.741 106.671 150.626 106.716 150.496L107.922 147.057L104.77 146.305Z" fill="url(#paint25_linear_314_191)"/>
<path d="M133.673 103.265C133.673 103.265 126.331 149.162 126.452 149.414C126.452 149.414 124.424 150.336 122.213 149.531C122.213 149.531 122.877 124.996 124.433 115.589C124.433 115.589 111.902 137.518 107.922 148.445C107.922 148.445 105.847 148.198 104.129 147.067C104.129 147.067 117.621 107.595 121.221 102.338L133.673 103.265Z" fill="url(#paint26_linear_314_191)"/>
<path d="M124.726 115.35C124.685 115.35 124.645 115.339 124.611 115.317C124.562 115.287 124.527 115.238 124.515 115.182C124.502 115.126 124.512 115.067 124.542 115.018L127.286 110.636C127.302 110.611 127.322 110.589 127.346 110.572C127.371 110.556 127.398 110.544 127.427 110.538L129.446 110.132C129.502 110.121 129.56 110.133 129.607 110.165C129.655 110.197 129.687 110.246 129.699 110.302C129.71 110.358 129.699 110.416 129.668 110.464C129.636 110.511 129.588 110.545 129.532 110.557L127.604 110.945L124.91 115.248C124.89 115.279 124.863 115.305 124.831 115.323C124.799 115.341 124.763 115.35 124.726 115.35Z" fill="url(#paint27_linear_314_191)"/>
<path d="M167.367 58.3221C167.367 58.3221 162.413 59.4149 159.399 60.8063C158.802 61.0824 158.324 61.5631 158.051 62.1613C157.15 64.1355 154.454 69.0863 149.224 71.4488C149.977 72.4484 151.19 74.5276 151.718 78.0222C154.859 75.6845 157.57 71.7805 158.872 65.3778C158.872 65.3778 159.864 65.9167 161.1 65.3161C161.754 64.9988 162.508 64.5487 163.074 64.1948C163.64 63.8474 164.051 63.2956 164.222 62.6535C164.437 61.808 164.31 61.0645 164.31 60.2669L166.857 59.4779C166.857 59.4779 167.623 59.1889 167.367 58.3221Z" fill="url(#paint28_linear_314_191)"/>
<path d="M151.718 78.0222C151.19 74.5276 149.977 72.4484 149.224 71.4488C145.976 72.9165 141.75 73.3858 136.369 71.5211C135.872 71.3499 135.355 71.2478 134.831 71.2178C131.966 71.0498 122.526 70.7434 114.715 73.3241C113.904 73.5911 113.16 74.026 112.529 74.6003C111.898 75.1746 111.395 75.8755 111.053 76.6572C108.94 81.5064 105.519 92.5496 115.016 98.1248C115.627 96.6031 116.395 95.1494 117.308 93.7874C115.779 91.2074 115.326 87.6842 118.04 83.0959C120.019 88.4396 120.947 96.2367 121.141 99.6873C121.205 100.824 121.006 101.959 120.56 103.006L120.511 103.121C120.489 103.174 120.478 103.231 120.48 103.288C120.482 103.346 120.497 103.402 120.524 103.453C120.55 103.504 120.587 103.549 120.633 103.584C120.678 103.62 120.731 103.644 120.787 103.657C126.133 104.858 131.694 104.532 133.355 104.394C133.499 104.383 133.636 104.326 133.746 104.232C133.856 104.138 133.933 104.011 133.967 103.871C136.566 92.9163 136.572 85.4438 135.936 80.72C138.368 81.2637 145.805 82.4234 151.718 78.0222Z" fill="url(#paint29_linear_314_191)"/>
<path d="M135.947 81.0146C135.894 81.0145 135.843 80.9954 135.804 80.9608C135.764 80.9261 135.739 80.8783 135.732 80.8263C135.121 76.2139 133.878 74.2012 133.865 74.1812C133.85 74.1572 133.84 74.1304 133.835 74.1023C133.83 74.0743 133.831 74.0455 133.837 74.0177C133.843 73.9899 133.855 73.9637 133.871 73.9404C133.888 73.9171 133.908 73.8972 133.932 73.882C133.957 73.8667 133.983 73.8564 134.011 73.8515C134.039 73.8466 134.068 73.8473 134.096 73.8535C134.124 73.8597 134.15 73.8713 134.173 73.8877C134.197 73.9041 134.216 73.9249 134.232 73.949C134.285 74.0324 135.537 76.048 136.162 80.7694C136.169 80.8264 136.154 80.884 136.119 80.9297C136.084 80.9753 136.032 81.0052 135.975 81.0128C135.966 81.014 135.956 81.0146 135.947 81.0146Z" fill="url(#paint30_linear_314_191)"/>
<path d="M122.752 64.8363C122.752 64.8363 122.211 70.5552 121.735 72.2467C121.7 72.3714 121.708 72.5043 121.757 72.624C121.807 72.7438 121.895 72.8435 122.008 72.9072C122.816 73.369 124.754 74.1222 127.406 72.8227C127.615 72.7191 127.79 72.5569 127.908 72.3559C128.027 72.1548 128.084 71.9237 128.074 71.6905L127.84 66.1643L122.752 64.8363Z" fill="url(#paint31_linear_314_191)"/>
<path d="M127.957 57.5203C127.957 57.5203 129.687 61.4942 129.803 63.5803C129.919 65.6663 130.369 67.0195 127.957 67.4395C125.545 67.8595 123.513 66.6579 122.413 64.5803C122.413 64.5803 120.688 61.3788 121.075 60.0677C121.462 58.7566 127.957 57.5203 127.957 57.5203Z" fill="url(#paint32_linear_314_191)"/>
<path d="M123.237 63.0863L123.374 63.0258C123.416 63.0077 123.453 62.9812 123.484 62.9482C123.515 62.9151 123.538 62.876 123.553 62.8334C123.569 62.7908 123.575 62.7455 123.572 62.7004C123.569 62.6553 123.557 62.6113 123.536 62.571C123.196 61.9139 122.533 60.4082 123.389 60.0569C124.493 59.6042 128.865 58.7126 129.809 57.1612C130.715 55.6701 129.912 53.7454 128.705 53.198C128.666 53.1797 128.622 53.1769 128.582 53.1901C128.541 53.2033 128.508 53.2315 128.487 53.2689L128.387 53.4592C128.371 53.4881 128.348 53.5118 128.319 53.5272C128.29 53.5426 128.258 53.549 128.225 53.5457C128.193 53.5424 128.162 53.5294 128.137 53.5085C128.112 53.4875 128.093 53.4596 128.084 53.4282C128.076 53.3979 128.059 53.3707 128.035 53.3499C128.011 53.3292 127.982 53.3158 127.951 53.3113C127.919 53.3068 127.888 53.3115 127.859 53.3247C127.83 53.338 127.806 53.3592 127.789 53.3859C127.499 53.8501 126.717 54.6025 124.623 54.9889C121.648 55.538 119.681 56.7421 119.632 58.798C119.631 58.8274 119.623 58.856 119.608 58.8811C119.592 58.9061 119.571 58.9266 119.545 58.9403C119.519 58.9541 119.49 58.9607 119.46 58.9594C119.431 58.9581 119.403 58.949 119.378 58.933C119.158 58.7992 118.807 58.7363 118.337 59.1314C117.52 59.8185 117.854 61.6007 119.646 63.0668C119.666 63.0825 119.682 63.1028 119.693 63.1259C119.704 63.1491 119.709 63.1744 119.708 63.2C119.707 63.2256 119.701 63.2506 119.688 63.2731C119.676 63.2955 119.659 63.3148 119.638 63.3293C119.313 63.5407 118.829 64.0436 120.083 64.7143C121.381 65.4078 122.35 65.3509 122.723 65.2893C122.744 65.2857 122.765 65.2776 122.784 65.2655C122.803 65.2535 122.819 65.2378 122.831 65.2193C122.844 65.2009 122.852 65.1801 122.856 65.1583C122.86 65.1364 122.86 65.114 122.855 65.0923L122.457 63.2852C122.451 63.2613 122.452 63.2365 122.457 63.2126C122.463 63.1888 122.474 63.1664 122.489 63.1473C122.504 63.1282 122.524 63.1128 122.546 63.1022C122.568 63.0916 122.592 63.0861 122.617 63.0861L123.237 63.0863Z" fill="url(#paint33_linear_314_191)"/>
<path d="M123.312 63.4676C123.312 63.4676 122.652 60.9292 121.514 61.6409C120.376 62.3526 122.104 64.4852 123.019 64.5802L123.312 63.4676Z" fill="url(#paint34_linear_314_191)"/>
<path d="M160.194 64.7872C160.153 64.7872 160.112 64.7755 160.078 64.7536C160.043 64.7317 160.016 64.7004 159.998 64.6634C159.98 64.6264 159.974 64.5852 159.979 64.5445C159.983 64.5038 160 64.4653 160.026 64.4336C160.213 64.2029 161.876 62.1701 162.516 61.8086C162.749 61.6769 162.888 61.5409 162.918 61.4154C162.931 61.3461 162.921 61.2743 162.889 61.2114L160.935 61.603L159.828 62.5526C159.784 62.5891 159.728 62.6069 159.671 62.6022C159.614 62.5975 159.562 62.5706 159.525 62.5273C159.488 62.484 159.469 62.4279 159.473 62.371C159.477 62.3142 159.503 62.2612 159.546 62.2235L160.696 61.2367C160.724 61.2126 160.758 61.1961 160.794 61.1887L162.957 60.7553C162.999 60.7468 163.043 60.7509 163.082 60.7672C163.122 60.7835 163.156 60.8112 163.18 60.8468C163.338 61.0818 163.391 61.3006 163.34 61.515C163.28 61.7682 163.081 61.9879 162.73 62.1862C162.248 62.4584 160.858 64.0985 160.362 64.7074C160.342 64.7325 160.316 64.7527 160.287 64.7665C160.258 64.7803 160.226 64.7874 160.194 64.7872Z" fill="#F8A570"/>
<path d="M123.228 100.873L130.874 100.968L128.198 98.4487C127.874 98.1428 127.457 97.9541 127.014 97.9125C126.57 97.8709 126.125 97.9788 125.75 98.2192C125.236 98.5487 124.777 98.9576 124.39 99.4307C124.39 99.4307 119.62 97.6876 117.308 93.7874C116.395 95.1494 115.627 96.6031 115.016 98.1248C117.089 99.3417 119.776 100.299 123.228 100.873Z" fill="url(#paint35_linear_314_191)"/>
<path d="M124.052 101.859C124.067 101.86 124.081 101.86 124.096 101.86L143.506 101.839C143.62 101.841 143.733 101.819 143.838 101.776C143.943 101.734 144.039 101.67 144.12 101.59C144.201 101.51 144.265 101.415 144.308 101.31C144.352 101.205 144.374 101.093 144.374 100.979C144.374 100.865 144.351 100.753 144.308 100.648C144.264 100.543 144.199 100.448 144.119 100.368C144.038 100.288 143.942 100.225 143.836 100.183C143.731 100.14 143.618 100.119 143.504 100.12L124.094 100.141C123.869 100.139 123.652 100.226 123.489 100.383C123.327 100.54 123.233 100.754 123.228 100.979C123.222 101.205 123.305 101.423 123.459 101.588C123.614 101.753 123.826 101.85 124.052 101.859H124.052Z" fill="url(#paint36_linear_314_191)"/>
<path d="M160.955 84.4224H144.79C144.208 84.421 143.638 84.5844 143.144 84.8938C142.651 85.2031 142.256 85.6458 142.004 86.1705L134.531 101.849H154.62C154.994 101.85 155.36 101.739 155.67 101.53C155.98 101.321 156.221 101.024 156.361 100.677L162.156 86.1691C162.491 85.3308 161.866 84.4224 160.955 84.4224Z" fill="url(#paint37_linear_314_191)"/>
<path d="M151.987 93.245C152.342 92.1695 152.088 91.1194 151.421 90.8994C150.754 90.6794 149.925 91.373 149.571 92.4485C149.216 93.524 149.47 94.5742 150.137 94.7941C150.805 95.0141 151.633 94.3205 151.987 93.245Z" fill="#91B3FA"/>
<path d="M338.833 152C338.833 152 271.017 180 169.333 180C67.6316 180 -0.166656 152 -0.166656 152L-0.166656 180L338.833 180V152Z" fill="white"/>
<defs>
<linearGradient id="paint0_linear_314_191" x1="207.606" y1="11.9376" x2="172.352" y2="127.529" gradientUnits="userSpaceOnUse">
<stop stop-color="#FF928E"/>
<stop offset="1" stop-color="#FE7062"/>
</linearGradient>
<linearGradient id="paint1_linear_314_191" x1="139.186" y1="91.4298" x2="167.61" y2="91.4298" gradientUnits="userSpaceOnUse">
<stop stop-color="#FEBBBA"/>
<stop offset="1" stop-color="#FF928E"/>
</linearGradient>
<linearGradient id="paint2_linear_314_191" x1="180.141" y1="86.0497" x2="211.42" y2="38.0877" gradientUnits="userSpaceOnUse">
<stop stop-color="#4F52FF"/>
<stop offset="1" stop-color="#4042E2"/>
</linearGradient>
<linearGradient id="paint3_linear_314_191" x1="39488.9" y1="19866" x2="40274.2" y2="8863.55" gradientUnits="userSpaceOnUse">
<stop stop-color="#FEBBBA"/>
<stop offset="1" stop-color="#FF928E"/>
</linearGradient>
<linearGradient id="paint4_linear_314_191" x1="141647" y1="80885" x2="25205.7" y2="211085" gradientUnits="userSpaceOnUse">
<stop stop-color="#4F52FF"/>
<stop offset="1" stop-color="#4042E2"/>
</linearGradient>
<linearGradient id="paint5_linear_314_191" x1="74397.9" y1="144027" x2="41719" y2="99544.7" gradientUnits="userSpaceOnUse">
<stop stop-color="#4F52FF"/>
<stop offset="1" stop-color="#4042E2"/>
</linearGradient>
<linearGradient id="paint6_linear_314_191" x1="81496.2" y1="81786.8" x2="24207.5" y2="144012" gradientUnits="userSpaceOnUse">
<stop stop-color="#4F52FF"/>
<stop offset="1" stop-color="#4042E2"/>
</linearGradient>
<linearGradient id="paint7_linear_314_191" x1="34782" y1="102158" x2="-1577.83" y2="58807.8" gradientUnits="userSpaceOnUse">
<stop stop-color="#4F52FF"/>
<stop offset="1" stop-color="#4042E2"/>
</linearGradient>
<linearGradient id="paint8_linear_314_191" x1="182.669" y1="61.1374" x2="190.806" y2="50.8651" gradientUnits="userSpaceOnUse">
<stop stop-color="#E1473D"/>
<stop offset="1" stop-color="#E9605A"/>
</linearGradient>
<linearGradient id="paint9_linear_314_191" x1="36930.2" y1="9795.42" x2="31087.7" y2="19461.7" gradientUnits="userSpaceOnUse">
<stop stop-color="#FF928E"/>
<stop offset="1" stop-color="#FE7062"/>
</linearGradient>
<linearGradient id="paint10_linear_314_191" x1="8784.13" y1="6257.67" x2="9851.7" y2="2363.42" gradientUnits="userSpaceOnUse">
<stop stop-color="#FF928E"/>
<stop offset="1" stop-color="#FE7062"/>
</linearGradient>
<linearGradient id="paint11_linear_314_191" x1="61585.9" y1="20466" x2="67117.1" y2="13486.4" gradientUnits="userSpaceOnUse">
<stop stop-color="#E1473D"/>
<stop offset="1" stop-color="#E9605A"/>
</linearGradient>
<linearGradient id="paint12_linear_314_191" x1="67819.7" y1="8146.57" x2="52258.5" y2="33892" gradientUnits="userSpaceOnUse">
<stop stop-color="#FF928E"/>
<stop offset="1" stop-color="#FE7062"/>
</linearGradient>
<linearGradient id="paint13_linear_314_191" x1="2084.7" y1="40284.2" x2="5949.18" y2="35268" gradientUnits="userSpaceOnUse">
<stop stop-color="#FF928E"/>
<stop offset="1" stop-color="#FE7062"/>
</linearGradient>
<linearGradient id="paint14_linear_314_191" x1="66642.7" y1="31094" x2="72494.7" y2="23709" gradientUnits="userSpaceOnUse">
<stop stop-color="#E1473D"/>
<stop offset="1" stop-color="#E9605A"/>
</linearGradient>
<linearGradient id="paint15_linear_314_191" x1="73239.9" y1="17754.9" x2="56763.4" y2="45014.6" gradientUnits="userSpaceOnUse">
<stop stop-color="#FF928E"/>
<stop offset="1" stop-color="#FE7062"/>
</linearGradient>
<linearGradient id="paint16_linear_314_191" x1="561.054" y1="42676.8" x2="5844.67" y2="38296.3" gradientUnits="userSpaceOnUse">
<stop stop-color="#FF928E"/>
<stop offset="1" stop-color="#FE7062"/>
</linearGradient>
<linearGradient id="paint17_linear_314_191" x1="58655.3" y1="17391.2" x2="62402.4" y2="12665.9" gradientUnits="userSpaceOnUse">
<stop stop-color="#E1473D"/>
<stop offset="1" stop-color="#E9605A"/>
</linearGradient>
<linearGradient id="paint18_linear_314_191" x1="62313.2" y1="8912.05" x2="51774.5" y2="26347.9" gradientUnits="userSpaceOnUse">
<stop stop-color="#FF928E"/>
<stop offset="1" stop-color="#FE7062"/>
</linearGradient>
<linearGradient id="paint19_linear_314_191" x1="3556.61" y1="32823.3" x2="7138.52" y2="28873" gradientUnits="userSpaceOnUse">
<stop stop-color="#FF928E"/>
<stop offset="1" stop-color="#FE7062"/>
</linearGradient>
<linearGradient id="paint20_linear_314_191" x1="121.624" y1="155.979" x2="133.508" y2="155.979" gradientUnits="userSpaceOnUse">
<stop stop-color="#53D8FF"/>
<stop offset="1" stop-color="#3840F7"/>
</linearGradient>
<linearGradient id="paint21_linear_314_191" x1="121.623" y1="153.651" x2="133.172" y2="153.651" gradientUnits="userSpaceOnUse">
<stop stop-color="#09005D"/>
<stop offset="1" stop-color="#1A0F91"/>
</linearGradient>
<linearGradient id="paint22_linear_314_191" x1="1692.94" y1="10759.8" x2="1917.01" y2="10759.8" gradientUnits="userSpaceOnUse">
<stop stop-color="#FEBBBA"/>
<stop offset="1" stop-color="#FF928E"/>
</linearGradient>
<linearGradient id="paint23_linear_314_191" x1="205.119" y1="6126.48" x2="619.857" y2="6126.48" gradientUnits="userSpaceOnUse">
<stop stop-color="#53D8FF"/>
<stop offset="1" stop-color="#3840F7"/>
</linearGradient>
<linearGradient id="paint24_linear_314_191" x1="258.562" y1="27061.6" x2="1152.12" y2="27061.6" gradientUnits="userSpaceOnUse">
<stop stop-color="#09005D"/>
<stop offset="1" stop-color="#1A0F91"/>
</linearGradient>
<linearGradient id="paint25_linear_314_191" x1="476.453" y1="12233.2" x2="796.447" y2="12233.2" gradientUnits="userSpaceOnUse">
<stop stop-color="#FEBBBA"/>
<stop offset="1" stop-color="#FF928E"/>
</linearGradient>
<linearGradient id="paint26_linear_314_191" x1="-42545.9" y1="185234" x2="81121.8" y2="114586" gradientUnits="userSpaceOnUse">
<stop stop-color="#09005D"/>
<stop offset="1" stop-color="#1A0F91"/>
</linearGradient>
<linearGradient id="paint27_linear_314_191" x1="2854.81" y1="10115.5" x2="3181.57" y2="9478.31" gradientUnits="userSpaceOnUse">
<stop stop-color="#4F52FF"/>
<stop offset="1" stop-color="#4042E2"/>
</linearGradient>
<linearGradient id="paint28_linear_314_191" x1="21866.9" y1="17548.6" x2="15514.7" y2="25181.5" gradientUnits="userSpaceOnUse">
<stop stop-color="#FEBBBA"/>
<stop offset="1" stop-color="#FF928E"/>
</linearGradient>
<linearGradient id="paint29_linear_314_191" x1="-3323.99" y1="68282.2" x2="18871.4" y2="34807.7" gradientUnits="userSpaceOnUse">
<stop stop-color="#FF928E"/>
<stop offset="1" stop-color="#FE7062"/>
</linearGradient>
<linearGradient id="paint30_linear_314_191" x1="3224.2" y1="1656.69" x2="-3331.84" y2="4897.5" gradientUnits="userSpaceOnUse">
<stop stop-color="#E1473D"/>
<stop offset="1" stop-color="#E9605A"/>
</linearGradient>
<linearGradient id="paint31_linear_314_191" x1="3336.45" y1="10654" x2="3497.95" y2="7823.51" gradientUnits="userSpaceOnUse">
<stop stop-color="#FEBBBA"/>
<stop offset="1" stop-color="#FF928E"/>
</linearGradient>
<linearGradient id="paint32_linear_314_191" x1="5289.07" y1="8263.2" x2="3382.55" y2="9560.26" gradientUnits="userSpaceOnUse">
<stop stop-color="#FEBBBA"/>
<stop offset="1" stop-color="#FF928E"/>
</linearGradient>
<linearGradient id="paint33_linear_314_191" x1="5545.45" y1="8558.82" x2="7775.52" y2="11463.5" gradientUnits="userSpaceOnUse">
<stop stop-color="#09005D"/>
<stop offset="1" stop-color="#1A0F91"/>
</linearGradient>
<linearGradient id="paint34_linear_314_191" x1="1330.68" y1="2477.79" x2="804.138" y2="2763.44" gradientUnits="userSpaceOnUse">
<stop stop-color="#FEBBBA"/>
<stop offset="1" stop-color="#FF928E"/>
</linearGradient>
<linearGradient id="paint35_linear_314_191" x1="5251.04" y1="12804.6" x2="7639.26" y2="6003.37" gradientUnits="userSpaceOnUse">
<stop stop-color="#FEBBBA"/>
<stop offset="1" stop-color="#FF928E"/>
</linearGradient>
<linearGradient id="paint36_linear_314_191" x1="80246.3" y1="6519.76" x2="80737.7" y2="8504.97" gradientUnits="userSpaceOnUse">
<stop stop-color="#09005D"/>
<stop offset="1" stop-color="#1A0F91"/>
</linearGradient>
<linearGradient id="paint37_linear_314_191" x1="115681" y1="23343.3" x2="119064" y2="29031.2" gradientUnits="userSpaceOnUse">
<stop stop-color="#09005D"/>
<stop offset="1" stop-color="#1A0F91"/>
</linearGradient>
</defs>
</svg>
