<svg width="182" height="53" viewBox="0 0 182 53" fill="none" xmlns="http://www.w3.org/2000/svg">
<g clip-path="url(#clip0_15_370)">
<path d="M170.643 26.3018C170.643 30.1123 170.618 34.467 170.668 38.2775L158.94 47.0365L148.003 39.3414L137.364 47.0365L125.66 38.2527C125.66 38.2527 125.685 21.9718 125.66 14.2025L137.364 5.29501L148.003 12.52L158.94 5.29501L170.668 14.2025C170.594 18.0129 170.643 22.4914 170.643 26.3018ZM168.317 37.0403V16.1325L160.004 21.9718L160.053 43.1766L168.317 37.0403ZM149.141 16.1325V37.0403L157.653 43.2013V21.9965L149.141 16.1325ZM136.077 21.9718L128.036 16.1325V37.0403L136.052 43.2013L136.077 21.9718ZM138.428 43.2013L146.815 37.0156V16.083L138.428 21.9965V43.2013ZM145.925 14.2272L137.364 8.31366L128.926 14.252L137.364 20.0666L145.925 14.2272ZM150.23 14.2025L158.915 20.0913L167.179 14.2025L158.94 8.31366L150.23 14.2025Z" fill="#254480"/>
<path d="M70.8049 26.3513C69.84 29.1226 68.009 30.1865 65.3367 30.137C61.4521 30.0628 57.5922 30.137 53.7075 30.1123C50.4662 30.1123 48.5857 28.2071 48.5857 24.941C48.5857 21.0316 48.6105 17.1222 48.561 13.188C48.561 12.322 48.7837 12.0499 49.6497 12.0994C50.7136 12.1736 51.8023 12.1736 52.8663 12.0994C53.5838 12.0499 53.757 12.322 53.757 13.0148C53.7323 16.1572 53.7323 19.2748 53.7323 22.4172C53.7323 24.4214 54.2271 24.9162 56.1818 24.9162C59.2005 24.9162 62.1944 24.9162 65.213 24.9162C66.277 24.9162 67.044 24.5698 67.3409 23.4564C67.5141 22.7389 67.3657 22.4172 66.5244 22.4419C63.7284 22.4914 60.9077 22.4419 58.1118 22.4667C57.3447 22.4667 56.9983 22.3182 57.0478 21.4522C57.0973 20.3388 57.1221 19.2253 57.0478 18.1119C57.0231 17.5181 57.1221 17.2212 57.8396 17.2212C61.9222 17.2459 66.0048 17.2459 70.0874 17.2212C70.8049 17.2212 70.8792 17.5428 70.8544 18.1119C70.8297 19.6707 70.8297 21.2543 70.8544 22.8131C70.8544 24.3224 71.4235 24.8915 72.9576 24.8915C76.4711 24.9162 79.9599 24.9162 83.4734 24.8915C84.2404 24.8915 84.5868 25.04 84.5126 25.8812C84.4383 26.9947 84.4383 28.1081 84.5126 29.2215C84.5373 29.8648 84.3641 30.0875 83.6961 30.0875C80.9248 30.0628 78.1784 30.137 75.4071 30.0628C73.106 30.038 71.6215 28.7267 70.8049 26.3513Z" fill="#05478A"/>
<path d="M89.6095 34.9124C88.4466 37.7331 87.16 38.5991 84.2155 38.5991C77.8318 38.5991 71.4481 38.5743 65.0644 38.6238C64.1489 38.6238 63.8273 38.4011 63.9015 37.4856C63.9757 36.4959 63.9757 35.5062 63.9015 34.5165C63.8273 33.6257 64.1737 33.4278 65.015 33.4278C71.4729 33.4525 77.9556 33.4525 84.4135 33.4525C86.5909 33.4525 86.9868 33.0319 86.9868 30.8545C86.9868 27.8606 87.0362 24.842 86.962 21.8481C86.9373 20.8336 87.2837 20.5862 88.1992 20.6604C89.2384 20.7346 90.2528 20.7346 91.292 20.6604C92.0096 20.6109 92.1828 20.9078 92.1828 21.5759C92.158 24.743 92.158 27.9101 92.158 31.0772C92.158 32.9329 92.6777 33.4278 94.4839 33.4525C96.5376 33.4525 98.5912 33.4773 100.67 33.4278C101.362 33.403 101.61 33.6257 101.585 34.3185C101.536 35.4567 101.536 36.6196 101.585 37.7826C101.61 38.4506 101.362 38.6238 100.744 38.5991C98.4675 38.5743 96.2159 38.6733 93.9395 38.5496C91.6632 38.4754 90.3518 37.0403 89.6095 34.9124Z" fill="#05478A"/>
<path d="M24.288 22.3924C28.618 22.3924 32.948 22.4172 37.2533 22.3677C38.0204 22.3677 38.3915 22.4914 38.3173 23.3821C38.243 24.4461 38.243 25.5348 38.3173 26.5987C38.3668 27.4153 38.0451 27.539 37.3275 27.539C29.7809 27.5142 22.2591 27.539 14.7124 27.5142C12.3866 27.539 10.4071 25.8317 10.0607 23.5306C9.93703 22.7388 10.0855 22.3677 11.0505 22.3677C15.4547 22.4172 19.8837 22.3924 24.288 22.3924Z" fill="#05478A"/>
<path d="M109.305 26.5987C109.305 28.207 109.28 29.8153 109.305 31.4236C109.33 32.8587 109.899 33.4278 111.359 33.4526C113.462 33.4773 115.565 33.502 117.668 33.4278C118.509 33.4031 118.732 33.6752 118.683 34.467C118.608 35.5062 118.608 36.5207 118.683 37.5599C118.732 38.3269 118.559 38.6486 117.693 38.6239C114.724 38.5744 111.755 38.6239 108.785 38.5991C106.286 38.5744 104.208 36.7186 104.158 34.2196C104.059 29.9391 104.134 25.6585 104.109 21.378C104.109 20.8336 104.307 20.6604 104.826 20.6604C106.064 20.6852 107.301 20.7099 108.538 20.6604C109.231 20.6357 109.354 20.9573 109.33 21.5512C109.28 23.2337 109.305 24.9162 109.305 26.5987Z" fill="#05478A"/>
<path d="M45.9629 27.7617C45.9629 29.4442 46.0866 31.1515 45.9381 32.8093C45.7155 35.1598 43.9092 36.7681 41.5586 36.8671C39.5792 36.9413 37.5998 36.8671 35.6203 36.9166C35.0265 36.9166 34.8285 36.7434 34.8533 36.1496C34.9028 34.9619 34.9028 33.7495 34.8533 32.5618C34.8285 31.9185 35.0265 31.6711 35.6946 31.6958C36.6348 31.7453 37.5998 31.7206 38.54 31.6958C40.4205 31.6958 40.8411 31.2504 40.8411 29.3452C40.8411 27.3658 40.8906 25.3864 40.8164 23.4069C40.7916 22.6151 41.0143 22.2935 41.8556 22.343C42.9195 22.4172 44.0082 22.4172 45.0721 22.343C45.9134 22.2935 46.1114 22.6151 46.0866 23.4069C46.0371 24.842 46.0619 26.3018 46.0619 27.7369L45.9629 27.7617Z" fill="#05478A"/>
<path d="M25.0303 17.1716C24.1643 18.9779 22.8777 19.6954 21.2446 19.2995C19.6364 18.8789 18.6714 17.2211 19.092 15.6128C19.3642 14.5736 20.1807 13.7571 21.2446 13.4602C22.7787 13.0643 24.1148 13.7818 24.9808 15.5139C26.1933 13.5592 27.3562 12.9406 28.915 13.386C30.5233 13.8313 31.4388 15.4891 30.9934 17.0974C30.7212 18.1119 29.9295 18.8789 28.915 19.1758C27.4304 19.6212 26.2675 19.0521 25.0303 17.1716Z" fill="#05478A"/>
<path d="M79.6876 15.5633C80.7021 13.6581 81.865 12.9901 83.4238 13.3859C85.0321 13.7571 86.0466 15.3901 85.6507 16.9984C85.4033 18.0624 84.6115 18.9036 83.5723 19.2006C82.0382 19.6707 80.8011 19.0026 79.6876 17.1469C78.6732 18.9779 77.436 19.6707 75.8524 19.2748C74.5411 18.8789 73.6503 17.716 73.6008 16.3551C73.6256 14.9942 74.5411 13.8066 75.8524 13.4354C77.436 13.0395 78.6979 13.7323 79.6876 15.5633Z" fill="#05478A"/>
<path d="M54.0044 35.8774C54.0291 34.2196 55.4147 32.8835 57.0725 32.9082C58.7303 32.933 60.0664 34.3186 60.0417 35.9764C60.0417 37.6341 58.6808 38.9703 57.023 38.9703C55.3653 38.9703 54.0291 37.6094 54.0291 35.9516C54.0044 35.9269 54.0044 35.9021 54.0044 35.8774Z" fill="#05478A"/>
<path d="M113.313 47.0118C111.532 47.0118 110.245 45.7499 110.27 44.0179C110.295 42.3601 111.656 40.9992 113.338 41.024C114.996 41.0487 116.357 42.4096 116.332 44.0921C116.332 45.7251 114.996 47.0365 113.388 47.0118C113.338 47.0118 113.313 47.0118 113.313 47.0118Z" fill="#05478A"/>
<path d="M98.5171 22.9368C100.15 23.011 101.412 24.3719 101.363 26.0049C101.363 26.0544 101.363 26.1039 101.363 26.1534C101.239 27.8112 99.8037 29.0483 98.1707 28.9493C96.5129 28.8256 95.2757 27.3905 95.3747 25.7575C95.3747 25.7328 95.3747 25.7328 95.3747 25.708C95.4737 24.075 96.884 22.8378 98.5171 22.9368C98.5171 22.9368 98.4923 22.9368 98.5171 22.9368Z" fill="#05478A"/>
<path d="M92.5293 15.5881C92.0344 15.6129 92.0097 15.2912 92.0839 14.8458C92.3314 13.6334 93.2963 13.7571 94.1129 13.7324C94.8799 13.6829 94.7809 13.0891 94.8551 12.6932C94.9541 12.0499 94.385 12.2725 94.0881 12.2478C91.688 12.1241 91.02 12.6189 90.3519 15.0438C89.9313 16.5778 90.055 16.8253 91.886 17.1964C91.688 17.815 90.822 17.6665 90.3272 17.5675C89.3869 17.4191 89.1395 17.2954 89.3622 16.3799C89.5849 15.4149 89.7333 14.4499 89.9313 13.485C90.055 12.9159 89.9065 12.6189 89.2632 12.6189C88.8178 12.6189 88.2982 12.2231 88.1498 13.0891C87.9024 14.6231 87.5312 16.1572 87.2343 17.6913C87.0611 18.6315 87.5065 19.1016 88.4467 19.1016C89.6096 19.1016 90.7478 19.1016 91.9107 19.1016C92.6035 19.1264 93.2716 18.7305 93.5685 18.0872C93.8407 17.6913 94.1129 15.5386 92.5293 15.5881Z" fill="#254480"/>
<path d="M94.9293 16.8005C95.919 15.7366 96.2902 14.4994 96.4634 13.1138C96.5129 12.7674 96.3891 12.3468 97.1314 12.3963C97.7253 12.4457 98.3933 12.322 98.2201 13.3118C97.9479 15.0438 97.5768 16.4294 96.2159 17.9387C95.8695 18.2604 95.4984 18.8542 94.8551 18.5325C94.286 18.2356 93.9891 18.0377 93.9891 17.6418C93.9891 17.6665 94.7066 17.048 94.9293 16.8005Z" fill="#254480"/>
<path d="M119.153 11.9014C119.722 12.9901 120.217 14.0293 120.365 15.1922C120.563 16.6521 120.118 17.1717 118.683 17.1717C117.371 17.1717 116.06 17.1469 114.724 17.1717C113.709 17.1717 113.289 16.6768 113.487 15.6871C113.783 14.1283 114.303 11.654 114.6 10.0952L116.307 10.5406C116.307 10.5406 115.738 13.5345 115.491 14.6479C115.342 15.3407 115.515 15.5634 116.283 15.6129C116.975 15.6624 118.114 15.8108 118.336 15.3902C118.633 14.8953 118.089 14.0046 117.792 13.3365C117.693 13.0643 117.52 12.8417 117.396 12.5695C116.629 11.1096 117.074 10.4663 118.658 10.4168C119.078 10.3921 120.885 10.3426 120.885 10.3426L120.909 10.8127C120.959 11.4561 121.008 11.7282 119.92 11.8272C119.697 11.8519 119.474 11.8767 119.153 11.9014Z" fill="#254480"/>
<path d="M104.332 17.0974C103.862 17.0232 103.367 17.2211 103.094 17.5923C101.882 18.9284 101.833 18.9036 100.348 17.6665C101.981 16.4541 102.847 14.7716 103.045 12.7674C103.094 12.3715 103.169 12.223 103.639 12.2973C104.282 12.421 104.95 12.2725 104.777 13.089C104.678 13.5592 104.579 14.054 104.455 14.5241C104.233 15.4149 104.53 15.5881 105.321 15.5881C107.276 15.6128 107.375 15.4891 106.583 13.6581C106.559 13.6086 106.559 13.5839 106.534 13.5344C105.148 10.4415 105.371 10.392 108.81 10.3426C109.107 10.3426 109.627 10.2683 109.528 10.7879C109.453 11.1838 109.528 11.7529 108.835 11.7529C108.513 11.7529 108.192 11.7777 107.796 11.8024C108.365 13.5344 109.676 16.0582 108.365 17.0232C107.895 17.4438 105.717 17.2211 104.332 17.0974Z" fill="#254480"/>
<path d="M109.701 16.7263C110.691 15.6623 111.062 14.4252 111.235 13.0396C111.284 12.6932 111.161 12.2725 111.903 12.322C112.497 12.3715 113.165 12.2478 112.992 13.2375C112.719 14.9695 112.348 16.3551 110.987 17.8644C110.641 18.1861 110.27 18.7799 109.627 18.4583C109.058 18.1614 108.761 17.9634 108.761 17.5675C108.761 17.5923 109.478 16.9737 109.701 16.7263Z" fill="#254480"/>
<path d="M99.4573 17.0974C98.7893 17.1964 98.5418 17.0727 98.715 16.3304C99.1357 14.6231 99.5068 12.8911 99.7542 11.1591C99.9027 10.0704 100.67 10.3921 101.214 10.4415C102.031 10.491 101.536 11.1343 101.486 11.4808C101.214 13.0643 100.843 14.5984 100.571 16.1819C100.472 16.8747 100.249 17.2954 99.4573 17.0974Z" fill="#254480"/>
<path d="M103.837 11.8272C103.515 11.7777 103.07 11.8272 103.144 11.3076C103.243 10.7632 103.218 10.3426 104.109 10.4168C104.431 10.4416 104.876 10.4168 104.826 10.9117C104.752 11.654 104.653 11.8766 103.837 11.8272Z" fill="#254480"/>
<path d="M106.187 9.82297L109.627 9.724L109.651 10.0209L106.187 10.1199V9.82297Z" fill="#254480"/>
</g>
<defs>
<clipPath id="clip0_15_370">
<rect width="181.836" height="52.3315" fill="white" transform="translate(0.163574)"/>
</clipPath>
</defs>
</svg>
