<?xml version="1.0" encoding="UTF-8"?>
<svg id="Layer_1" data-name="Layer 1" xmlns="http://www.w3.org/2000/svg" version="1.1" xmlns:xlink="http://www.w3.org/1999/xlink" viewBox="0 0 481 332">
  <defs>
    <style>
      .cls-1 {
        fill: url(#linear-gradient-38);
      }

      .cls-1, .cls-2, .cls-3, .cls-4, .cls-5, .cls-6, .cls-7, .cls-8, .cls-9, .cls-10, .cls-11, .cls-12, .cls-13, .cls-14, .cls-15, .cls-16, .cls-17, .cls-18, .cls-19, .cls-20, .cls-21, .cls-22, .cls-23, .cls-24, .cls-25, .cls-26, .cls-27, .cls-28, .cls-29, .cls-30, .cls-31, .cls-32, .cls-33, .cls-34, .cls-35, .cls-36, .cls-37, .cls-38, .cls-39, .cls-40, .cls-41, .cls-42, .cls-43, .cls-44, .cls-45 {
        stroke-width: 0px;
      }

      .cls-2 {
        fill: url(#linear-gradient-19);
      }

      .cls-3 {
        fill: url(#linear-gradient-33);
      }

      .cls-4 {
        fill: url(#linear-gradient-15);
      }

      .cls-4, .cls-7, .cls-8, .cls-9, .cls-17, .cls-23, .cls-31, .cls-35, .cls-38, .cls-39, .cls-40, .cls-41, .cls-43, .cls-45 {
        isolation: isolate;
      }

      .cls-4, .cls-8, .cls-9, .cls-46, .cls-17, .cls-23, .cls-31, .cls-35, .cls-39, .cls-41 {
        opacity: .3;
      }

      .cls-5 {
        fill: url(#linear-gradient-21);
      }

      .cls-6 {
        fill: url(#linear-gradient-6);
      }

      .cls-7 {
        opacity: .9;
      }

      .cls-7, .cls-34, .cls-38, .cls-40, .cls-45 {
        fill: #fff;
      }

      .cls-8 {
        fill: url(#linear-gradient-8);
      }

      .cls-9 {
        fill: url(#linear-gradient-14);
      }

      .cls-10 {
        fill: url(#linear-gradient-5);
      }

      .cls-11 {
        fill: url(#linear-gradient-31);
      }

      .cls-12 {
        fill: url(#linear-gradient-34);
      }

      .cls-13 {
        fill: url(#linear-gradient-40);
      }

      .cls-14 {
        fill: url(#linear-gradient-13);
      }

      .cls-15 {
        fill: url(#linear-gradient-23);
      }

      .cls-16 {
        fill: url(#linear-gradient-25);
      }

      .cls-17 {
        fill: url(#linear-gradient-10);
      }

      .cls-18 {
        fill: url(#linear-gradient-22);
      }

      .cls-19 {
        fill: url(#linear-gradient-35);
      }

      .cls-20 {
        fill: url(#linear-gradient-32);
      }

      .cls-21 {
        fill: url(#linear-gradient-20);
      }

      .cls-22 {
        fill: url(#linear-gradient-2);
      }

      .cls-23 {
        fill: url(#linear-gradient-12);
      }

      .cls-24 {
        fill: url(#linear-gradient-7);
      }

      .cls-25 {
        fill: url(#linear-gradient-39);
      }

      .cls-26 {
        fill: url(#linear-gradient-3);
      }

      .cls-27 {
        fill: url(#linear-gradient-27);
      }

      .cls-28 {
        fill: url(#linear-gradient-36);
      }

      .cls-29 {
        fill: url(#linear-gradient-24);
      }

      .cls-30 {
        fill: url(#linear-gradient-26);
      }

      .cls-31 {
        fill: url(#linear-gradient-17);
      }

      .cls-32 {
        fill: url(#linear-gradient-18);
      }

      .cls-33 {
        fill: url(#linear-gradient-30);
      }

      .cls-35 {
        fill: url(#linear-gradient-11);
      }

      .cls-36 {
        fill: url(#linear-gradient-29);
      }

      .cls-37 {
        fill: url(#linear-gradient-28);
      }

      .cls-38 {
        opacity: .9;
      }

      .cls-39 {
        fill: url(#linear-gradient-9);
      }

      .cls-40 {
        opacity: .5;
      }

      .cls-41 {
        fill: url(#linear-gradient-16);
      }

      .cls-42 {
        fill: url(#linear-gradient-4);
      }

      .cls-43 {
        fill: url(#linear-gradient);
        opacity: .2;
      }

      .cls-44 {
        fill: url(#linear-gradient-37);
      }

      .cls-45 {
        opacity: .6;
      }
    </style>
    <linearGradient id="linear-gradient" x1="88.6" y1="16.5" x2="304.1" y2="285" gradientTransform="translate(0 334) scale(1 -1)" gradientUnits="userSpaceOnUse">
      <stop offset="0" stop-color="#b37cff"/>
      <stop offset="1" stop-color="#f895e7"/>
    </linearGradient>
    <linearGradient id="linear-gradient-2" x1="-134586.3" y1="61764.3" x2="53582.6" y2="-24248.7" gradientTransform="translate(0 334) scale(1 -1)" gradientUnits="userSpaceOnUse">
      <stop offset="0" stop-color="#b37cff"/>
      <stop offset="1" stop-color="#f895e7"/>
    </linearGradient>
    <linearGradient id="linear-gradient-3" x1="-45268.4" y1="59062.3" x2="18213.6" y2="-23297.4" gradientTransform="translate(0 334) scale(1 -1)" gradientUnits="userSpaceOnUse">
      <stop offset="0" stop-color="#b37cff"/>
      <stop offset="1" stop-color="#f895e7"/>
    </linearGradient>
    <linearGradient id="linear-gradient-4" x1="-67.1" y1="500.6" x2="383.8" y2="115" gradientTransform="translate(0 334) scale(1 -1)" gradientUnits="userSpaceOnUse">
      <stop offset="0" stop-color="#cb236d"/>
      <stop offset="1" stop-color="#4c246d"/>
    </linearGradient>
    <linearGradient id="linear-gradient-5" x1="164285.4" y1="131653.1" x2="-59782.8" y2="-48011.5" gradientTransform="translate(0 334) scale(1 -1)" gradientUnits="userSpaceOnUse">
      <stop offset="0" stop-color="#cb236d"/>
      <stop offset="1" stop-color="#4c246d"/>
    </linearGradient>
    <linearGradient id="linear-gradient-6" x1="-200439.3" y1="-158668.6" x2="616328.9" y2="488115.4" gradientTransform="translate(0 334) scale(1 -1)" gradientUnits="userSpaceOnUse">
      <stop offset="0" stop-color="#cb236d"/>
      <stop offset="1" stop-color="#4c246d"/>
    </linearGradient>
    <linearGradient id="linear-gradient-7" x1="-48082.6" y1="-51221.1" x2="148593.1" y2="157710.8" gradientTransform="translate(0 334) scale(1 -1)" gradientUnits="userSpaceOnUse">
      <stop offset="0" stop-color="#cb236d"/>
      <stop offset="1" stop-color="#4c246d"/>
    </linearGradient>
    <linearGradient id="linear-gradient-8" x1="-38325.2" y1="59991.2" x2="-28056.5" y2="44132.9" gradientTransform="translate(0 334) scale(1 -1)" gradientUnits="userSpaceOnUse">
      <stop offset="0" stop-color="#b37cff"/>
      <stop offset="1" stop-color="#f895e7"/>
    </linearGradient>
    <linearGradient id="linear-gradient-9" x1="-329.7" y1="1332.5" x2="-311.1" y2="1303.7" gradientTransform="translate(0 334) scale(1 -1)" gradientUnits="userSpaceOnUse">
      <stop offset="0" stop-color="#b37cff"/>
      <stop offset="1" stop-color="#f895e7"/>
    </linearGradient>
    <linearGradient id="linear-gradient-10" x1="-691.1" y1="1859.3" x2="-671.1" y2="1828.4" gradientTransform="translate(0 334) scale(1 -1)" gradientUnits="userSpaceOnUse">
      <stop offset="0" stop-color="#b37cff"/>
      <stop offset="1" stop-color="#f895e7"/>
    </linearGradient>
    <linearGradient id="linear-gradient-11" x1="-33291.6" y1="52172.5" x2="-23093.8" y2="36423.8" gradientTransform="translate(0 334) scale(1 -1)" gradientUnits="userSpaceOnUse">
      <stop offset="0" stop-color="#b37cff"/>
      <stop offset="1" stop-color="#f895e7"/>
    </linearGradient>
    <linearGradient id="linear-gradient-12" x1="-683" y1="1799.1" x2="-664" y2="1769.7" gradientTransform="translate(0 334) scale(1 -1)" gradientUnits="userSpaceOnUse">
      <stop offset="0" stop-color="#b37cff"/>
      <stop offset="1" stop-color="#f895e7"/>
    </linearGradient>
    <linearGradient id="linear-gradient-13" x1="-21229" y1="-47572.2" x2="5080.8" y2="10813.6" gradientTransform="translate(0 334) scale(1 -1)" gradientUnits="userSpaceOnUse">
      <stop offset="0" stop-color="#b37cff"/>
      <stop offset="1" stop-color="#f895e7"/>
    </linearGradient>
    <linearGradient id="linear-gradient-14" x1="-1096.8" y1="2439.3" x2="-1086.6" y2="2423.5" gradientTransform="translate(0 334) scale(1 -1)" gradientUnits="userSpaceOnUse">
      <stop offset="0" stop-color="#b37cff"/>
      <stop offset="1" stop-color="#f895e7"/>
    </linearGradient>
    <linearGradient id="linear-gradient-15" x1="-28338.5" y1="44532.3" x2="-24669.8" y2="38866.6" gradientTransform="translate(0 334) scale(1 -1)" gradientUnits="userSpaceOnUse">
      <stop offset="0" stop-color="#b37cff"/>
      <stop offset="1" stop-color="#f895e7"/>
    </linearGradient>
    <linearGradient id="linear-gradient-16" x1="-19165.9" y1="30328.9" x2="-16142.7" y2="25660.1" gradientTransform="translate(0 334) scale(1 -1)" gradientUnits="userSpaceOnUse">
      <stop offset="0" stop-color="#b37cff"/>
      <stop offset="1" stop-color="#f895e7"/>
    </linearGradient>
    <linearGradient id="linear-gradient-17" x1="-413.4" y1="1365.6" x2="-404.4" y2="1351.7" gradientTransform="translate(0 334) scale(1 -1)" gradientUnits="userSpaceOnUse">
      <stop offset="0" stop-color="#b37cff"/>
      <stop offset="1" stop-color="#f895e7"/>
    </linearGradient>
    <linearGradient id="linear-gradient-18" x1="-14126.4" y1="-31723.7" x2="3478.5" y2="7344.2" gradientTransform="translate(0 334) scale(1 -1)" gradientUnits="userSpaceOnUse">
      <stop offset="0" stop-color="#b37cff"/>
      <stop offset="1" stop-color="#f895e7"/>
    </linearGradient>
    <linearGradient id="linear-gradient-19" x1="249.6" y1="177" x2="16.7" y2="568" gradientTransform="translate(0 334) scale(1 -1)" gradientUnits="userSpaceOnUse">
      <stop offset="0" stop-color="#fdf53f"/>
      <stop offset="1" stop-color="#d93c65"/>
    </linearGradient>
    <linearGradient id="linear-gradient-20" x1="-10486.7" y1="-34517" x2="53586.3" y2="174726.1" gradientTransform="translate(0 334) scale(1 -1)" gradientUnits="userSpaceOnUse">
      <stop offset="0" stop-color="#fdf53f"/>
      <stop offset="1" stop-color="#d93c65"/>
    </linearGradient>
    <linearGradient id="linear-gradient-21" x1="289.1" y1="103" x2="343.4" y2="43.8" gradientTransform="translate(0 334) scale(1 -1)" gradientUnits="userSpaceOnUse">
      <stop offset="0" stop-color="#2b3582"/>
      <stop offset="1" stop-color="#150e42"/>
    </linearGradient>
    <linearGradient id="linear-gradient-22" x1="306.8" y1="98.6" x2="301.9" y2="98.6" gradientTransform="translate(0 334) scale(1 -1)" gradientUnits="userSpaceOnUse">
      <stop offset="0" stop-color="#f9b776"/>
      <stop offset="1" stop-color="#f47960"/>
    </linearGradient>
    <linearGradient id="linear-gradient-23" x1="71290.3" y1="21183.2" x2="49358.9" y2="14680.2" gradientTransform="translate(0 334) scale(1 -1)" gradientUnits="userSpaceOnUse">
      <stop offset="0" stop-color="#2b3582"/>
      <stop offset="1" stop-color="#150e42"/>
    </linearGradient>
    <linearGradient id="linear-gradient-24" x1="16149.3" y1="17303.7" x2="11352.6" y2="12087.7" gradientTransform="translate(0 334) scale(1 -1)" gradientUnits="userSpaceOnUse">
      <stop offset="0" stop-color="#2b3582"/>
      <stop offset="1" stop-color="#150e42"/>
    </linearGradient>
    <linearGradient id="linear-gradient-25" x1="320" y1="98.9" x2="324.2" y2="98.9" gradientTransform="translate(0 334) scale(1 -1)" gradientUnits="userSpaceOnUse">
      <stop offset="0" stop-color="#f9b776"/>
      <stop offset="1" stop-color="#f47960"/>
    </linearGradient>
    <linearGradient id="linear-gradient-26" x1="93951.3" y1="38833.6" x2="65021.3" y2="26877.6" gradientTransform="translate(0 334) scale(1 -1)" gradientUnits="userSpaceOnUse">
      <stop offset="0" stop-color="#2b3582"/>
      <stop offset="1" stop-color="#150e42"/>
    </linearGradient>
    <linearGradient id="linear-gradient-27" x1="-27909.6" y1="-42319.8" x2="20108.2" y2="30029.1" gradientTransform="translate(0 334) scale(1 -1)" gradientUnits="userSpaceOnUse">
      <stop offset="0" stop-color="#fdf53f"/>
      <stop offset="1" stop-color="#d93c65"/>
    </linearGradient>
    <linearGradient id="linear-gradient-28" x1="-2983.4" y1="8178.4" x2="169.8" y2="484" gradientTransform="translate(0 334) scale(1 -1)" gradientUnits="userSpaceOnUse">
      <stop offset="0" stop-color="#f9b776"/>
      <stop offset="1" stop-color="#f47960"/>
    </linearGradient>
    <linearGradient id="linear-gradient-29" x1="-1643.4" y1="3448.9" x2="275.9" y2="218.2" gradientTransform="translate(0 334) scale(1 -1)" gradientUnits="userSpaceOnUse">
      <stop offset="0" stop-color="#f9b776"/>
      <stop offset="1" stop-color="#f47960"/>
    </linearGradient>
    <linearGradient id="linear-gradient-30" x1="-1440.1" y1="2214" x2="-1981" y2="2840.8" gradientTransform="translate(0 334) scale(1 -1)" gradientUnits="userSpaceOnUse">
      <stop offset="0" stop-color="#f9b776"/>
      <stop offset="1" stop-color="#f47960"/>
    </linearGradient>
    <linearGradient id="linear-gradient-31" x1="-10619.9" y1="-16602.8" x2="8018.7" y2="12000" gradientTransform="translate(0 334) scale(1 -1)" gradientUnits="userSpaceOnUse">
      <stop offset="0" stop-color="#fdf53f"/>
      <stop offset="1" stop-color="#d93c65"/>
    </linearGradient>
    <linearGradient id="linear-gradient-32" x1="309.7" y1="189.5" x2="340.9" y2="189.5" gradientTransform="translate(0 334) scale(1 -1)" gradientUnits="userSpaceOnUse">
      <stop offset="0" stop-color="#f9b776"/>
      <stop offset="1" stop-color="#f47960"/>
    </linearGradient>
    <linearGradient id="linear-gradient-33" x1="7654.8" y1="-23245.8" x2="12289.9" y2="-38012.1" gradientTransform="translate(0 334) scale(1 -1)" gradientUnits="userSpaceOnUse">
      <stop offset="0" stop-color="#2b3582"/>
      <stop offset="1" stop-color="#150e42"/>
    </linearGradient>
    <linearGradient id="linear-gradient-34" x1="534.6" y1="-427.2" x2="550.1" y2="-468.1" gradientTransform="translate(0 334) scale(1 -1)" gradientUnits="userSpaceOnUse">
      <stop offset="0" stop-color="#53d8ff"/>
      <stop offset="1" stop-color="#3840f7"/>
    </linearGradient>
    <linearGradient id="linear-gradient-35" x1="292.9" y1="210.4" x2="292.3" y2="206.3" gradientTransform="translate(0 334) scale(1 -1)" gradientUnits="userSpaceOnUse">
      <stop offset="0" stop-color="#53d8ff"/>
      <stop offset="1" stop-color="#3840f7"/>
    </linearGradient>
    <linearGradient id="linear-gradient-36" x1="302.3" y1="192.8" x2="312" y2="192.8" gradientTransform="translate(0 334) scale(1 -1)" gradientUnits="userSpaceOnUse">
      <stop offset="0" stop-color="#f9b776"/>
      <stop offset="1" stop-color="#f47960"/>
    </linearGradient>
    <linearGradient id="linear-gradient-37" x1="304.6" y1="222.8" x2="316.9" y2="222.8" gradientTransform="translate(0 334) scale(1 -1)" gradientUnits="userSpaceOnUse">
      <stop offset="0" stop-color="#f9b776"/>
      <stop offset="1" stop-color="#f47960"/>
    </linearGradient>
    <linearGradient id="linear-gradient-38" x1="-34132.4" y1="-20889.5" x2="-31930.4" y2="-19538.9" gradientTransform="translate(0 334) scale(1 -1)" gradientUnits="userSpaceOnUse">
      <stop offset="0" stop-color="#f9b776"/>
      <stop offset="1" stop-color="#f47960"/>
    </linearGradient>
    <linearGradient id="linear-gradient-39" x1="-38193.3" y1="-30349.8" x2="-41907.6" y2="-33300.5" gradientTransform="translate(0 334) scale(1 -1)" gradientUnits="userSpaceOnUse">
      <stop offset="0" stop-color="#2b3582"/>
      <stop offset="1" stop-color="#150e42"/>
    </linearGradient>
    <linearGradient id="linear-gradient-40" x1="-6401" y1="-4800.6" x2="-6008.3" y2="-4506.3" gradientTransform="translate(0 334) scale(1 -1)" gradientUnits="userSpaceOnUse">
      <stop offset="0" stop-color="#f9b776"/>
      <stop offset="1" stop-color="#f47960"/>
    </linearGradient>
  </defs>
  <path class="cls-43" d="M147.6,211.4c5,5.2,9.7,8.6,13.4,11.2,43.7,31.2,95.3,22.1,106.3,19.9,16.2-3.3,47.6-9.6,70.2-36.2,34.3-40.2,28.9-103.5,2.4-145.3-4.9-7.6-30.6-50.1-82.8-56.9C225.4,0,188.6,8.3,161.9,30.6c-56,46.8-52,141.3-14.4,180.8Z"/>
  <path class="cls-22" d="M196.1,237.3c.2,0,.4,0,.6-.2.2-.1.3-.2.5-.4,3.7-5,30.5-43.7-5.2-79.1-33.9-33.6-49.2-40.5-51.2-60.3-.2-2.3-3.4-2.9-4.4-.8-7.7,15.5-19.7,51.8,20,75.6,43.8,26.3,40.2,55.1,38.1,63.2,0,.2,0,.5,0,.8,0,.2.2.5.4.7.2.2.4.3.6.4.2,0,.5.1.8,0h0Z"/>
  <path class="cls-26" d="M190.6,238c.5,0,.9-.3,1.3-.6.4-.3.6-.8.7-1.3,1-6.7,3.6-31.9-15-38.6-20.5-7.4-37,11.7-52.1-3.2-.8-.8-2.1-.1-1.9,1,1.3,7.8,7.3,25.8,33.9,29.4,28.4,3.9,31.6,7.1,31.1,11.2,0,.3,0,.6,0,.9,0,.3.3.5.5.7.2.2.5.4.7.5.3,0,.6.1.9,0h0Z"/>
  <path class="cls-40" d="M141.7,117.4c.3,1.4.8,2.8,1.4,4.2.5,1.4,1.2,2.7,1.8,4,1.3,2.6,3,5.1,4.7,7.4,3.6,4.7,7.9,8.8,12.6,12.3,2.4,1.7,4.8,3.3,7.4,4.8,2.4,1.4,4.8,3,7,4.7,4.5,3.4,8.6,7.4,12.2,11.7,7.2,8.7,12.2,19.2,13.9,30.3.8,5.6.9,11.3,0,16.9-.8,5.6-2.4,11.1-4.5,16.4,0,.1,0,.3,0,.4,0,.1.2.2.3.3.1,0,.3,0,.4,0,.1,0,.2-.2.3-.3,2.5-5.2,4.3-10.8,5.4-16.6,1.1-5.8,1.2-11.7.5-17.5-.7-5.8-2.4-11.6-4.7-16.9-2.4-5.4-5.5-10.4-9.2-15-3.7-4.6-8-8.7-12.6-12.3-2.3-1.8-4.8-3.4-7.3-4.9-2.5-1.4-4.9-2.9-7.2-4.5-4.6-3.3-8.8-7-12.5-11.3-1.8-2.1-3.5-4.4-5-6.8-1.5-2.4-2.9-4.9-3.9-7.5h0c0-.2-.1-.2-.3-.3-.1,0-.2,0-.4,0-.1,0-.2.1-.3.2,0,.1,0,.2,0,.4h0Z"/>
  <path class="cls-40" d="M191.8,233.5c0-.2,0-.5,0-.7v-.7s0-1.4,0-1.4c0-.9,0-1.8,0-2.8,0-1.8-.2-3.7-.5-5.5-.5-3.7-1.3-7.3-2.8-10.8-1.5-3.4-3.7-6.7-6.9-8.8-1.6-1.1-3.4-1.8-5.3-2.2-1.9-.4-3.8-.5-5.7-.3-7.4.9-14.7,2.3-21.9,3.4-3.6.5-7.3,1-10.9.5-.9-.1-1.8-.3-2.6-.6-.8-.3-1.7-.6-2.4-1.1-1.5-.9-2.9-2.1-4.1-3.4h0c0,0-.2-.1-.3-.2-.1,0-.2,0-.3.1,0,0-.1.2-.2.3,0,.1,0,.2.1.3,1.2,1.4,2.6,2.7,4.3,3.7.8.5,1.7.9,2.6,1.2.9.3,1.8.5,2.8.7,3.8.6,7.5,0,11.2-.4,3.7-.5,7.3-1.2,10.9-1.8,3.6-.6,7.3-1.2,10.9-1.6,1.8-.2,3.6-.1,5.3.2,1.7.3,3.4,1,4.9,2,3,1.9,5.2,4.9,6.7,8.2,1.5,3.3,2.4,6.9,3,10.5.3,1.8.5,3.6.6,5.5,0,.9,0,1.8.1,2.7v1.4s0,.7,0,.7c0,.2,0,.5-.1.7,0,0,0,.1,0,.2,0,0,0,.1,0,.2,0,0,0,.1.1.1,0,0,.1,0,.2,0,0,0,.1,0,.2,0,0,0,.1,0,.2-.1,0,0,0-.1,0-.2,0,0,0-.1,0-.2h0Z"/>
  <path class="cls-42" d="M230.5,3.3c11.1,0,22.4,1.7,32.3,5.8,23.2,9.6,42.8,34.9,35.1,60.8-2.5,8.4-1.2,17.7-9.6,21.3-4.5,2-16.9,3.2-21.6,1.6-12.5-4.1-20.7-15.5-13.9-28.1,2.2-4,5-7.7,6.9-11.9,1.9-4.2,2.7-9.1.8-13.3-3.8-8.2-16.3-10.8-24.4-10.5-9.6.3-18.3,5-23.4,13.1-6.4,10.1-8.1,22.4-7.1,34.1,1,12.5,6.3,22.1,14.3,31.7,6.8,8.3,14.4,16.2,18.9,26,4.2,8.9,5.5,18.8,5.7,28.6,0,1.9,9.5,19.7,9.4,25.2,0,.8-10.7,3.3-11.5,3.3-4,0-15.4.2-19.7.2-.4,0-.8-.2-1.1-.4-.3-.3-.5-.7-.5-1.1-.3-26.5-8.5-51.8-29.2-69.6-7.5-6.5-15.7-11.8-21.5-19.9-8.4-11.7-12.5-23.1-11.3-37.5,1.1-13.1,5.4-26.3,14-36.5,9.2-11,22.8-17.8,36.8-20.8,6.7-1.4,13.6-2.2,20.4-2.2Z"/>
  <path class="cls-10" d="M209.9,221.1c0,12.2,6.8,23,19,23s11.6,0,14-.8c8.5-3.1,8.6-9.6,8.6-19.2s-4.1-24.2-16.4-24.2-25.2,9-25.2,21.2Z"/>
  <path class="cls-6" d="M241.1.5c11.1,0,22.4,1.7,32.3,5.8,23.2,9.6,42.8,34.9,35.1,60.8-2.5,8.4-8.3,19-16.7,22.7-4.5,2-9.8,1.8-14.6.3-12.5-4.1-20.7-15.5-13.9-28.1,2.2-4,5-7.7,6.9-11.9s2.7-9.1.8-13.3c-3.8-8.2-16.3-10.8-24.4-10.5-9.6.3-18.3,5-23.4,13.1-6.4,10.1-8.1,22.4-7.1,34.1,1,12.5,6.3,22.1,14.3,31.7,6.8,8.3,14.4,16.2,18.9,26,4.2,8.9,5.5,18.8,5.7,28.6,0,1.9-.6,21.7-.6,27.1,0,.4-.2.7-.4,1-.3.3-.6.4-1,.4-4,0-15.4.2-19.7.2-.4,0-.8-.2-1.1-.4-.3-.3-.5-.7-.5-1.1-.3-26.5-8.5-51.8-29.2-69.6-7.5-6.5-15.7-11.8-21.5-19.9-8.4-11.7-12.5-23.1-11.3-37.5,1.1-13.1,5.4-26.3,14-36.5,9.2-11,22.8-17.8,36.8-20.8,6.7-1.4,13.6-2.2,20.5-2.2Z"/>
  <path class="cls-24" d="M239.9,243.4c12.2,0,22.2-9.9,22.2-22.1s-9.9-22.1-22.2-22.1-22.2,9.9-22.2,22.1,9.9,22.1,22.2,22.1Z"/>
  <path class="cls-34" d="M301.2,64.6c0,0,.1,0,.2,0,0,0,0,0,0-.2,1.6-7,1.8-17.9-5.9-30.4-7.5-12.1-18.1-20.3-31.5-24.2-14.2-4.2-31.2-3.3-50.3,2.6,0,0,0,0,0,0,0,0,0,0,0,0,0,0,0,0,0,.1,0,0,0,0,0,.1,0,0,0,0,0,0,0,0,0,0,0,0,0,0,0,0,.1,0,0,0,0,0,.1,0,19-5.9,35.8-6.8,49.9-2.6,13.2,3.8,23.7,11.9,31.1,23.9,7.6,12.3,7.4,23.1,5.9,30,0,0,0,0,0,.1,0,0,0,0,0,.1,0,0,0,0,0,0,0,0,0,0,.1,0,0,0,0,0,0,0Z"/>
  <path class="cls-34" d="M296.6,75.8s0,0,.1,0c0,0,0,0,.1,0,0,0,1.7-2.3,3.1-6.2,0,0,0,0,0-.1,0,0,0,0,0-.1,0,0,0,0,0,0,0,0,0,0,0,0,0,0,0,0-.1,0,0,0,0,0-.1,0,0,0,0,0,0,0,0,0,0,0,0,0-1.5,3.8-3.1,6-3.1,6,0,0,0,0,0,.1,0,0,0,.1,0,.2,0,0,0,0,.1.1,0,0,0,0,.1,0h0Z"/>
  <path class="cls-34" d="M232.5,207s0,0,.1,0c2.3-1.1,4.8-1.7,7.3-1.7,0,0,0,0,.1,0,0,0,0,0,0,0,0,0,0,0,0,0,0,0,0,0,0-.1s0,0,0-.1c0,0,0,0,0,0,0,0,0,0,0,0,0,0,0,0-.1,0-2.6,0-5.2.6-7.5,1.8,0,0-.1,0-.1.1,0,0,0,.1,0,.2,0,0,0,.1,0,.2,0,0,.1,0,.2,0h0Z"/>
  <path class="cls-34" d="M249.1,235.2c0,0,.1,0,.2,0,2.4-1.6,4.3-3.8,5.6-6.4,1.3-2.6,1.9-5.4,1.7-8.3-.1-2.9-1-5.6-2.6-8.1-1.5-2.4-3.7-4.4-6.2-5.8,0,0,0,0-.1,0,0,0,0,0-.1,0,0,0,0,0,0,0,0,0,0,0,0,0,0,0,0,0,0,.1,0,0,0,0,0,.1,0,0,0,0,0,0,0,0,0,0,0,0,2.4,1.3,4.5,3.2,6,5.6,1.5,2.3,2.3,5,2.5,7.8.1,2.8-.4,5.5-1.7,8-1.2,2.5-3.1,4.6-5.4,6.1,0,0,0,0-.1.1,0,0,0,.1,0,.2,0,0,0,.1.1.1,0,0,.1,0,.2,0h0Z"/>
  <g class="cls-46">
    <path class="cls-8" d="M313.6,41.8c.1.1.3.2.5.2.2,0,.4,0,.5-.1.6-.5,1.1-.9,1.7-1.3.1,0,.2-.2.3-.4,0-.2,0-.3,0-.5h0c0,0-.1-.1-.2-.2,0,0-.2,0-.2,0,0,0-.2,0-.3,0,0,0-.2,0-.2.1-.6.4-1.2.9-1.8,1.4-.1.1-.2.3-.2.4,0,.2,0,.3.1.5,0,0,0,0,0,0ZM319.3,38.9c.6-.3,1.3-.6,2-.9,0,0,.2,0,.2-.1,0,0,.1-.1.2-.2,0,0,0-.2,0-.3,0,0,0-.2,0-.3,0,0,0-.2-.1-.2,0,0-.1-.1-.2-.1,0,0-.2,0-.3,0,0,0-.2,0-.3,0-.7.3-1.4.6-2.1.9-.2,0-.3.2-.3.4,0,.2,0,.4,0,.5,0,0,0,0,0,0,0,.1.2.2.4.3.2,0,.3,0,.5,0ZM324.7,36.9c.7-.2,1.4-.3,2.1-.4,0,0,.2,0,.2,0,0,0,.1-.1.2-.2,0,0,0-.2.1-.2,0,0,0-.2,0-.3,0,0,0-.2,0-.2,0,0-.1-.1-.2-.2,0,0-.2,0-.2-.1,0,0-.2,0-.3,0-.8.1-1.5.3-2.2.4-.2,0-.3.1-.4.3,0,.2-.1.3,0,.5,0,.2.2.3.3.4.2,0,.3.1.5,0ZM330.3,36.2c.7,0,1.5,0,2.2,0,0,0,.2,0,.3,0,0,0,.2,0,.2-.1,0,0,.1-.1.2-.2,0,0,0-.2,0-.3,0,0,0-.2,0-.3,0,0,0-.2-.1-.2,0,0-.1-.1-.2-.2,0,0-.2,0-.3,0-.8,0-1.5,0-2.3,0-.2,0-.3,0-.5.2-.1.1-.2.3-.2.5,0,.2,0,.3.2.5.1.1.3.2.5.2ZM336,36.8c.7.2,1.4.3,2.1.6,0,0,.2,0,.3,0,0,0,.2,0,.3,0,0,0,.1,0,.2-.2,0,0,0-.1.1-.2,0,0,0-.2,0-.3,0,0,0-.2,0-.3,0,0,0-.1-.2-.2,0,0-.1,0-.2-.1-.7-.2-1.5-.4-2.2-.6,0,0-.2,0-.3,0,0,0-.2,0-.2,0,0,0-.1.1-.2.2,0,0,0,.2-.1.2,0,0,0,.2,0,.3,0,0,0,.2,0,.2,0,0,.1.1.2.2,0,0,.2,0,.2.1ZM341.4,38.6c.7.3,1.3.6,1.9,1,.2,0,.3.1.5,0,.2,0,.3-.2.4-.3,0-.2.1-.3,0-.5,0-.2-.2-.3-.3-.4-.7-.4-1.3-.7-2-1.1-.2,0-.3,0-.5,0-.2,0-.3.2-.4.3,0,.2,0,.3,0,.5,0,.2.2.3.3.4h0ZM356.5,58.4c0,0,.2,0,.2,0,0,0,.1-.1.2-.2,0,0,0-.2.1-.2,0,0,0-.2,0-.3-.1-.7-.3-1.5-.4-2.2,0-.2-.1-.3-.3-.4-.2,0-.3-.1-.5,0-.2,0-.3.1-.4.3,0,.2-.1.3,0,.5.2.7.3,1.4.4,2.1,0,0,0,.2,0,.2,0,0,.1.1.2.2,0,0,.2,0,.2.1,0,0,.2,0,.3,0ZM346.2,41.6c.6.4,1.1.9,1.7,1.4,0,0,.1.1.2.1,0,0,.2,0,.3,0,0,0,.2,0,.3,0,0,0,.2,0,.2-.2s.1-.1.1-.2c0,0,0-.2,0-.3,0,0,0-.2,0-.3,0,0,0-.2-.2-.2-.6-.5-1.1-1-1.7-1.5-.1-.1-.3-.2-.5-.1-.2,0-.3.1-.4.3-.1.1-.2.3-.1.5,0,.2.1.3.3.4h0ZM355.1,52.7c.2,0,.3-.2.4-.4,0-.2,0-.3,0-.5-.3-.7-.6-1.4-.9-2.1,0,0,0-.1-.2-.2,0,0-.1-.1-.2-.1,0,0-.2,0-.3,0,0,0-.2,0-.3,0,0,0-.1,0-.2.2,0,0-.1.1-.1.2,0,0,0,.2,0,.3,0,0,0,.2,0,.3.3.6.6,1.3.9,2,0,.2.2.3.4.4.2,0,.3,0,.5,0ZM350.3,45.6c.5.6.9,1.1,1.3,1.7,0,.1.3.2.4.3.2,0,.4,0,.5,0,.1,0,.2-.2.3-.4,0-.2,0-.4,0-.5,0,0,0,0,0,0-.4-.6-.9-1.2-1.4-1.8-.1-.1-.3-.2-.4-.2-.2,0-.3,0-.5.1-.1.1-.2.3-.3.4,0,.2,0,.3,0,.5,0,0,0,0,0,0h0Z"/>
    <path class="cls-39" d="M356.1,62.8c0-.1-.1-.2-.1-.4,0-.3,0-.7,0-1,0,0,0-.2,0-.3,0,0,0-.2.1-.2,0,0,.1-.1.2-.1,0,0,.2,0,.3,0,0,0,.2,0,.3,0,0,0,.2,0,.2.1,0,0,.1.1.1.2,0,0,0,.2,0,.3,0,.4,0,.7,0,1.1,0,.1,0,.3-.1.4,0,.1-.2.2-.3.2-.1,0-.3,0-.4,0-.1,0-.2-.1-.3-.3h0Z"/>
  </g>
  <g class="cls-46">
    <path class="cls-17" d="M347.5,81.3c0-.1-.1-.3-.1-.5,0-.2,0-.3.2-.4.3-.2.5-.5.8-.7.1-.1.3-.2.5-.2.2,0,.3,0,.5.2.1.1.2.3.2.5,0,.2,0,.3-.2.5-.3.3-.5.5-.8.8,0,0-.2.1-.2.1,0,0-.2,0-.3,0,0,0-.2,0-.3,0,0,0-.2-.1-.2-.2h0Z"/>
    <path class="cls-35" d="M308.9,77.2c0,0,.1.1.2.2,0,0,.2,0,.2,0,0,0,.2,0,.3,0,0,0,.2,0,.2-.1,0,0,.1-.1.2-.2,0,0,0-.2,0-.2,0,0,0-.2,0-.3,0,0,0-.2-.1-.2-.4-.6-.8-1.2-1.2-1.8,0-.2-.2-.3-.4-.3-.2,0-.4,0-.5,0-.2,0-.3.2-.3.4,0,.2,0,.4,0,.5.2.3.3.5.5.8.2.4.5.7.7,1.1ZM306.9,72.5c0,0,.2,0,.2-.1,0,0,.1-.1.1-.2,0,0,0-.2,0-.3,0,0,0-.2,0-.3-.3-.7-.5-1.3-.8-2,0,0,0-.2-.1-.2,0,0-.1-.1-.2-.2,0,0-.2,0-.3,0,0,0-.2,0-.3,0,0,0-.2,0-.2.1,0,0-.1.1-.2.2,0,0,0,.2,0,.3,0,0,0,.2,0,.3.2.7.5,1.4.8,2.1,0,0,0,0,0,.1,0,.1.2.2.4.3.2,0,.3,0,.5,0ZM311.2,80c.5.5,1.1,1.1,1.6,1.6,0,0,.1.1.2.1,0,0,.2,0,.3,0,0,0,.2,0,.3,0,0,0,.2,0,.2-.2,0,0,.1-.1.1-.2,0,0,0-.2,0-.3,0,0,0-.2,0-.3,0,0,0-.1-.2-.2-.5-.5-1-1-1.5-1.5-.1-.1-.3-.2-.5-.2-.2,0-.3,0-.5.2-.1.1-.2.3-.2.5,0,.2,0,.3.2.5h0ZM305,67.1c0,0,.2,0,.2,0,0,0,.1-.1.2-.2,0,0,0-.2.1-.2s0-.2,0-.3c-.1-.7-.2-1.4-.3-2.1,0,0,0-.2,0-.2,0,0,0-.1-.2-.2s-.1,0-.2-.1c0,0-.2,0-.3,0,0,0-.2,0-.2,0,0,0-.1,0-.2.2,0,0,0,.1-.1.2,0,0,0,.2,0,.3,0,.7.2,1.5.3,2.2,0,0,0,.2,0,.2,0,0,.1.1.2.2,0,0,.2,0,.2.1,0,0,.2,0,.3,0h0ZM315.7,83.8c.6.4,1.3.8,1.9,1.2.2,0,.3.1.5,0s.3-.2.4-.3c0-.2.1-.3,0-.5,0-.2-.2-.3-.3-.4-.6-.3-1.2-.7-1.8-1.1,0,0-.2,0-.2-.1s-.2,0-.3,0-.2,0-.2,0c0,0-.1.1-.2.2,0,0,0,.2-.1.2,0,0,0,.2,0,.3,0,0,0,.2.1.2,0,0,.1.1.2.2ZM321,86.5c.7.3,1.4.5,2.1.7,0,0,.2,0,.3,0,0,0,.2,0,.3,0,0,0,.1,0,.2-.2,0,0,0-.1.1-.2,0,0,0-.2,0-.3,0,0,0-.2,0-.2,0,0-.1-.1-.2-.2,0,0-.1,0-.2-.1-.7-.2-1.4-.4-2-.7-.2,0-.4,0-.5,0-.2,0-.3.2-.4.4,0,.2,0,.3,0,.5,0,.2.2.3.4.4ZM326.7,88c.7.1,1.5.2,2.2.2,0,0,.2,0,.3,0,0,0,.2,0,.2-.1,0,0,.1-.1.2-.2,0,0,0-.2,0-.3,0,0,0-.2,0-.3,0,0,0-.2-.1-.2,0,0-.1-.1-.2-.2,0,0-.2,0-.3,0-.7,0-1.4-.1-2.1-.2,0,0-.2,0-.3,0,0,0-.2,0-.2.1,0,0-.1.1-.2.2,0,0,0,.2,0,.2,0,0,0,.2,0,.3,0,0,0,.2.1.2,0,0,.1.1.2.2s.2,0,.2,0ZM332.6,88.2c.7,0,1.5-.1,2.2-.3,0,0,.2,0,.2,0,0,0,.1-.1.2-.2,0,0,0-.2.1-.2,0,0,0-.2,0-.3,0,0,0-.2,0-.2,0,0-.1-.1-.2-.2,0,0-.2,0-.2-.1,0,0-.2,0-.3,0-.7.1-1.4.2-2.1.2,0,0-.2,0-.3,0,0,0-.1,0-.2.2,0,0-.1.1-.1.2,0,0,0,.2,0,.3,0,0,0,.2,0,.3,0,0,0,.1.2.2,0,0,.1.1.2.1,0,0,.2,0,.3,0h0ZM338.4,87.1c.7-.2,1.4-.5,2.1-.7.2,0,.3-.2.4-.4,0-.2,0-.3,0-.5s-.2-.3-.4-.4-.3,0-.5,0c-.7.3-1.3.5-2,.7-.2,0-.3.2-.4.3,0,.2-.1.3,0,.5,0,.2.2.3.3.4.2,0,.3.1.5,0ZM343.8,84.8c.5-.3,1-.6,1.4-.9.2-.1.3-.2.5-.3,0,0,.1-.1.2-.2,0,0,0-.2,0-.2,0,0,0-.2,0-.3,0,0,0-.2-.1-.2,0,0-.1-.1-.2-.2,0,0-.2,0-.2,0,0,0-.2,0-.3,0,0,0-.2,0-.2.1-.2.1-.3.2-.5.3-.4.3-.9.6-1.3.8,0,0-.1.1-.2.2,0,0,0,.1-.1.2,0,0,0,.2,0,.3,0,0,0,.2,0,.2,0,0,0,0,0,0,0,.1.2.2.4.3.2,0,.3,0,.5,0h0Z"/>
    <path class="cls-23" d="M303.9,61c0-.1-.1-.3-.1-.4,0-.4,0-.7,0-1.1,0-.2,0-.3.2-.5.1-.1.3-.2.5-.2.2,0,.3,0,.5.2.1.1.2.3.2.5,0,.3,0,.7,0,1,0,.1,0,.3-.1.4,0,.1-.2.2-.3.2-.1,0-.3,0-.4,0-.1,0-.2-.1-.3-.3Z"/>
  </g>
  <path class="cls-14" d="M312.3,53.2c0,0,0-.1.1-.2,0,0,.1,0,.2,0h3.8c.9-1.6,2.1-3,3.5-4.2l-.5-3.8c0,0,0-.1,0-.2,0,0,0-.1.1-.1l4.1-2.1c0,0,.1,0,.2,0,0,0,.1,0,.2,0l2.8,2.6c1.8-.4,3.6-.6,5.4-.4l2.3-3c0,0,0,0,.2-.1,0,0,.1,0,.2,0l4.4,1.4c0,0,.1,0,.2.1,0,0,0,.1,0,.2v3.8c1.6.9,3,2.1,4.2,3.5l3.8-.5c0,0,.1,0,.2,0,0,0,.1,0,.1.1l2.1,4.1c0,0,0,.1,0,.2,0,0,0,.1,0,.2l-2.6,2.7c.4,1.7.6,3.6.4,5.3l3.1,2.3c0,0,0,0,.1.2,0,0,0,.1,0,.2l-1.4,4.3c0,0,0,.1-.1.2,0,0-.1,0-.2,0h-3.8c-.9,1.6-2.1,3-3.5,4.2l.5,3.8c0,0,0,.1,0,.2,0,0,0,.1-.1.1l-4.1,2.1c0,0-.1,0-.2,0,0,0-.1,0-.2,0l-2.8-2.6c-1.8.4-3.6.6-5.4.4l-2.3,3c0,0,0,0-.2.1,0,0-.1,0-.2,0l-4.4-1.4c0,0-.1,0-.2-.1,0,0,0-.1,0-.2v-3.8c-1.6-.9-3-2.1-4.2-3.5l-3.8.5c0,0-.1,0-.2,0,0,0-.1,0-.1-.1l-2.1-4.1c0,0,0-.1,0-.2s0-.1,0-.2l2.6-2.7c-.4-1.7-.6-3.6-.4-5.3l-3.1-2.3c0,0,0,0-.1-.2,0,0,0-.1,0-.2l1.4-4.3Z"/>
  <path class="cls-45" d="M327.3,64.5c.8.9,1.9,1.4,3.1,1.5,1.2,0,2.4-.3,3.3-1,.9-.8,1.5-1.8,1.7-3,.1-1.2-.2-2.4-.9-3.3-.7-.9-1.8-1.6-3-1.8-1.2-.2-2.4,0-3.3.8-1,.7-1.6,1.7-1.9,2.9-.2,1.2,0,2.4.7,3.4.1.2.3.4.4.5ZM334.3,61.7c0,.8-.4,1.6-.9,2.2-.6.6-1.3,1-2.1,1.1-.8.1-1.6,0-2.3-.5-.7-.4-1.2-1.1-1.5-1.9-.3-.8-.3-1.6,0-2.4.3-.8.8-1.4,1.5-1.8.7-.4,1.5-.6,2.3-.4.8.1,1.5.5,2.1,1.1.1.1.2.3.3.4.4.6.6,1.4.6,2.1h0Z"/>
  <path class="cls-45" d="M321.4,67.7c-.2-.3-.4-.7-.6-1,0-.1-.1-.2-.2-.3-.3-.5-.5-1.1-.6-1.7h0s0,0,0,0c0,0,0,0,0-.1,0,0,0-.1,0-.2,0,0,0,0,.1-.1,0,0,0,0,.1,0s0,0,.1,0c0,0,0,0,.1,0,0,0,0,0,0,.1.6,2.1,1.8,4,3.5,5.4,1.7,1.4,3.8,2.3,6,2.5,2,.2,4.1-.2,5.9-1.1.3-.2.6-.4,1-.6,1.4-.9,2.5-2,3.3-3.4.8-1.4,1.4-2.9,1.5-4.5.2-1.6,0-3.2-.6-4.7-.6-1.5-1.4-2.9-2.6-4-1.2-1.1-2.5-2-4.1-2.5-1.5-.5-3.1-.7-4.8-.5s-3.1.7-4.5,1.6c-1.4.9-2.5,2-3.4,3.4,0,0,0,.1-.2.1,0,0-.1,0-.2,0,0,0-.1,0-.1-.2,0,0,0-.1,0-.2,1.1-1.7,2.6-3.1,4.4-4.1,5.5-2.8,12.4-.7,15.2,4.9,1.3,2.5,1.6,5.3.9,8-.7,2.7-2.4,5-4.8,6.6-.3.2-.7.4-1,.6-2.5,1.3-5.4,1.6-8.1.9-2.7-.7-5-2.4-6.6-4.7h0Z"/>
  <g class="cls-46">
    <path class="cls-9" d="M286.3,32.2c0,0,0-.2,0-.3,0,0,0-.2,0-.2.2-.3.5-.5.7-.8,0,0,.2-.1.3-.1.1,0,.2,0,.3.1,0,0,.1.2.1.3,0,.1,0,.2-.1.3-.2.2-.5.5-.7.7,0,0,0,0-.2.1,0,0-.1,0-.2,0,0,0-.1,0-.2,0,0,0-.1,0-.1-.1h0Z"/>
    <path class="cls-4" d="M288.6,30.1c0,0,.2.1.3.2.1,0,.2,0,.3,0,.5-.4.9-.7,1.4-1,.1,0,.2-.1.3-.2,0,0,.2-.2.2-.3,0-.1,0-.2,0-.3,0,0-.2-.2-.3-.2-.1,0-.2,0-.3,0-.1,0-.2.1-.3.2-.5.3-1,.7-1.5,1.1,0,0-.1.2-.1.3,0,.1,0,.2,0,.3,0,0,0,0,0,0ZM292.7,27.9c.6-.3,1.3-.5,2-.8.1,0,.2-.1.2-.2,0,0,0-.2,0-.3,0-.1-.1-.2-.2-.2,0,0-.2,0-.3,0-.7.2-1.4.5-2.1.8,0,0,0,0-.1,0,0,0,0,0,0,.1,0,0,0,.1,0,.2,0,0,0,.1,0,.2,0,0,0,0,0,0,0,0,.1.1.2.2,0,0,.2,0,.3,0ZM296.7,26.6c.7-.1,1.4-.2,2.1-.3.1,0,.2,0,.3-.1,0,0,.1-.2.1-.3,0-.1,0-.2-.1-.3,0,0-.2-.1-.3-.1-.7,0-1.5.1-2.2.3-.1,0-.2,0-.3.2,0,0,0,.2,0,.3,0,.1,0,.2.2.3,0,0,.2,0,.3,0ZM300.9,26.4c.7,0,1.4.1,2.1.3.1,0,.2,0,.3,0,0,0,.2-.2.2-.3,0-.1,0-.2,0-.3,0,0-.2-.2-.3-.2-.7-.1-1.5-.2-2.2-.3-.1,0-.2,0-.3.1,0,0-.1.2-.1.3,0,.1,0,.2.1.3,0,0,.2.1.3.1ZM305.1,27.1c.7.2,1.3.5,2,.8,0,0,.1,0,.2,0,0,0,.1,0,.2,0,0,0,0,0,.1,0,0,0,0,0,0-.1,0,0,0-.1,0-.2,0,0,0-.1,0-.2,0,0,0,0,0-.1,0,0,0,0-.1,0-.7-.3-1.4-.6-2.1-.8-.1,0-.2,0-.3,0,0,0-.2.1-.2.2,0,.1,0,.2,0,.3,0,0,.1.2.2.2ZM308.9,28.9c.6.4,1.2.8,1.7,1.2,0,0,.2,0,.3,0,.1,0,.2,0,.3-.2,0,0,.1-.2,0-.3,0-.1,0-.2-.1-.3-.6-.5-1.2-.9-1.8-1.3,0,0-.2,0-.3,0-.1,0-.2,0-.3.2,0,0,0,.2,0,.3,0,.1,0,.2.2.3h0ZM312.1,31.5c.5.5.9,1,1.4,1.6,0,0,0,0,.1.1,0,0,0,0,.2,0,0,0,.1,0,.2,0,0,0,.1,0,.1,0,0,0,0,0,.1-.1,0,0,0,0,0-.2,0,0,0-.1,0-.2,0,0,0-.1,0-.1-.4-.6-.9-1.1-1.4-1.7,0,0-.2-.1-.3-.1-.1,0-.2,0-.3.1,0,0-.1.2-.1.3,0,.1,0,.2.1.3h0ZM316.1,36.9c.1,0,.2-.1.2-.2,0-.1,0-.2,0-.3-.2-.6-.5-1.2-.8-1.7,0,0,0-.2-.1-.3,0,0-.1-.2-.3-.2-.1,0-.2,0-.3,0,0,0-.2.1-.2.3,0,.1,0,.2,0,.3,0,0,0,.2.1.2.3.5.6,1.1.8,1.6,0,0,0,0,0,0,0,0,.1.1.2.2,0,0,.2,0,.3,0h0Z"/>
  </g>
  <g class="cls-46">
    <path class="cls-41" d="M285,53.3c.4.6.8,1.2,1.3,1.7,0,0,0,0,.1.1,0,0,.1,0,.2,0,0,0,.1,0,.2,0,0,0,0,0,.1,0,0,0,0,0,.1-.1,0,0,0-.1,0-.2,0,0,0-.1,0-.2,0,0,0,0,0-.1-.5-.5-.9-1.1-1.3-1.6,0,0-.2-.1-.3-.2-.1,0-.2,0-.3,0,0,0-.2.2-.2.3,0,.1,0,.2,0,.3h0ZM284.5,51.6c0,0,.2-.1.2-.2,0-.1,0-.2,0-.3-.3-.6-.6-1.2-.8-1.9,0-.1-.1-.2-.2-.2-.1,0-.2,0-.3,0-.1,0-.2.1-.2.2,0,0,0,.2,0,.3.2.7.5,1.3.9,2,0,0,0,0,.1.1,0,0,0,0,.1,0,0,0,.1,0,.2,0,0,0,.1,0,.2,0ZM287.9,56.5c.5.5,1.1.9,1.7,1.4,0,0,.2,0,.3,0,.1,0,.2,0,.3-.2,0,0,0-.2,0-.3,0-.1,0-.2-.2-.3-.6-.4-1.1-.8-1.6-1.3,0,0,0,0-.1,0,0,0-.1,0-.2,0,0,0-.1,0-.2,0,0,0,0,0-.1,0,0,0,0,0,0,.1,0,0,0,.1,0,.2,0,0,0,.1,0,.2s0,0,.1.1h0ZM283,47.7c.1,0,.2,0,.3-.2,0,0,0-.2,0-.3-.2-.7-.3-1.3-.3-2,0,0,0-.1,0-.2,0,0,0,0-.1-.1,0,0,0,0-.1,0,0,0-.1,0-.2,0,0,0-.1,0-.2,0,0,0,0,0-.1.1,0,0,0,0,0,.1,0,0,0,.1,0,.2,0,.7.2,1.4.4,2.1,0,.1,0,.2.2.3,0,0,.2,0,.3,0ZM291.4,59c.6.3,1.3.6,2,.9,0,0,.1,0,.2,0,0,0,.1,0,.2,0,0,0,0,0,.1,0,0,0,0,0,0-.1,0,0,0-.1,0-.2,0,0,0-.1,0-.2,0,0,0,0,0-.1,0,0,0,0-.1,0-.6-.3-1.3-.5-1.9-.9,0,0-.2,0-.3,0-.1,0-.2.1-.2.2,0,0,0,.2,0,.3,0,.1.1.2.2.2ZM295.4,60.6c.7.2,1.4.3,2.1.4.1,0,.2,0,.3,0,0,0,.1-.2.2-.3,0-.1,0-.2,0-.3,0,0-.2-.1-.3-.2-.7,0-1.4-.2-2-.4-.1,0-.2,0-.3,0,0,0-.2.1-.2.3,0,.1,0,.2,0,.3,0,0,.1.2.2.2h0ZM299.7,61.2c.7,0,1.4,0,2.2-.1.1,0,.2,0,.3-.2,0,0,0-.2,0-.3,0-.1,0-.2-.2-.3,0,0-.2-.1-.3,0-.7,0-1.4.1-2.1.1-.1,0-.2,0-.3.1,0,0-.1.2-.1.3,0,0,0,.2,0,.2,0,0,0,.1.1.1,0,0,.1,0,.2,0h0Z"/>
    <path class="cls-31" d="M282.1,43.3c0,0,0-.2,0-.2,0-.4,0-.7,0-1.1,0,0,0-.1,0-.2,0,0,0,0,.1-.1,0,0,0,0,.1,0,0,0,.1,0,.2,0,0,0,.1,0,.2,0,0,0,0,0,.1.1,0,0,0,0,0,.1,0,0,0,.1,0,.2,0,.3,0,.7,0,1,0,0,0,.2,0,.2,0,0-.1.1-.2.1,0,0-.2,0-.3,0,0,0-.2,0-.2-.2Z"/>
  </g>
  <path class="cls-32" d="M287.7,37.7s0,0,0-.1c0,0,0,0,.1,0h2.6c.6-1.1,1.4-2,2.3-2.8l-.4-2.5s0,0,0-.1c0,0,0,0,0,0l2.7-1.4s0,0,.1,0,0,0,.1,0l1.8,1.8c1.2-.3,2.4-.4,3.6-.3l1.5-2s0,0,.1,0c0,0,0,0,.1,0l2.9.9s0,0,.1,0c0,0,0,0,0,.1v2.5c1.1.6,2,1.4,2.8,2.3l2.5-.4s0,0,.1,0c0,0,0,0,0,0l1.4,2.7s0,0,0,.1c0,0,0,0,0,.1l-1.8,1.8c.3,1.2.4,2.4.3,3.6l2,1.5s0,0,0,.1c0,0,0,0,0,.1l-.9,2.9s0,0,0,.1c0,0,0,0-.1,0h-2.6c-.6,1.1-1.4,2-2.3,2.8l.4,2.5s0,0,0,.1c0,0,0,0,0,0l-2.7,1.4s0,0-.1,0c0,0,0,0-.1,0l-1.8-1.8c-1.2.3-2.4.4-3.6.3l-1.5,2s0,0-.1,0c0,0,0,0-.1,0l-2.9-.9s0,0-.1,0c0,0,0,0,0-.1v-2.5c-1.1-.6-2-1.4-2.8-2.3l-2.5.4s0,0-.1,0c0,0,0,0,0,0l-1.4-2.7s0,0,0-.1c0,0,0,0,0-.1l1.8-1.8c-.3-1.2-.4-2.4-.3-3.6l-2-1.5s0,0,0-.1c0,0,0,0,0-.1l.9-2.9Z"/>
  <path class="cls-45" d="M297.7,45.3c.5.6,1.3,1,2.1,1,.8,0,1.6-.2,2.2-.7.6-.5,1-1.2,1.1-2,0-.8-.1-1.6-.6-2.2-.5-.6-1.2-1.1-2-1.2-.8-.1-1.6,0-2.3.5-.7.5-1.1,1.2-1.3,2-.2.8,0,1.6.4,2.3,0,.1.2.3.3.4ZM301.5,45c-.2.2-.5.4-.8.5-.3,0-.6.1-.9.1-.3,0-.6,0-.9-.2-.3-.1-.5-.3-.7-.5-.4-.5-.6-1.1-.6-1.7,0-.6.3-1.2.8-1.6.5-.4,1.1-.6,1.7-.6.6,0,1.2.3,1.6.8,0,0,.1.2.2.3.3.5.4,1,.3,1.6,0,.5-.3,1-.8,1.4Z"/>
  <path class="cls-45" d="M293.5,47.5c-.1-.2-.3-.4-.4-.7-.2-.5-.4-1-.6-1.5h0c0-.1,0-.2,0-.2,0,0,0-.1,0-.2,0,0,0,0,.1-.1,0,0,0,0,.1,0,0,0,.1,0,.2,0s.1,0,.2,0c0,0,0,0,.1.1,0,0,0,0,0,.1.1.5.3.9.5,1.4,0,0,0,0,0,0,.5,1,1.3,1.9,2.3,2.5.5.3,1.1.6,1.7.8h0s0,0,0,0c.9.3,1.8.4,2.7.3.9,0,1.8-.3,2.6-.8.2-.1.4-.2.6-.4.9-.6,1.6-1.3,2.1-2.2.5-.9.9-1.9,1-2.9.1-1,0-2.1-.4-3.1-.4-1-.9-1.9-1.7-2.6-.7-.7-1.6-1.3-2.6-1.6s-2-.4-3.1-.3c-1,.1-2,.5-2.9,1-.9.6-1.6,1.3-2.2,2.2,0,0,0,0-.1.1,0,0-.2,0-.3,0,0,0-.2,0-.2-.1,0,0-.1-.2-.1-.2,0,0,0-.2,0-.3.6-1,1.4-1.8,2.4-2.5,1-.6,2.1-1,3.3-1.2,1.2-.1,2.3,0,3.4.4,1.1.4,2.1,1,2.9,1.8.8.8,1.5,1.8,1.9,2.9.4,1.1.5,2.3.4,3.4-.1,1.2-.5,2.3-1.1,3.3-.6,1-1.4,1.8-2.4,2.5-.2.1-.5.3-.7.4-1.7.9-3.7,1.1-5.6.6-1.9-.5-3.5-1.7-4.5-3.3Z"/>
  <path class="cls-2" d="M202.4,75.6l12,12.3-14.4-3.8,2.4-8.4Z"/>
  <path class="cls-21" d="M130.8,80.6l68.4,3.3c.4,0,.8,0,1.2-.2.4-.1.7-.4,1.1-.7.3-.3.5-.6.7-1,.2-.4.2-.8.2-1.2v-28.1c0-1.5-.6-2.9-1.6-3.9-1-1.1-2.4-1.7-3.9-1.7l-61.7-1.9c-2.2,0-4.3.9-5.9,2.4-1.6,1.6-2.4,3.7-2.4,5.9v23.1c0,1,.4,2,1.1,2.8.7.7,1.7,1.2,2.7,1.2Z"/>
  <path class="cls-7" d="M197.2,82.8c1.1,0,2.2-.4,3-1.2.8-.8,1.2-1.9,1.2-3v-25.3c0-3-2.4-5.4-5.5-5.5l-59.7-1.8c-4.5,0-8.2,3.6-8.2,8v21.8c0,2.1,1.7,3.8,3.8,3.9l65.1,3.1c0,0,.1,0,.2,0ZM136.2,46.3l59.7,1.8c2.9,0,5.2,2.4,5.2,5.2v25.3c0,.5-.1,1.1-.3,1.5-.2.5-.5.9-.9,1.3-.4.4-.8.7-1.3.8-.5.2-1,.3-1.6.2l-65.1-3.1h0c0,.1,0,0,0,0-2,0-3.6-1.7-3.6-3.6v-21.8c0-4.2,3.5-7.7,7.9-7.7Z"/>
  <path class="cls-38" d="M136.4,51.5l54.7,2c.5,0,1,.4.9.8v.5c0,.4-.5.7-1,.7l-54.7-2c-.5,0-1-.4-.9-.8v-.5c0-.4.5-.7,1-.7Z"/>
  <path class="cls-38" d="M141.3,65.3l54.7,2c.5,0,1,.4.9.8v.5c0,.4-.5.8-1,.7l-54.7-2c-.5,0-1-.4-.9-.8v-.5c0-.4.5-.8,1-.7Z"/>
  <path class="cls-38" d="M134.9,71l61,2.3c.6,0,1.1.4,1.1.8v.5c0,.4-.5.8-1.1.7l-61-2.2c-.6,0-1.1-.4-1.1-.8v-.6c0-.4.5-.8,1.1-.7Z"/>
  <path class="cls-38" d="M166.4,59.6l29.8.9c.3,0,.5.4.5.9v.6c0,.5-.3.9-.6.8l-29.8-.8c-.3,0-.5-.4-.5-.9v-.6c0-.5.3-.9.6-.8Z"/>
  <path class="cls-38" d="M133.6,58.6l28.2.8c.3,0,.5.4.5.9v.6c0,.5-.3.9-.6.9l-28.2-.7c-.3,0-.5-.4-.5-.9v-.6c0-.5.3-.9.6-.9Z"/>
  <path class="cls-5" d="M306.3,235.4s.6,3.2.8,6.3c0,.3,0,.6-.1.9,0,.3-.2.5-.4.8-.2.2-.4.4-.7.5-.3.1-.6.2-.8.2-4.2.2-13.2.5-16.4.4-.1,0-.2,0-.3,0s-.2-.1-.2-.2c0,0,0-.2-.1-.3,0-.1,0-.2,0-.3.2-.4.4-.7.8-.9l14.9-6.8,2.6-.4Z"/>
  <path class="cls-18" d="M306.8,233.5l-.5,3.8s-2.6,1.2-4.4-.2l1.1-4.2,3.8.6Z"/>
  <path class="cls-15" d="M306.4,162c.2,1,1,49.6-4.2,71.4,0,.2,0,.4,0,.5,0,.2.2.3.4.3,1.4.5,2.8.8,4.2.9.3,0,.6,0,.8-.2.2-.2.4-.4.5-.7,1.5-5.1,8.6-30.4,9.6-54.6,1-27,0-.9,0-.9l-.6-16.7h-10.7Z"/>
  <path class="cls-29" d="M323.4,237s.9,1.6,1.8,5.9c0,.2,0,.4,0,.6,0,.2-.1.4-.2.5-.1.1-.3.3-.4.4-.2,0-.3.1-.5.2-1.4.1-3.5.3-5.2.3-.2,0-.4,0-.5-.1-.2,0-.3-.2-.4-.3-.1-.1-.2-.3-.3-.5,0-.2,0-.4,0-.5.2-1.6.8-4.1,2.6-6.1l3.3-.2Z"/>
  <path class="cls-16" d="M324.2,232.2l-1.1,5.8s-1,.8-3.1.2l.5-6.2,3.7.2Z"/>
  <path class="cls-30" d="M327.1,163.4c4.3,25.6-.9,63.4-2.7,70.8,0,.2-.2.4-.3.6-.2.2-.4.3-.6.3-.8.1-2.1.2-3.3-.1-.2,0-.4-.2-.5-.4-.1-.2-.2-.4-.2-.6-.2-6,.2-42.6-3.8-57.1-.2-.7-.7-1.4-1.3-1.8l-7.7-5.5-.6-8.8,21.1,2.7Z"/>
  <path class="cls-27" d="M299.9,114.8c12.8-.2,26.9,3.3,26.9,3.3,3.8,22.2.7,47.7.7,47.7-9.9,2.6-21-1.6-21-1.6-1.6-9.3-9.3-35.3-9.3-35.3-6.2-.8-11.4-2.6-15.6-4.9,3.2-3.7,4.8-8.5,5.4-11.3,4.5,1.4,9.1,2.1,13,2.1Z"/>
  <path class="cls-37" d="M262.2,96.1c1.3-1.5,2.8-.8,2.8-.8,1.9,7.9,11.7,14.3,21.9,17.5-.7,2.8-2.2,7.6-5.4,11.3-16.8-9.4-19.3-28-19.3-28Z"/>
  <path class="cls-36" d="M262.5,96.5c-.1.4,1.4,1.1,2.3-.7,0-.8.5-4.3,0-5-2.6-3.5-7.7-8-7.7-8-.9.8-.2,1.7-.2,1.7l2.5,2.5c-.5.9-1.1,1.7-1.4,2.8-.2.9,0,1.8.3,2.5.4.8,1,1.8,1.6,2.6,1,1.5,2.5,1.5,2.5,1.5Z"/>
  <path class="cls-33" d="M260.5,88.7l2.2,1.9.7,1.9-2,2.2s-.7-3.7-1.2-4.5c-.5-.8-.2-1.2.2-1.4Z"/>
  <path class="cls-11" d="M321.9,130.5l4.9-12.3s11.9,8.1,13.9,18.3c-2.3.2-6.4.8-10.4,2.8-.9-4.8-8.4-8.8-8.4-8.8Z"/>
  <path class="cls-20" d="M311.4,142.1s13.4,7.5,17.9,1.1c.9-1.3,1.2-2.7.9-3.9,4-2,8.1-2.6,10.4-2.8.6,3.1.3,6.4-1.5,9.7-7.9,14.4-29.5-.8-29.5-.8l1.8-3.3Z"/>
  <path class="cls-3" d="M313.1,151.7l-7.3-25.5c0-.1-.1-.3-.2-.4-.1,0-.2-.2-.4-.2-1.3-.2-5.2-.6-9.6-1-5.3-.4-11.5-.8-15.2-.5-.1,0-.2,0-.3.1-.1,0-.2.2-.2.3,0,.1,0,.2,0,.3,0,.1,0,.2,0,.4,2.1,4.2,10.8,21.5,15.1,27.2,0,0,.2.2.3.2.1,0,.2,0,.3,0l17-.2c.1,0,.2,0,.3,0,.1,0,.2-.1.3-.2,0,0,.1-.2.1-.3,0-.1,0-.2,0-.3Z"/>
  <path class="cls-12" d="M294.8,122.5l-5.3-.9c0,0-.1,0-.2,0,0,0-.1,0-.2.1,0,0,0,.1,0,.2,0,0,0,.1,0,.2l.5,1.6c0,0,0,.1.1.2,0,0,.1,0,.2,0l5.1.7c0,0,.1,0,.2,0,0,0,.1,0,.2-.1,0,0,0,0,0-.2,0,0,0-.1,0-.2l-.3-1.4c0,0,0-.1-.1-.2,0,0-.1,0-.2,0Z"/>
  <path class="cls-19" d="M298.7,127l-.4-2.3c0-.1,0-.2-.2-.3,0,0-.2-.1-.3-.1l-10.7-1.1c0,0-.2,0-.2,0,0,0-.1,0-.2.1,0,0,0,.1-.1.2,0,0,0,.2,0,.2l.7,2.8c0,.1,0,.2.2.3,0,0,.2.1.3.1l10.5.5c0,0,.2,0,.2,0,0,0,.1,0,.2-.1,0,0,0-.1.1-.2,0,0,0-.2,0-.2Z"/>
  <path class="cls-28" d="M311.3,145.5s1-4.2.6-5.7c-.4-1.5-1.2-3.4-3.9-3-2.7.4-5.8,1.5-5.8,1.5,0,0,.2,1.9,2.2,1.3l-1.3,1s.2,1.5,1.9.7l-1.2,1.3s.7,1.3,2,.5c1.3-.8,1.9,2.9,5.4,2.4Z"/>
  <path class="cls-44" d="M312.8,104.5l4.1,11.7c0,0,0,.2,0,.3,0,0-.1.2-.2.2-1.1.6-5.1,2.4-9.9-.7-.2-.2-.5-.4-.6-.6-.2-.2-.3-.5-.3-.8l-1.3-10.1h8.3Z"/>
  <path class="cls-1" d="M304,93.7s-4.5,8.4-3.9,11.8c.6,3.4,6.1,3.1,10.9.4l3.4-9-10.4-3.1Z"/>
  <path class="cls-25" d="M310.8,101.4s0,0-.1,0c0,0,0,0,0-.1,0,0,0,0,0-.1,0,0,0,0,0-.1.4-.5,1-1.7,1.2-2.6,0,0,.8-.5-2-1.2-2.8-.7-7.1-1.7-8-4.1-.9-2.4,1.4-8.3,5.1-3.6,0,0,0,0,.1,0,0,0,.1,0,.2,0,0,0,.1,0,.2,0,0,0,0,0,.1,0,.6-.8,2.2-2.4,4.3-1.4,2,.9,2.3,2.4,2.2,3.2,0,0,0,.1,0,.2,0,0,0,0,0,.1,0,0,0,0,.1,0,0,0,.1,0,.2,0,1-.2,3.5-.4,4.7,2.2,1,2.1.3,3.3-.2,3.8,0,0,0,0,0,.2,0,0,0,.1,0,.2,0,0,0,.1,0,.2,0,0,0,0,.1,0,.7.2,1.6.8,1.5,2.4-.1,2.2-2.6,2-3.3,1.9,0,0-.1,0-.2,0,0,0-.1,0-.1,0-.6.7-3.3,3.5-6.2,3.8,0,0-.1,0-.2,0,0,0-.1,0-.1-.1s0,0,0-.2c0,0,0-.1,0-.2l1.3-3.7c0,0,0-.2,0-.3,0,0,0-.1-.2-.2l-.6-.3Z"/>
  <path class="cls-13" d="M310.3,101.9s3.2-2.2,3.4-.3c.2,1.8-2.9,2.7-4.4,2l1-1.6Z"/>
</svg>